<svg width="363.000000" height="54.000000" viewBox="0 0 363 54" fill="none" xmlns="http://www.w3.org/2000/svg" xmlns:xlink="http://www.w3.org/1999/xlink">
	<desc>
			Created with Pixso.
	</desc>
	<defs>
		<clipPath id="clip8218_23386">
			<rect id="Frame 2085659883" rx="26.500000" width="362.000000" height="53.000000" transform="translate(0.500000 0.500000)" fill="white" fill-opacity="0"/>
		</clipPath>
	</defs>
	<g clip-path="url(#clip8218_23386)">
		<g opacity="0.500000">
			<path id="As seen in:" d="M80.81 26.18C80.81 26.55 80.48 26.86 80.09 26.86C79.7 26.86 79.37 26.55 79.37 26.18C79.37 25.8 79.7 25.5 80.09 25.5C80.48 25.5 80.81 25.8 80.81 26.18ZM32.54 32.02L31.66 34.5L30.56 34.5L33.76 25.77L34.85 25.77L38.06 34.5L36.95 34.5L36.07 32.02L32.54 32.02ZM34.27 27.15L32.87 31.08L35.74 31.08L34.34 27.15L34.27 27.15ZM41.6 27.87C42.9 27.87 43.6 28.49 43.92 29.41L43.01 29.67C42.84 29.22 42.48 28.73 41.6 28.73C40.8 28.73 40.2 29.14 40.2 29.71C40.2 30.21 40.55 30.47 41.33 30.66L42.3 30.9C43.47 31.18 44.04 31.76 44.04 32.67C44.04 33.8 43 34.63 41.48 34.63C40.14 34.63 39.23 34.04 38.99 32.93L39.95 32.69C40.13 33.39 40.64 33.75 41.46 33.75C42.4 33.75 43 33.29 43 32.72C43 32.27 42.69 31.96 42.03 31.8L40.94 31.54C39.73 31.26 39.2 30.66 39.2 29.76C39.2 28.65 40.22 27.87 41.6 27.87ZM51.25 27.87C52.55 27.87 53.25 28.49 53.57 29.41L52.66 29.67C52.49 29.22 52.13 28.73 51.25 28.73C50.45 28.73 49.85 29.14 49.85 29.71C49.85 30.21 50.2 30.47 50.98 30.66L51.95 30.9C53.12 31.18 53.68 31.76 53.68 32.67C53.68 33.8 52.65 34.63 51.13 34.63C49.79 34.63 48.87 34.04 48.64 32.93L49.6 32.69C49.77 33.39 50.29 33.75 51.11 33.75C52.05 33.75 52.65 33.29 52.65 32.72C52.65 32.27 52.33 31.96 51.68 31.8L50.59 31.54C49.38 31.26 48.85 30.66 48.85 29.76C48.85 28.65 49.87 27.87 51.25 27.87ZM60.56 32.98C60.25 33.97 59.28 34.63 57.95 34.63C56.06 34.63 54.9 33.29 54.9 31.27C54.9 29.26 56.07 27.87 57.85 27.87C59.21 27.87 60.66 28.7 60.66 31.14L60.66 31.56L55.91 31.56C55.95 32.97 56.77 33.73 57.95 33.73C58.74 33.73 59.33 33.39 59.58 32.71L60.56 32.98ZM67.54 32.98C67.24 33.97 66.27 34.63 64.94 34.63C63.04 34.63 61.88 33.29 61.88 31.27C61.88 29.26 63.06 27.87 64.83 27.87C66.2 27.87 67.65 28.7 67.65 31.14L67.65 31.56L62.89 31.56C62.94 32.97 63.76 33.73 64.94 33.73C65.72 33.73 66.32 33.39 66.57 32.71L67.54 32.98ZM71.86 28.77C70.89 28.77 70.18 29.41 70.18 30.56L70.18 34.5L69.18 34.5L69.18 27.95L70.15 27.95L70.15 28.97L70.24 28.97C70.55 28.31 71.16 27.87 72.15 27.87C73.47 27.87 74.36 28.66 74.36 30.33L74.36 34.5L73.36 34.5L73.36 30.41C73.36 29.38 72.79 28.77 71.86 28.77ZM85.1 28.77C84.14 28.77 83.43 29.41 83.43 30.56L83.43 34.5L82.42 34.5L82.42 27.95L83.4 27.95L83.4 28.97L83.48 28.97C83.79 28.31 84.4 27.87 85.39 27.87C86.72 27.87 87.61 28.66 87.61 30.33L87.61 34.5L86.6 34.5L86.6 30.41C86.6 29.38 86.03 28.77 85.1 28.77ZM80.58 34.5L79.58 34.5L79.58 27.95L80.58 27.95L80.58 34.5ZM90.95 28.94C90.95 29.36 90.6 29.71 90.18 29.71C89.76 29.71 89.41 29.36 89.41 28.94C89.41 28.52 89.76 28.17 90.18 28.17C90.6 28.17 90.95 28.52 90.95 28.94ZM57.85 28.77C56.69 28.77 55.97 29.68 55.91 30.7L59.64 30.7C59.64 29.58 58.94 28.77 57.85 28.77ZM64.83 28.77C63.68 28.77 62.96 29.68 62.89 30.7L66.62 30.7C66.62 29.58 65.92 28.77 64.83 28.77ZM90.95 33.79C90.95 34.22 90.6 34.56 90.18 34.56C89.76 34.56 89.41 34.22 89.41 33.79C89.41 33.37 89.76 33.03 90.18 33.03C90.6 33.03 90.95 33.37 90.95 33.79Z" fill="#212121" fill-opacity="1.000000" fill-rule="evenodd"/>
		</g>
		<g opacity="0.900000">
			<path id="Vector" d="M129.98 25.08C129.98 23.8 130.01 22.6 130.07 21.5L126.68 22.14L126.68 22.45L127.01 22.49C127.25 22.51 127.41 22.6 127.5 22.73C127.59 22.89 127.65 23.11 127.7 23.44C127.74 24.08 127.79 25.55 127.76 27.85C127.76 30.13 127.74 31.57 127.7 32.12C128.92 32.38 129.87 32.5 130.58 32.5C131.92 32.5 132.96 32.12 133.72 31.34C134.47 30.59 134.87 29.53 134.87 28.22C134.87 27.18 134.58 26.32 134 25.63C133.43 24.95 132.69 24.62 131.83 24.62C131.25 24.62 130.65 24.77 129.98 25.08ZM130.05 31.9C130.01 31.19 129.96 29.06 129.96 25.59C130.16 25.52 130.43 25.48 130.76 25.48C131.3 25.48 131.72 25.74 132.03 26.3C132.34 26.85 132.49 27.52 132.49 28.36C132.49 29.4 132.32 30.24 131.96 30.95C131.61 31.63 131.16 31.99 130.61 31.99C130.43 31.94 130.25 31.92 130.05 31.9ZM113.93 21.72L105.04 21.72L105.04 22.16L105.51 22.2C105.86 22.27 106.11 22.4 106.26 22.6C106.42 22.82 106.51 23.18 106.53 23.66C106.71 26.05 106.71 28.29 106.53 30.35C106.49 30.83 106.4 31.19 106.26 31.41C106.11 31.63 105.86 31.76 105.51 31.81L105.04 31.87L105.04 32.32L110.77 32.32L110.77 31.87L110.17 31.83C109.82 31.79 109.57 31.63 109.42 31.43C109.26 31.21 109.17 30.86 109.15 30.37C109.08 29.49 109.04 28.47 109.04 27.34L110.24 27.36C110.88 27.38 111.33 27.87 111.55 28.84L111.99 28.84L111.99 25.24L111.55 25.24C111.33 26.19 110.91 26.67 110.24 26.7L109.04 26.72C109.04 24.73 109.08 23.31 109.15 22.45L110.91 22.45C112.15 22.45 112.99 23.24 113.48 24.84L114.02 24.68L113.93 21.72ZM112.88 28.53C112.88 29.68 113.22 30.64 113.86 31.39C114.5 32.14 115.46 32.5 116.66 32.5C117.86 32.5 118.83 32.12 119.55 31.34C120.26 30.59 120.59 29.64 120.59 28.49C120.59 27.34 120.26 26.39 119.61 25.63C118.97 24.88 118.01 24.53 116.81 24.53C115.61 24.53 114.64 24.9 113.93 25.68C113.22 26.43 112.88 27.38 112.88 28.53ZM117.84 26.01C118.1 26.65 118.21 27.49 118.21 28.51C118.21 30.86 117.72 32.01 116.77 32.01C116.28 32.01 115.9 31.68 115.64 31.01C115.37 30.35 115.26 29.51 115.26 28.51C115.26 26.19 115.75 25.04 116.7 25.04C117.19 25.01 117.57 25.35 117.84 26.01ZM136.6 31.39C137.34 32.12 138.27 32.5 139.38 32.5C140.07 32.5 140.67 32.36 141.2 32.07C141.73 31.81 142.16 31.48 142.45 31.08L142.22 30.81C141.73 31.19 141.18 31.37 140.53 31.37C139.65 31.37 138.96 31.08 138.49 30.48C138 29.88 137.78 29.13 137.83 28.16L142.58 28.16C142.58 27.09 142.31 26.23 141.76 25.55C141.2 24.88 140.42 24.55 139.42 24.55C138.18 24.55 137.23 24.95 136.54 25.72C135.85 26.5 135.52 27.45 135.52 28.58C135.52 29.73 135.87 30.66 136.6 31.39ZM138.25 25.83C138.49 25.3 138.8 25.04 139.22 25.04C139.89 25.04 140.22 25.88 140.22 27.58L137.87 27.63C137.89 26.96 138 26.36 138.25 25.83ZM148.55 24.95C147.95 24.68 147.2 24.53 146.29 24.53C145.35 24.53 144.62 24.77 144.07 25.24C143.51 25.7 143.22 26.28 143.22 26.96C143.22 27.56 143.4 28.02 143.73 28.36C144.07 28.69 144.6 28.98 145.29 29.22C145.91 29.44 146.35 29.66 146.58 29.86C146.8 30.08 146.93 30.33 146.93 30.66C146.93 30.97 146.82 31.26 146.58 31.48C146.35 31.72 146.04 31.83 145.64 31.83C144.67 31.83 143.93 31.12 143.42 29.71L143.04 29.82L143.13 32.03C143.93 32.34 144.82 32.5 145.8 32.5C146.82 32.5 147.6 32.27 148.17 31.81C148.75 31.37 149.04 30.72 149.04 29.93C149.04 29.4 148.91 28.95 148.62 28.62C148.33 28.29 147.86 28 147.2 27.74C146.47 27.47 145.95 27.23 145.69 27.01C145.42 26.79 145.29 26.52 145.29 26.19C145.29 25.86 145.38 25.59 145.58 25.37C145.78 25.15 146.02 25.06 146.33 25.06C147.22 25.06 147.86 25.7 148.26 26.96L148.64 26.85L148.55 24.95ZM127.19 24.75C126.88 24.59 126.54 24.53 126.16 24.53C125.79 24.53 125.41 24.68 124.99 24.99C124.57 25.3 124.25 25.72 124.01 26.3L124.03 24.53L120.66 25.19L120.66 25.5L120.99 25.52C121.41 25.57 121.66 25.9 121.7 26.5C121.83 27.87 121.83 29.33 121.7 30.88C121.66 31.48 121.41 31.79 120.99 31.85L120.66 31.9L120.66 32.32L125.37 32.32L125.37 31.9L124.77 31.85C124.34 31.81 124.1 31.48 124.05 30.88C123.92 29.6 123.9 28.22 124.01 26.81C124.14 26.59 124.43 26.45 124.88 26.41C125.32 26.36 125.83 26.5 126.36 26.81L127.19 24.75Z" fill="#181D1F" fill-opacity="1.000000" fill-rule="nonzero"/>
		</g>
		<g opacity="0.900000">
			<path id="Vector" d="M166.68 33.79L166.68 27.11L171.62 27.11L171.62 28.24L168.03 28.24L168.03 29.72L171.37 29.72L171.37 30.85L168.03 30.85L168.03 32.66L171.75 32.66L171.75 33.79L166.68 33.79Z" fill="#181D1F" fill-opacity="1.000000" fill-rule="nonzero"/>
			<path id="Vector (Stroke)" d="M166.59 27.02L171.71 27.02L171.71 28.33L168.11 28.33L168.11 29.63L171.46 29.63L171.46 30.93L168.11 30.93L168.11 32.57L171.84 32.57L171.84 33.87L166.59 33.88L166.59 27.02ZM166.77 27.2L166.77 33.7L171.66 33.7L171.66 32.75L167.94 32.75L167.94 30.76L171.29 30.76L171.29 29.81L167.94 29.81L167.94 28.15L171.54 28.15L171.54 27.2L166.77 27.2Z" fill="#181D1F" fill-opacity="1.000000" fill-rule="evenodd"/>
			<path id="Vector" d="M177.16 31.33L178.46 31.75C178.26 32.48 177.93 33.02 177.46 33.37C177 33.73 176.41 33.9 175.69 33.9C174.81 33.9 174.08 33.6 173.51 33C172.94 32.39 172.66 31.56 172.66 30.51C172.66 29.4 172.94 28.54 173.52 27.92C174.09 27.31 174.84 27 175.78 27C176.59 27 177.25 27.24 177.76 27.72C178.07 28.01 178.29 28.42 178.45 28.95L177.11 29.27C177.03 28.92 176.87 28.65 176.62 28.45C176.37 28.25 176.07 28.15 175.71 28.15C175.21 28.15 174.81 28.33 174.5 28.68C174.2 29.04 174.04 29.61 174.04 30.41C174.04 31.25 174.19 31.85 174.5 32.21C174.8 32.57 175.2 32.75 175.68 32.75C176.04 32.75 176.35 32.64 176.6 32.41C176.86 32.18 177.05 31.82 177.16 31.33Z" fill="#181D1F" fill-opacity="1.000000" fill-rule="nonzero"/>
			<path id="Vector (Stroke)" d="M175.78 27.08C174.86 27.08 174.13 27.39 173.58 27.98C173.03 28.57 172.74 29.41 172.74 30.51C172.74 31.54 173.02 32.35 173.58 32.93C174.13 33.52 174.83 33.81 175.69 33.81C176.4 33.81 176.97 33.64 177.41 33.3C177.84 32.98 178.16 32.48 178.36 31.81L177.22 31.45C177.11 31.9 176.92 32.25 176.66 32.47C176.39 32.72 176.06 32.84 175.68 32.84C175.17 32.84 174.75 32.65 174.43 32.27C174.11 31.89 173.96 31.26 173.96 30.41C173.96 29.61 174.11 29 174.44 28.62C174.76 28.25 175.19 28.06 175.71 28.06C176.08 28.06 176.41 28.17 176.67 28.38C176.92 28.58 177.09 28.84 177.18 29.16L178.34 28.89C178.19 28.41 177.98 28.04 177.7 27.79C177.21 27.32 176.57 27.08 175.78 27.08ZM173.45 27.86C174.04 27.23 174.82 26.91 175.78 26.91C176.61 26.91 177.3 27.16 177.82 27.66C178.14 27.96 178.38 28.38 178.53 28.93L178.56 29.02L177.05 29.38L177.03 29.29C176.95 28.96 176.8 28.71 176.56 28.52L176.56 28.52C176.33 28.33 176.05 28.24 175.71 28.24C175.24 28.24 174.86 28.41 174.57 28.74C174.28 29.07 174.13 29.62 174.13 30.41C174.13 31.25 174.28 31.82 174.57 32.16C174.85 32.49 175.22 32.66 175.68 32.66C176.02 32.66 176.31 32.55 176.55 32.34C176.79 32.13 176.96 31.79 177.07 31.31L177.09 31.22L178.57 31.69L178.55 31.77C178.35 32.51 178 33.07 177.52 33.44C177.03 33.81 176.42 33.99 175.69 33.99C174.79 33.99 174.04 33.68 173.45 33.06C172.86 32.43 172.57 31.58 172.57 30.51C172.57 29.38 172.86 28.5 173.45 27.86Z" fill="#181D1F" fill-opacity="1.000000" fill-rule="evenodd"/>
			<path id="Vector" d="M179.35 30.49C179.35 29.81 179.45 29.24 179.65 28.78C179.8 28.44 180.01 28.13 180.27 27.86C180.53 27.59 180.82 27.39 181.13 27.26C181.55 27.08 182.03 27 182.57 27C183.55 27 184.34 27.3 184.93 27.91C185.52 28.52 185.81 29.37 185.81 30.46C185.81 31.54 185.52 32.38 184.94 32.99C184.35 33.6 183.57 33.9 182.59 33.9C181.6 33.9 180.81 33.6 180.22 33C179.64 32.39 179.35 31.55 179.35 30.49ZM180.73 30.44C180.73 31.2 180.91 31.77 181.26 32.17C181.61 32.55 182.05 32.75 182.58 32.75C183.12 32.75 183.56 32.56 183.9 32.17C184.25 31.78 184.42 31.2 184.42 30.43C184.42 29.66 184.25 29.09 183.92 28.71C183.58 28.34 183.14 28.15 182.58 28.15C182.03 28.15 181.58 28.34 181.24 28.72C180.9 29.1 180.73 29.68 180.73 30.44Z" fill="#181D1F" fill-opacity="1.000000" fill-rule="nonzero"/>
			<path id="Vector (Stroke)" d="M182.57 27.08C182.04 27.08 181.57 27.17 181.17 27.34L181.17 27.34L181.17 27.34C180.87 27.47 180.59 27.66 180.33 27.92C180.08 28.19 179.88 28.48 179.73 28.81C179.54 29.26 179.43 29.82 179.43 30.49C179.43 31.54 179.72 32.35 180.29 32.93C180.85 33.52 181.62 33.81 182.59 33.81C183.55 33.81 184.31 33.52 184.87 32.93C185.44 32.34 185.73 31.52 185.73 30.46C185.73 29.39 185.44 28.56 184.86 27.97L184.86 27.97C184.3 27.38 183.53 27.08 182.57 27.08ZM181.1 27.18C181.53 27 182.02 26.91 182.57 26.91C183.57 26.91 184.38 27.22 184.99 27.85C185.6 28.48 185.9 29.36 185.9 30.46C185.9 31.55 185.6 32.42 185 33.05L185 33.05C184.4 33.68 183.59 33.99 182.59 33.99C181.58 33.99 180.77 33.68 180.16 33.06L180.16 33.06C179.56 32.43 179.26 31.57 179.26 30.49C179.26 29.8 179.36 29.22 179.57 28.74L179.57 28.74L179.57 28.74C179.73 28.39 179.94 28.08 180.21 27.8L180.21 27.8L180.21 27.8C180.48 27.52 180.78 27.32 181.1 27.18ZM181.18 28.66C181.54 28.26 182.01 28.06 182.59 28.06C183.16 28.06 183.63 28.26 183.98 28.66C184.34 29.05 184.51 29.65 184.51 30.43C184.51 31.21 184.34 31.82 183.97 32.23C183.61 32.63 183.15 32.84 182.59 32.84C182.02 32.84 181.56 32.63 181.19 32.23L181.19 32.23C180.82 31.81 180.65 31.21 180.65 30.45C180.65 29.67 180.82 29.07 181.18 28.66ZM182.59 28.24C182.05 28.24 181.63 28.42 181.31 28.78L181.31 28.78C180.99 29.14 180.82 29.69 180.82 30.45C180.82 31.19 180.99 31.74 181.32 32.11C181.65 32.48 182.07 32.66 182.59 32.66C183.1 32.66 183.51 32.48 183.84 32.11L183.84 32.11C184.16 31.75 184.33 31.19 184.33 30.43C184.33 29.67 184.17 29.13 183.85 28.77L183.85 28.77C183.54 28.42 183.12 28.24 182.59 28.24Z" fill="#181D1F" fill-opacity="1.000000" fill-rule="evenodd"/>
			<path id="Vector" d="M186.88 33.79L186.88 27.11L188.19 27.11L190.92 31.57L190.92 27.11L192.17 27.11L192.17 33.79L190.82 33.79L188.13 29.43L188.13 33.79L186.88 33.79Z" fill="#181D1F" fill-opacity="1.000000" fill-rule="nonzero"/>
			<path id="Vector (Stroke)" d="M186.79 27.02L188.24 27.02L190.83 31.26L190.83 27.02L192.26 27.02L192.26 33.88L190.77 33.88L188.22 29.74L188.22 33.88L186.79 33.88L186.79 27.02ZM186.97 27.2L186.97 33.7L188.04 33.7L188.04 29.12L190.87 33.7L192.08 33.7L192.08 27.2L191.01 27.2L191.01 31.88L188.14 27.2L186.97 27.2Z" fill="#181D1F" fill-opacity="1.000000" fill-rule="evenodd"/>
			<path id="Vector" d="M193.32 30.49C193.32 29.81 193.42 29.24 193.62 28.78C193.78 28.44 193.98 28.13 194.24 27.86C194.51 27.59 194.79 27.39 195.11 27.26C195.52 27.08 196 27 196.54 27C197.53 27 198.31 27.3 198.9 27.91C199.49 28.52 199.79 29.37 199.79 30.46C199.79 31.54 199.49 32.38 198.91 32.99C198.32 33.6 197.54 33.9 196.56 33.9C195.57 33.9 194.78 33.6 194.2 33C193.61 32.39 193.32 31.55 193.32 30.49ZM194.71 30.44C194.71 31.2 194.88 31.77 195.23 32.17C195.58 32.55 196.02 32.75 196.56 32.75C197.09 32.75 197.53 32.56 197.88 32.17C198.22 31.78 198.4 31.2 198.4 30.43C198.4 29.66 198.23 29.09 197.89 28.71C197.56 28.34 197.11 28.15 196.56 28.15C196 28.15 195.56 28.34 195.22 28.72C194.88 29.1 194.71 29.68 194.71 30.44Z" fill="#181D1F" fill-opacity="1.000000" fill-rule="nonzero"/>
			<path id="Vector (Stroke)" d="M196.54 27.08C196.01 27.08 195.54 27.17 195.14 27.34L195.14 27.34L195.14 27.34C194.84 27.47 194.56 27.66 194.31 27.92C194.05 28.19 193.85 28.48 193.7 28.81C193.51 29.26 193.41 29.82 193.41 30.49C193.41 31.54 193.69 32.35 194.26 32.93C194.83 33.52 195.59 33.81 196.56 33.81C197.52 33.81 198.28 33.52 198.85 32.93C199.41 32.34 199.7 31.52 199.7 30.46C199.7 29.39 199.41 28.56 198.84 27.97L198.84 27.97C198.27 27.38 197.51 27.08 196.54 27.08ZM195.07 27.18C195.5 27 195.99 26.91 196.54 26.91C197.55 26.91 198.36 27.22 198.96 27.85C199.57 28.48 199.88 29.36 199.88 30.46C199.88 31.55 199.58 32.42 198.97 33.05L198.97 33.05C198.37 33.68 197.56 33.99 196.56 33.99C195.55 33.99 194.74 33.68 194.13 33.06L194.13 33.06C193.53 32.43 193.23 31.57 193.23 30.49C193.23 29.8 193.33 29.22 193.54 28.74L193.54 28.74L193.54 28.74C193.7 28.39 193.91 28.08 194.18 27.8L194.18 27.8L194.18 27.8C194.45 27.52 194.75 27.32 195.07 27.18ZM195.15 28.66C195.51 28.26 195.98 28.06 196.56 28.06C197.14 28.06 197.6 28.26 197.96 28.66C198.31 29.05 198.48 29.65 198.48 30.43C198.48 31.21 198.31 31.82 197.94 32.23L195.15 28.66ZM195.15 28.66C194.79 29.07 194.62 29.67 194.62 30.45C194.62 31.21 194.8 31.81 195.16 32.23L195.16 32.23C195.53 32.63 196 32.84 196.56 32.84C197.12 32.84 197.58 32.63 197.94 32.23L195.15 28.66ZM196.56 28.24C196.03 28.24 195.6 28.42 195.28 28.78L195.28 28.78C194.96 29.14 194.79 29.69 194.79 30.45C194.79 31.19 194.97 31.74 195.3 32.11C195.63 32.48 196.05 32.66 196.56 32.66C197.07 32.66 197.49 32.48 197.81 32.11L197.81 32.11C198.14 31.75 198.31 31.19 198.31 30.43C198.31 29.67 198.14 29.13 197.83 28.77L197.82 28.77C197.51 28.42 197.09 28.24 196.56 28.24Z" fill="#181D1F" fill-opacity="1.000000" fill-rule="evenodd"/>
			<path id="Vector" d="M200.82 33.79L200.82 27.11L202.83 27.11L204.04 31.67L205.24 27.11L207.26 27.11L207.26 33.79L206.01 33.79L206.01 28.53L204.69 33.79L203.39 33.79L202.07 28.53L202.07 33.79L200.82 33.79Z" fill="#181D1F" fill-opacity="1.000000" fill-rule="nonzero"/>
			<path id="Vector (Stroke)" d="M200.73 27.02L202.9 27.02L204.04 31.32L205.17 27.02L207.35 27.02L207.35 33.88L205.92 33.88L205.92 29.24L204.75 33.88L203.32 33.88L202.16 29.24L202.16 33.88L200.73 33.88L200.73 27.02ZM200.91 27.2L200.91 33.7L201.98 33.7L201.98 28.53L202.16 28.51L203.46 33.7L204.62 33.7L205.92 28.51L206.1 28.53L206.1 33.7L207.17 33.7L207.17 27.2L205.31 27.2L204.05 32.01L202.77 27.2L200.91 27.2Z" fill="#181D1F" fill-opacity="1.000000" fill-rule="evenodd"/>
			<path id="Vector" d="M208.56 33.79L208.56 27.11L209.9 27.11L209.9 33.79L208.56 33.79Z" fill="#181D1F" fill-opacity="1.000000" fill-rule="nonzero"/>
			<path id="Vector (Stroke)" d="M208.47 27.02L209.99 27.02L209.99 33.88L208.47 33.88L208.47 27.02ZM208.64 27.2L208.64 33.7L209.81 33.7L209.81 27.2L208.64 27.2Z" fill="#181D1F" fill-opacity="1.000000" fill-rule="evenodd"/>
			<path id="Vector" d="M215.45 31.33L216.76 31.75C216.56 32.48 216.22 33.02 215.76 33.37C215.29 33.73 214.7 33.9 213.99 33.9C213.1 33.9 212.37 33.6 211.8 33C211.23 32.39 210.95 31.56 210.95 30.51C210.95 29.4 211.24 28.54 211.81 27.92C212.38 27.31 213.14 27 214.07 27C214.89 27 215.55 27.24 216.06 27.72C216.36 28.01 216.59 28.42 216.74 28.95L215.41 29.27C215.33 28.92 215.16 28.65 214.91 28.45C214.66 28.25 214.36 28.15 214 28.15C213.51 28.15 213.1 28.33 212.8 28.68C212.49 29.04 212.34 29.61 212.34 30.41C212.34 31.25 212.49 31.85 212.79 32.21C213.09 32.57 213.49 32.75 213.97 32.75C214.33 32.75 214.64 32.64 214.9 32.41C215.15 32.18 215.34 31.82 215.45 31.33Z" fill="#181D1F" fill-opacity="1.000000" fill-rule="nonzero"/>
			<path id="Vector (Stroke)" d="M214.07 27.08C213.16 27.08 212.43 27.39 211.87 27.98C211.32 28.57 211.04 29.41 211.04 30.51C211.04 31.54 211.32 32.35 211.87 32.93C212.42 33.52 213.12 33.81 213.99 33.81C214.69 33.81 215.26 33.64 215.7 33.3C216.13 32.98 216.45 32.48 216.65 31.81L215.52 31.45C215.4 31.9 215.21 32.25 214.96 32.47C214.68 32.72 214.35 32.84 213.97 32.84C213.46 32.84 213.04 32.65 212.72 32.27C212.4 31.89 212.25 31.26 212.25 30.41C212.25 29.61 212.4 29 212.73 28.62C213.06 28.25 213.48 28.06 214 28.06C214.38 28.06 214.7 28.17 214.97 28.38C215.21 28.58 215.38 28.84 215.47 29.16L216.63 28.89C216.48 28.41 216.27 28.04 216 27.79C215.51 27.32 214.87 27.08 214.07 27.08ZM211.74 27.86C212.34 27.23 213.11 26.91 214.07 26.91C214.9 26.91 215.59 27.16 216.12 27.66C216.44 27.96 216.67 28.38 216.82 28.93L216.85 29.02L215.34 29.38L215.32 29.29C215.25 28.96 215.09 28.71 214.86 28.52L214.86 28.52C214.62 28.33 214.34 28.24 214 28.24C213.53 28.24 213.15 28.41 212.86 28.74C212.58 29.07 212.42 29.62 212.42 30.41C212.42 31.25 212.58 31.82 212.86 32.16C213.14 32.49 213.51 32.66 213.97 32.66C214.31 32.66 214.6 32.55 214.84 32.34C215.08 32.13 215.26 31.79 215.37 31.31L215.39 31.22L216.86 31.69L216.84 31.77C216.64 32.51 216.3 33.07 215.81 33.44C215.33 33.81 214.72 33.99 213.99 33.99C213.08 33.99 212.33 33.68 211.74 33.06C211.15 32.43 210.86 31.58 210.86 30.51C210.86 29.38 211.15 28.5 211.74 27.86Z" fill="#181D1F" fill-opacity="1.000000" fill-rule="evenodd"/>
			<path id="Vector" d="M217.57 31.62L218.88 31.49C218.96 31.93 219.12 32.25 219.36 32.46C219.6 32.66 219.93 32.77 220.34 32.77C220.77 32.77 221.1 32.68 221.31 32.49C221.54 32.31 221.65 32.09 221.65 31.85C221.65 31.69 221.6 31.56 221.51 31.45C221.41 31.33 221.25 31.24 221.02 31.16C220.87 31.1 220.51 31 219.95 30.86C219.22 30.68 218.72 30.46 218.43 30.2C218.02 29.84 217.81 29.39 217.81 28.86C217.81 28.52 217.91 28.2 218.1 27.91C218.29 27.61 218.57 27.38 218.93 27.23C219.3 27.07 219.73 27 220.25 27C221.08 27 221.71 27.18 222.13 27.55C222.56 27.92 222.78 28.41 222.8 29.02L221.46 29.08C221.4 28.74 221.27 28.49 221.08 28.34C220.89 28.19 220.61 28.11 220.23 28.11C219.84 28.11 219.54 28.19 219.31 28.35C219.17 28.46 219.1 28.6 219.1 28.77C219.1 28.93 219.17 29.06 219.3 29.17C219.47 29.32 219.88 29.47 220.54 29.62C221.19 29.78 221.68 29.94 221.99 30.1C222.3 30.27 222.55 30.49 222.72 30.78C222.9 31.07 222.99 31.42 222.99 31.84C222.99 32.23 222.89 32.58 222.68 32.92C222.46 33.25 222.16 33.5 221.77 33.66C221.39 33.83 220.9 33.91 220.32 33.91C219.48 33.91 218.83 33.71 218.38 33.32C217.93 32.93 217.66 32.36 217.57 31.62Z" fill="#181D1F" fill-opacity="1.000000" fill-rule="nonzero"/>
			<path id="Vector (Stroke)" d="M220.25 27.08C219.74 27.08 219.32 27.16 218.97 27.31C218.62 27.46 218.36 27.67 218.17 27.96C217.99 28.24 217.9 28.54 217.9 28.86C217.9 29.36 218.09 29.79 218.49 30.14C218.76 30.38 219.25 30.6 219.97 30.78C220.53 30.92 220.89 31.02 221.05 31.07L221.05 31.07C221.29 31.16 221.47 31.26 221.57 31.39C221.68 31.52 221.73 31.67 221.73 31.85C221.73 32.12 221.61 32.36 221.37 32.56C221.13 32.76 220.78 32.86 220.34 32.86C219.91 32.86 219.56 32.75 219.3 32.53L219.3 32.52C219.06 32.31 218.9 32 218.81 31.58L217.67 31.69C217.77 32.38 218.03 32.9 218.44 33.26C218.87 33.63 219.49 33.82 220.32 33.82C220.89 33.82 221.37 33.74 221.74 33.58C222.11 33.43 222.4 33.19 222.6 32.87C222.8 32.55 222.91 32.21 222.91 31.84C222.91 31.43 222.82 31.1 222.65 30.83L222.65 30.83C222.48 30.55 222.25 30.34 221.95 30.18L221.95 30.18C221.64 30.02 221.17 29.86 220.52 29.71C220.19 29.63 219.92 29.55 219.71 29.48C219.5 29.4 219.34 29.32 219.24 29.24C219.09 29.11 219.01 28.96 219.01 28.77C219.01 28.57 219.1 28.4 219.26 28.28L220.25 27.08ZM222.71 28.94C222.67 28.38 222.46 27.95 222.08 27.62C221.68 27.27 221.07 27.08 220.25 27.08L222.71 28.94ZM218.9 27.15C219.27 26.99 219.72 26.91 220.25 26.91C221.09 26.91 221.75 27.09 222.19 27.48C222.64 27.87 222.87 28.38 222.89 29.02L222.89 29.1L221.38 29.17L221.37 29.09C221.31 28.76 221.2 28.54 221.03 28.41L221.03 28.41C220.86 28.28 220.6 28.2 220.23 28.2C219.85 28.2 219.57 28.28 219.37 28.43C219.25 28.51 219.19 28.62 219.19 28.77C219.19 28.9 219.24 29.01 219.36 29.11C219.43 29.17 219.56 29.24 219.77 29.31C219.97 29.38 220.23 29.46 220.56 29.54C221.21 29.69 221.71 29.85 222.03 30.03C222.36 30.2 222.62 30.43 222.8 30.74C222.99 31.04 223.08 31.41 223.08 31.84C223.08 32.24 222.97 32.62 222.75 32.97C222.53 33.32 222.21 33.58 221.81 33.75L221.81 33.75C221.41 33.91 220.91 33.99 220.32 33.99C219.47 33.99 218.8 33.8 218.32 33.39C217.85 32.98 217.57 32.39 217.48 31.63L217.47 31.54L218.95 31.39L218.97 31.47C219.04 31.9 219.2 32.2 219.42 32.39C219.64 32.58 219.94 32.68 220.34 32.68C220.76 32.68 221.06 32.59 221.26 32.43C221.46 32.25 221.56 32.06 221.56 31.85C221.56 31.71 221.52 31.6 221.44 31.5L221.44 31.5C221.36 31.41 221.22 31.32 220.99 31.24C220.84 31.19 220.49 31.09 219.92 30.95C219.2 30.77 218.68 30.54 218.37 30.27C217.94 29.89 217.72 29.41 217.72 28.86C217.72 28.5 217.83 28.17 218.03 27.86C218.23 27.55 218.52 27.31 218.9 27.15Z" fill="#181D1F" fill-opacity="1.000000" fill-rule="evenodd"/>
			<path id="Vector" d="M166.91 26.19L166.91 21.2L165.13 21.2L165.13 20.19L169.9 20.19L169.9 21.2L168.12 21.2L168.12 26.19L166.91 26.19Z" fill="#181D1F" fill-opacity="1.000000" fill-rule="nonzero"/>
			<path id="Vector (Stroke)" d="M165.04 20.1L169.99 20.1L169.99 21.29L168.21 21.29L168.21 26.28L166.82 26.28L166.82 21.29L165.04 21.29L165.04 20.1ZM165.22 20.27L165.22 21.11L167 21.11L167 26.11L168.03 26.11L168.03 21.11L169.81 21.11L169.81 20.27L165.22 20.27Z" fill="#181D1F" fill-opacity="1.000000" fill-rule="evenodd"/>
			<path id="Vector" d="M170.68 26.19L170.68 20.19L173.24 20.19C173.88 20.19 174.34 20.24 174.63 20.35C174.92 20.46 175.16 20.65 175.33 20.92C175.51 21.2 175.59 21.51 175.59 21.87C175.59 22.32 175.46 22.69 175.2 22.99C174.93 23.28 174.54 23.47 174.01 23.54C174.27 23.7 174.49 23.86 174.66 24.05C174.83 24.23 175.06 24.55 175.35 25.02L176.08 26.19L174.63 26.19L173.75 24.89C173.44 24.42 173.23 24.13 173.12 24.01C173 23.88 172.88 23.8 172.75 23.76C172.62 23.71 172.42 23.69 172.14 23.69L171.9 23.69L171.9 26.19L170.68 26.19ZM171.9 22.73L172.79 22.73C173.37 22.73 173.74 22.7 173.88 22.65C174.03 22.6 174.14 22.52 174.22 22.4C174.3 22.28 174.34 22.13 174.34 21.95C174.34 21.75 174.29 21.58 174.18 21.46C174.07 21.33 173.92 21.26 173.73 21.22C173.63 21.21 173.33 21.2 172.84 21.2L171.9 21.2L171.9 22.73Z" fill="#181D1F" fill-opacity="1.000000" fill-rule="nonzero"/>
			<path id="Vector" d="M182.15 26.19L180.83 26.19L180.3 24.83L177.91 24.83L177.41 26.19L176.12 26.19L178.46 20.19L179.74 20.19L182.15 26.19ZM179.92 23.82L179.09 21.59L178.28 23.82L179.92 23.82Z" fill="#181D1F" fill-opacity="1.000000" fill-rule="nonzero"/>
			<path id="Vector (Stroke)" d="M178.4 20.1L179.8 20.1L182.28 26.28L180.77 26.28L180.24 24.92L177.97 24.92L177.47 26.28L176 26.28L178.4 20.1ZM178.52 20.27L176.25 26.11L177.35 26.11L177.84 24.74L180.37 24.74L180.89 26.11L182.02 26.11L179.68 20.27L178.52 20.27ZM179.09 21.33L180.04 23.91L178.15 23.91L179.09 21.33ZM179.09 21.84L178.4 23.73L179.79 23.73L179.09 21.84Z" fill="#181D1F" fill-opacity="1.000000" fill-rule="evenodd"/>
			<path id="Vector" d="M182.79 20.19L185 20.19C185.5 20.19 185.88 20.22 186.14 20.3C186.49 20.4 186.8 20.59 187.05 20.85C187.3 21.12 187.49 21.44 187.62 21.83C187.75 22.21 187.82 22.68 187.82 23.25C187.82 23.74 187.76 24.17 187.63 24.53C187.48 24.96 187.27 25.32 186.99 25.59C186.78 25.79 186.5 25.95 186.14 26.07C185.87 26.15 185.51 26.19 185.07 26.19L182.79 26.19L182.79 20.19ZM184 21.2L184 25.18L184.9 25.18C185.24 25.18 185.48 25.16 185.63 25.12C185.83 25.08 185.99 24.99 186.12 24.87C186.25 24.76 186.36 24.56 186.44 24.3C186.52 24.03 186.56 23.66 186.56 23.19C186.56 22.73 186.52 22.37 186.44 22.12C186.36 21.88 186.24 21.68 186.1 21.54C185.95 21.4 185.76 21.31 185.54 21.26C185.37 21.22 185.04 21.2 184.54 21.2L184 21.2Z" fill="#181D1F" fill-opacity="1.000000" fill-rule="nonzero"/>
			<path id="Vector (Stroke)" d="M182.7 20.1L185 20.1C185.5 20.1 185.89 20.14 186.17 20.22C186.53 20.32 186.85 20.52 187.11 20.79C187.37 21.07 187.57 21.41 187.7 21.8C187.84 22.2 187.9 22.68 187.9 23.25C187.9 23.75 187.84 24.19 187.72 24.56C187.56 25 187.34 25.37 187.05 25.65C186.83 25.87 186.53 26.03 186.17 26.15C185.89 26.24 185.52 26.28 185.07 26.28L182.7 26.28L182.7 20.1ZM182.87 20.27L182.87 26.11L185.07 26.11C185.51 26.11 185.86 26.06 186.11 25.98C186.46 25.87 186.73 25.72 186.93 25.53C187.2 25.27 187.4 24.92 187.55 24.5C187.67 24.15 187.73 23.74 187.73 23.25C187.73 22.69 187.66 22.23 187.54 21.86C187.41 21.48 187.22 21.17 186.98 20.91C186.74 20.66 186.45 20.48 186.12 20.38C185.87 20.31 185.5 20.27 185 20.27L182.87 20.27ZM184.54 21.11C185.03 21.11 185.38 21.13 185.56 21.17C185.8 21.23 186 21.33 186.16 21.48C186.32 21.63 186.44 21.84 186.52 22.1C186.61 22.36 186.65 22.73 186.65 23.19C186.65 23.66 186.61 24.04 186.53 24.32C186.44 24.6 186.33 24.81 186.18 24.94C186.04 25.07 185.86 25.16 185.66 25.21C185.49 25.25 185.24 25.27 184.9 25.27L183.91 25.27L183.91 21.11L184.54 21.11ZM184.09 21.29L184.54 21.29C185.04 21.29 185.36 21.31 185.52 21.35L185.52 21.35C185.73 21.39 185.9 21.48 186.04 21.61C186.17 21.73 186.28 21.91 186.36 22.15C186.43 22.39 186.48 22.73 186.48 23.19C186.48 23.66 186.44 24.01 186.36 24.27C186.28 24.53 186.18 24.71 186.06 24.81L186.06 24.81C185.95 24.92 185.8 24.99 185.61 25.04C185.47 25.08 185.24 25.09 184.9 25.09L184.09 25.09L184.09 21.29Z" fill="#181D1F" fill-opacity="1.000000" fill-rule="evenodd"/>
			<path id="Vector" d="M188.81 26.19L188.81 20.19L190.02 20.19L190.02 26.19L188.81 26.19Z" fill="#181D1F" fill-opacity="1.000000" fill-rule="nonzero"/>
			<path id="Vector (Stroke)" d="M188.72 20.1L190.11 20.1L190.11 26.28L188.72 26.28L188.72 20.1ZM188.9 20.27L188.9 26.11L189.93 26.11L189.93 20.27L188.9 20.27Z" fill="#181D1F" fill-opacity="1.000000" fill-rule="evenodd"/>
			<path id="Vector" d="M191.19 26.19L191.19 20.19L192.36 20.19L194.82 24.2L194.82 20.19L195.95 20.19L195.95 26.19L194.73 26.19L192.31 22.28L192.31 26.19L191.19 26.19Z" fill="#181D1F" fill-opacity="1.000000" fill-rule="nonzero"/>
			<path id="Vector (Stroke)" d="M191.1 20.1L192.41 20.1L194.73 23.89L194.73 20.1L196.04 20.1L196.04 26.28L194.68 26.28L192.4 22.59L192.4 26.28L191.1 26.28L191.1 20.1ZM191.27 20.27L191.27 26.11L192.22 26.11L192.22 21.97L194.78 26.11L195.86 26.11L195.86 20.27L194.91 20.27L194.91 24.51L192.32 20.27L191.27 20.27Z" fill="#181D1F" fill-opacity="1.000000" fill-rule="evenodd"/>
			<path id="Vector" d="M200.02 23.99L200.02 22.97L202.63 22.97L202.63 25.37C202.38 25.61 202.01 25.83 201.53 26.02C201.05 26.2 200.56 26.3 200.06 26.3C199.44 26.3 198.89 26.17 198.42 25.9C197.96 25.64 197.61 25.26 197.37 24.77C197.14 24.28 197.02 23.75 197.02 23.17C197.02 22.54 197.15 21.99 197.41 21.5C197.67 21.01 198.06 20.64 198.56 20.38C198.95 20.18 199.43 20.08 200 20.08C200.74 20.08 201.33 20.24 201.74 20.55C202.16 20.87 202.43 21.3 202.55 21.85L201.35 22.08C201.27 21.78 201.11 21.55 200.87 21.38C200.64 21.21 200.35 21.12 200 21.12C199.47 21.12 199.05 21.29 198.73 21.62C198.42 21.96 198.27 22.46 198.27 23.12C198.27 23.83 198.43 24.37 198.74 24.73C199.06 25.08 199.47 25.26 199.99 25.26C200.24 25.26 200.49 25.21 200.75 25.11C201 25.01 201.22 24.89 201.41 24.75L201.41 23.99L200.02 23.99Z" fill="#181D1F" fill-opacity="1.000000" fill-rule="nonzero"/>
			<path id="Vector (Stroke)" d="M198.52 20.3C198.92 20.1 199.42 20 200 20C200.75 20 201.36 20.15 201.8 20.48C202.23 20.81 202.52 21.26 202.64 21.83L202.66 21.92L201.29 22.18L201.27 22.1C201.19 21.82 201.04 21.61 200.82 21.45L200.82 21.45C200.6 21.29 200.33 21.21 200 21.21C199.49 21.21 199.09 21.37 198.8 21.68C198.51 22 198.36 22.47 198.36 23.12C198.36 23.82 198.51 24.33 198.81 24.67C199.11 25 199.5 25.17 199.99 25.17C200.23 25.17 200.47 25.12 200.72 25.03C200.95 24.94 201.15 24.83 201.32 24.7L201.32 24.07L199.93 24.07L199.93 22.88L202.72 22.88L202.72 25.4L202.69 25.43C202.43 25.69 202.05 25.91 201.56 26.1C201.07 26.29 200.57 26.39 200.06 26.39C199.42 26.39 198.86 26.25 198.38 25.98C197.9 25.71 197.53 25.32 197.29 24.81C197.05 24.31 196.93 23.76 196.93 23.17C196.93 22.53 197.06 21.96 197.33 21.46L198.52 20.3Z" fill="#181D1F" fill-opacity="1.000000" fill-rule="nonzero"/>
		</g>
		<g opacity="0.900000">
			<path id="Subtract" d="M247.345 19C242.793 19 239.086 22.5859 239.086 26.9873C239.086 31.4141 242.793 35 247.345 35C251.922 35 255.63 31.4141 255.63 26.9873C255.63 22.5859 251.922 19 247.345 19ZM248.496 21.4482C248.496 21.1025 248.777 20.8301 249.109 20.8301L249.672 20.8301L249.672 20.459L246.015 20.459L246.015 20.8301L246.552 20.8301C246.91 20.8301 247.191 21.1025 247.191 21.4482L248.496 21.4482ZM243.1 31.958L242.486 31.958L242.486 32.3545L249.109 32.3545C250.234 32.3545 252.459 31.4395 252.459 29.4355C252.459 27.7295 250.388 26.3945 249.927 26.2461C251.027 25.8008 251.666 25.0586 251.666 23.8467C251.666 22.6357 250.899 21.7207 249.39 21.7207L242.486 21.7207L242.486 22.0918L243.1 22.0918C243.586 22.0918 243.995 22.4873 243.995 22.957L243.995 31.0928C243.995 31.5879 243.586 31.958 243.1 31.958ZM246.296 26.9141C246.884 26.9141 247.907 26.8398 248.93 26.5674C249.416 26.7402 251.027 28.1504 251.027 29.4355C251.027 30.7471 249.825 31.8096 248.777 31.8096L246.476 31.8096C246.092 31.8096 245.759 31.4883 245.759 31.0928L245.759 22.0918L248.649 22.0918C249.544 22.0918 250.413 22.957 250.413 23.8467C250.413 25.6523 248.316 26.4434 246.296 26.4434L246.296 26.9141ZM247.191 22.4619L247.191 26.0234C247.524 25.999 248.086 25.9248 248.496 25.7764L248.496 22.4619L247.191 22.4619ZM247.191 27.21L247.191 31.5381L248.496 31.5381L248.496 27.0615C248.035 27.1357 247.626 27.1855 247.191 27.21ZM247.191 32.5762L247.191 32.7002C247.191 32.9971 246.987 33.2441 246.706 33.3184L246.015 33.3184L246.015 33.6895L249.672 33.6895L249.672 33.3184L248.981 33.3184C248.7 33.2441 248.496 32.9971 248.496 32.7002L248.496 32.5762L247.191 32.5762Z" clip-rule="evenodd" fill="#181D1F" fill-opacity="1.000000" fill-rule="evenodd"/>
			<path id="path2826" d="M329.62 25.77L330.39 27.45L328.81 27.45L329.62 25.77ZM329.7 23.79L329.65 23.79L327.12 28.66C326.94 29.01 326.79 29.28 326.68 29.46C326.56 29.65 326.48 29.8 326.4 29.9C326.3 30.02 326.25 30.1 326.17 30.17L327.76 30.17C327.76 29.92 327.81 29.68 327.89 29.43C327.96 29.21 328.04 29.01 328.09 28.89L328.42 28.22L330.75 28.22L331.13 29.06C331.24 29.31 331.31 29.53 331.34 29.7C331.39 29.88 331.39 30.05 331.39 30.17L332.95 30.17C332.82 30.02 332.69 29.8 332.51 29.55C332.36 29.31 332.16 28.94 331.93 28.44L329.7 23.79ZM324.13 23.84C324.2 24.01 324.28 24.24 324.33 24.46C324.36 24.71 324.38 24.98 324.38 25.35L324.38 28.37C324.38 28.71 324.38 28.99 324.36 29.21C324.33 29.43 324.31 29.63 324.26 29.78C324.23 29.92 324.18 30.05 324.13 30.17L325.61 30.17C325.51 29.85 325.46 29.58 325.41 29.33C325.38 29.08 325.35 28.79 325.35 28.44L325.35 25.52C325.38 25.05 325.41 24.71 325.43 24.46C325.48 24.21 325.56 24.01 325.61 23.84L324.13 23.84ZM323.18 24.06C323.03 23.99 322.85 23.94 322.62 23.87C322.41 23.79 322.13 23.77 321.85 23.77C321.29 23.77 320.83 23.97 320.47 24.31C320.11 24.66 319.91 25.08 319.91 25.6C319.91 25.92 319.96 26.19 320.11 26.39C320.24 26.61 320.45 26.83 320.73 27.03C321.03 27.23 321.39 27.48 321.88 27.75C321.98 27.8 322.08 27.9 322.21 28.05C322.34 28.19 322.41 28.37 322.41 28.59C322.41 28.81 322.31 29.04 322.13 29.21C321.95 29.38 321.72 29.48 321.44 29.48C321.14 29.46 320.88 29.38 320.68 29.21C320.47 29.06 320.29 28.89 320.14 28.71L320.14 30.05C320.29 30.1 320.47 30.15 320.62 30.17C320.8 30.2 321.03 30.22 321.29 30.22C321.98 30.22 322.52 30.05 322.9 29.7C323.31 29.38 323.49 28.94 323.51 28.42C323.51 28.12 323.44 27.82 323.26 27.55C323.08 27.3 322.77 27.03 322.29 26.78C321.88 26.56 321.54 26.34 321.29 26.14C321.06 25.94 320.93 25.7 320.93 25.4C320.93 25.15 321.03 24.96 321.21 24.78C321.42 24.63 321.65 24.56 321.93 24.56C322.24 24.56 322.47 24.61 322.67 24.71C322.87 24.83 323.03 24.93 323.18 25.05L323.18 24.06ZM315.71 23.84C315.79 24.11 315.87 24.41 315.89 24.68C315.94 24.98 315.94 25.23 315.94 25.45L315.94 28.54C315.94 28.94 315.92 29.28 315.87 29.53C315.82 29.78 315.77 30 315.71 30.17L319.14 30.17L319.63 29.13C319.17 29.28 318.78 29.38 318.5 29.46C318.2 29.5 317.94 29.55 317.68 29.55C317.45 29.58 317.2 29.58 316.94 29.58L316.94 27.25C317.1 27.28 317.25 27.28 317.38 27.3C317.5 27.3 317.66 27.35 317.81 27.38C317.99 27.43 318.2 27.48 318.43 27.53L318.99 26.66L316.94 26.66L316.94 24.44C317.27 24.44 317.56 24.44 317.81 24.51C318.09 24.56 318.4 24.66 318.76 24.81L319.24 23.84L315.71 23.84ZM308.38 23.84C308.56 23.99 308.71 24.11 308.84 24.24C308.96 24.36 309.09 24.51 309.25 24.68L309.25 28.52C309.25 28.54 309.25 28.66 309.25 28.84C309.25 29.04 309.22 29.23 309.19 29.48C309.14 29.73 309.09 29.95 309.04 30.17L310.42 30.17C310.32 29.9 310.27 29.6 310.22 29.26C310.17 28.94 310.17 28.61 310.17 28.32L310.17 25.82L312.95 29.26C313.08 29.41 313.18 29.55 313.29 29.7C313.39 29.85 313.46 30.02 313.51 30.17L314.74 30.17C314.69 30.05 314.64 29.88 314.59 29.65C314.54 29.43 314.51 29.08 314.51 28.59L314.51 25.2C314.51 24.86 314.54 24.58 314.56 24.39C314.59 24.19 314.64 23.99 314.69 23.84L313.41 23.84C313.46 23.97 313.49 24.09 313.51 24.21C313.54 24.36 313.57 24.53 313.59 24.76C313.59 24.98 313.59 25.28 313.59 25.67L313.59 28.54L310.63 24.91C310.4 24.61 310.22 24.39 310.14 24.24C310.06 24.11 309.99 23.97 309.94 23.84L308.38 23.84ZM302.32 26.78C302.32 26.39 302.39 25.99 302.57 25.65C302.75 25.3 303.01 25 303.34 24.78C303.65 24.58 304.03 24.46 304.49 24.46C305 24.46 305.44 24.61 305.84 24.88C306.23 25.15 306.51 25.5 306.74 25.92C306.94 26.34 307.05 26.76 307.05 27.23C307.07 27.55 306.97 27.9 306.82 28.27C306.66 28.61 306.43 28.91 306.13 29.16C305.79 29.41 305.41 29.53 304.92 29.53C304.49 29.53 304.08 29.43 303.67 29.21C303.29 28.99 302.96 28.69 302.7 28.27C302.44 27.87 302.32 27.38 302.32 26.78ZM301.22 26.93C301.22 27.5 301.34 28.02 301.63 28.52C301.91 29.01 302.29 29.41 302.8 29.73C303.31 30.05 303.93 30.22 304.64 30.22C305.26 30.22 305.84 30.1 306.35 29.83C306.87 29.55 307.28 29.18 307.58 28.71C307.92 28.22 308.07 27.65 308.07 26.98C308.07 26.44 307.94 25.92 307.71 25.42C307.46 24.96 307.1 24.56 306.61 24.26C306.13 23.94 305.54 23.79 304.8 23.77C304.05 23.79 303.39 23.97 302.85 24.29C302.32 24.61 301.91 25 301.63 25.5C301.34 25.97 301.22 26.46 301.22 26.93ZM297.02 25.57C297.02 25.42 297.02 25.23 297.02 25.03C297.05 24.81 297.05 24.61 297.07 24.41C297.76 24.51 298.3 24.71 298.66 25C299.04 25.3 299.3 25.62 299.43 25.99C299.58 26.34 299.63 26.66 299.63 26.98C299.63 27.33 299.55 27.67 299.4 28.05C299.25 28.42 298.99 28.76 298.61 29.04C298.22 29.31 297.71 29.48 297.07 29.55C297.05 29.41 297.05 29.26 297.05 29.11C297.02 28.99 297.02 28.84 297.02 28.69C297.02 28.54 297.02 28.34 297.02 28.1L297.02 25.57ZM296.05 28.24C296.05 28.64 296.03 28.94 296 29.18C295.97 29.43 295.95 29.6 295.92 29.75C295.87 29.92 295.82 30.05 295.77 30.17L297.35 30.17C298.07 30.17 298.68 30.02 299.2 29.75C299.71 29.46 300.09 29.08 300.37 28.61C300.63 28.14 300.78 27.62 300.78 27.06C300.78 26.76 300.73 26.44 300.63 26.12C300.53 25.79 300.37 25.47 300.12 25.18C299.78 24.76 299.4 24.46 298.99 24.26C298.58 24.06 298.17 23.94 297.74 23.89C297.3 23.84 296.87 23.82 296.46 23.82C296.33 23.82 296.2 23.82 296.1 23.84L295.77 23.87C295.82 23.99 295.87 24.21 295.95 24.48C296 24.76 296.05 25.13 296.05 25.57L296.05 28.24ZM288.48 23.84C288.66 23.99 288.81 24.11 288.94 24.24C289.07 24.36 289.22 24.51 289.35 24.68L289.35 28.52C289.35 28.54 289.35 28.66 289.35 28.84C289.35 29.04 289.33 29.23 289.3 29.48C289.25 29.73 289.22 29.95 289.15 30.17L290.53 30.17C290.43 29.9 290.37 29.6 290.32 29.26C290.3 28.94 290.27 28.61 290.27 28.32L290.27 25.82L293.06 29.26C293.19 29.41 293.29 29.55 293.39 29.7C293.49 29.85 293.57 30.02 293.62 30.17L294.85 30.17C294.8 30.05 294.75 29.88 294.7 29.65C294.64 29.43 294.62 29.08 294.62 28.59L294.62 25.2C294.62 24.86 294.64 24.58 294.67 24.39C294.7 24.19 294.75 23.99 294.8 23.84L293.52 23.84C293.57 23.97 293.6 24.09 293.62 24.21C293.65 24.36 293.67 24.53 293.7 24.76C293.7 24.98 293.72 25.28 293.72 25.67L293.72 28.54L290.73 24.91C290.5 24.61 290.32 24.39 290.25 24.24C290.17 24.11 290.09 23.97 290.04 23.84L288.48 23.84ZM286.46 23.84C286.54 24.01 286.62 24.24 286.64 24.46C286.69 24.71 286.72 24.98 286.72 25.35L286.72 28.37C286.72 28.71 286.69 28.99 286.67 29.21C286.64 29.43 286.62 29.63 286.59 29.78C286.54 29.92 286.51 30.05 286.46 30.17L287.95 30.17C287.84 29.85 287.79 29.58 287.74 29.33C287.72 29.08 287.69 28.79 287.69 28.44L287.69 25.52C287.69 25.05 287.72 24.71 287.77 24.46C287.82 24.21 287.87 24.01 287.95 23.84L286.46 23.84ZM277.62 23.87C277.69 24.06 277.74 24.29 277.79 24.53C277.82 24.76 277.85 25 277.85 25.2L277.85 28.52C277.85 28.79 277.82 29.08 277.79 29.36C277.74 29.63 277.67 29.9 277.59 30.17L279.07 30.17C279.02 30.05 278.97 29.83 278.92 29.55C278.87 29.28 278.84 28.96 278.84 28.59L278.84 26.76L280.63 28.94C280.89 29.26 281.07 29.5 281.14 29.68C281.25 29.88 281.3 30.02 281.35 30.17L282.93 30.17C282.73 29.97 282.58 29.83 282.5 29.73C282.4 29.63 282.29 29.5 282.19 29.36L279.97 26.66L281.14 25.3C281.45 24.93 281.73 24.66 281.99 24.41C282.24 24.19 282.47 23.99 282.7 23.84L281.04 23.84C281.02 23.94 280.96 24.04 280.91 24.14C280.86 24.26 280.73 24.44 280.53 24.66L278.84 26.66L278.84 25.4C278.84 25.13 278.84 24.88 278.87 24.71C278.89 24.53 278.92 24.36 278.97 24.24C279 24.11 279.05 23.97 279.1 23.84L277.62 23.87ZM270.23 23.84C270.4 23.99 270.58 24.11 270.69 24.24C270.81 24.36 270.97 24.51 271.12 24.68L271.12 28.52C271.12 28.54 271.1 28.66 271.1 28.84C271.1 29.04 271.07 29.23 271.04 29.48C271.02 29.73 270.97 29.95 270.89 30.17L272.27 30.17C272.19 29.9 272.12 29.6 272.07 29.26C272.04 28.94 272.01 28.61 272.01 28.32L272.01 25.82L274.8 29.26C274.93 29.41 275.03 29.55 275.14 29.7C275.24 29.85 275.31 30.02 275.37 30.17L276.59 30.17C276.54 30.05 276.49 29.88 276.44 29.65C276.39 29.43 276.36 29.08 276.36 28.59L276.36 25.2C276.36 24.86 276.39 24.58 276.41 24.39C276.46 24.19 276.49 23.99 276.54 23.84L275.29 23.84C275.31 23.97 275.34 24.09 275.37 24.21C275.39 24.36 275.42 24.53 275.44 24.76C275.44 24.98 275.47 25.28 275.47 25.67L275.47 28.54L272.5 24.91C272.25 24.61 272.07 24.39 271.99 24.24C271.91 24.11 271.84 23.97 271.79 23.84L270.23 23.84ZM266.77 25.77L267.54 27.45L265.93 27.45L266.77 25.77ZM266.85 23.79L266.8 23.79L264.27 28.66C264.09 29.01 263.94 29.28 263.81 29.46C263.7 29.65 263.6 29.8 263.53 29.9C263.45 30.02 263.37 30.1 263.29 30.17L264.91 30.17C264.91 29.92 264.93 29.68 265.01 29.43C265.11 29.21 265.16 29.01 265.24 28.89L265.57 28.22L267.87 28.22L268.26 29.06C268.38 29.31 268.46 29.53 268.49 29.7C268.51 29.88 268.54 30.05 268.54 30.17L270.1 30.17C269.97 30.02 269.84 29.8 269.66 29.55C269.51 29.31 269.31 28.94 269.07 28.44L266.85 23.79ZM260.46 26.86C260.87 26.98 261.2 27.11 261.43 27.28C261.66 27.48 261.81 27.65 261.89 27.85C261.99 28.05 262.02 28.22 262.02 28.39C262.02 28.47 261.99 28.61 261.94 28.81C261.89 29.01 261.76 29.18 261.53 29.36C261.3 29.53 260.94 29.6 260.46 29.6L260.46 26.86ZM260.46 24.39C260.82 24.41 261.12 24.51 261.35 24.68C261.61 24.83 261.74 25.1 261.74 25.47C261.74 25.82 261.61 26.12 261.35 26.31C261.12 26.51 260.82 26.66 260.46 26.74L260.46 24.39ZM259.26 23.84C259.28 23.92 259.31 23.99 259.36 24.11C259.38 24.21 259.41 24.39 259.43 24.61C259.46 24.83 259.49 25.13 259.49 25.5L259.49 28.34C259.49 28.54 259.46 28.81 259.43 29.13C259.41 29.48 259.33 29.8 259.23 30.17L260.71 30.17C260.92 30.17 261.15 30.17 261.38 30.12C261.61 30.07 261.81 30.02 261.99 29.95C262.27 29.85 262.53 29.68 262.76 29.38C262.99 29.11 263.12 28.79 263.12 28.44C263.12 28.07 262.99 27.75 262.76 27.48C262.55 27.21 262.27 26.96 261.94 26.78C262.04 26.71 262.17 26.61 262.32 26.49C262.45 26.36 262.55 26.22 262.66 26.04C262.76 25.87 262.81 25.67 262.81 25.4C262.81 25.2 262.76 24.98 262.63 24.76C262.5 24.51 262.3 24.29 261.99 24.11C261.68 23.94 261.25 23.84 260.71 23.84L259.26 23.84Z" fill="#181D1F" fill-opacity="1.000000" fill-rule="evenodd"/>
		</g>
	</g>
	<rect id="Frame 2085659883" rx="26.500000" width="362.000000" height="53.000000" transform="translate(0.500000 0.500000)" stroke="#212121" stroke-opacity="0.200000" stroke-width="1.000000"/>
</svg>
