<svg width="520" height="450" viewBox="0 0 520 450" fill="none" xmlns="http://www.w3.org/2000/svg">
<rect width="520" height="450" rx="40" fill="#F2F2F2"/>
<path d="M55.64 130.36H67.13V133H52.58V111.25H55.64V130.36ZM68.3387 128.74C68.3387 124.93 72.6287 123.82 79.2587 123.07V122.68C79.2587 119.74 77.6087 118.75 75.5987 118.75C73.3487 118.75 72.0287 119.98 71.9087 121.96H69.0887C69.3587 118.48 72.4187 116.53 75.5687 116.53C80.0087 116.53 82.0187 118.66 81.9887 123.19L81.9587 126.91C81.9287 129.61 82.0787 131.47 82.3787 133H79.6187C79.5287 132.4 79.4387 131.74 79.4087 130.78C78.4187 132.43 76.7387 133.39 73.8887 133.39C70.8587 133.39 68.3387 131.71 68.3387 128.74ZM79.4687 125.23C74.5187 125.74 71.3687 126.46 71.3687 128.68C71.3687 130.21 72.5387 131.23 74.4887 131.23C77.0387 131.23 79.4687 130.06 79.4687 126.25V125.23ZM95.2965 121.57C94.8765 119.65 93.3765 118.9 91.4865 118.9C89.8965 118.9 88.0965 119.47 88.0965 120.94C88.0965 122.23 88.9965 122.83 90.5565 123.13L92.8365 123.58C95.7765 124.15 98.3565 125.26 98.3565 128.38C98.3565 131.56 95.4765 133.39 91.7865 133.39C87.5565 133.39 85.1565 130.6 84.8565 127.78H87.7365C88.1565 129.85 89.4465 131.08 91.8465 131.08C93.9165 131.08 95.5965 130.18 95.5965 128.68C95.5965 127.06 94.0665 126.37 92.3265 126.01L89.9265 125.53C87.7365 125.08 85.3365 124.06 85.3365 121.06C85.3365 118.21 88.2165 116.56 91.7865 116.56C95.2665 116.56 97.6365 118.51 98.1465 121.57H95.2965ZM102.598 112.81H105.328V116.86H108.388V119.05H105.328V128.62C105.328 130.3 105.448 130.72 107.008 130.72H108.388V133H106.408C103.318 133 102.598 132.31 102.598 128.95V119.05H100.048V116.86H102.598V112.81ZM130.513 116.86L124.753 133.69C123.583 137.2 122.743 138.25 119.143 138.25H117.733V135.97H118.843C120.643 135.97 121.513 135.85 122.233 133.33L122.353 133L116.533 116.86H119.563L123.673 129.31L127.663 116.86H130.513ZM134.205 125.83C134.325 129.31 136.785 130.99 139.185 130.99C141.585 130.99 142.905 129.91 143.595 128.32H146.415C145.665 131.11 143.115 133.39 139.185 133.39C134.085 133.39 131.265 129.73 131.265 124.96C131.265 119.86 134.685 116.59 139.095 116.59C144.015 116.59 146.985 120.73 146.625 125.83H134.205ZM134.235 123.49H143.745C143.685 121.21 141.975 118.93 139.095 118.93C136.665 118.93 134.475 120.25 134.235 123.49ZM148.7 128.74C148.7 124.93 152.99 123.82 159.62 123.07V122.68C159.62 119.74 157.97 118.75 155.96 118.75C153.71 118.75 152.39 119.98 152.27 121.96H149.45C149.72 118.48 152.78 116.53 155.93 116.53C160.37 116.53 162.38 118.66 162.35 123.19L162.32 126.91C162.29 129.61 162.44 131.47 162.74 133H159.98C159.89 132.4 159.8 131.74 159.77 130.78C158.78 132.43 157.1 133.39 154.25 133.39C151.22 133.39 148.7 131.71 148.7 128.74ZM159.83 125.23C154.88 125.74 151.73 126.46 151.73 128.68C151.73 130.21 152.9 131.23 154.85 131.23C157.4 131.23 159.83 130.06 159.83 126.25V125.23ZM174.458 119.71C173.888 119.65 173.378 119.59 172.928 119.59C170.408 119.59 169.148 121 169.148 124.54V133H166.418V116.86H169.088V119.68C169.898 117.85 171.548 116.83 173.648 116.77C173.918 116.77 174.158 116.77 174.458 116.8V119.71ZM173.884 129.55H177.334V133.24L175.504 137.17H173.764L175.354 133H173.884V129.55ZM189.346 112.81H192.076V116.86H195.136V119.05H192.076V128.62C192.076 130.3 192.196 130.72 193.756 130.72H195.136V133H193.156C190.066 133 189.346 132.31 189.346 128.95V119.05H186.796V116.86H189.346V112.81ZM212.606 124.99C212.606 130.84 208.616 133.39 204.866 133.39C201.116 133.39 197.126 130.84 197.126 124.99C197.126 119.14 201.116 116.59 204.866 116.59C208.616 116.59 212.606 119.14 212.606 124.99ZM204.866 130.99C207.326 130.99 209.696 129.13 209.696 124.99C209.696 120.7 207.326 118.99 204.866 118.99C202.406 118.99 200.036 120.58 200.036 124.99C200.036 129.28 202.406 130.99 204.866 130.99ZM225.861 130.69C224.931 132.22 223.461 133.39 220.791 133.39C217.041 133.39 215.631 130.87 215.631 127.18V116.86H218.361V126.37C218.361 128.86 218.781 131.02 221.751 131.02C224.331 131.02 225.861 129.19 225.861 125.74V116.86H228.591V133H225.861V130.69ZM240.962 119.71C240.392 119.65 239.882 119.59 239.432 119.59C236.912 119.59 235.652 121 235.652 124.54V133H232.922V116.86H235.592V119.68C236.402 117.85 238.052 116.83 240.152 116.77C240.422 116.77 240.662 116.77 240.962 116.8V119.71ZM246.316 111.25V114.55H243.586V111.25H246.316ZM246.316 116.86V133H243.586V116.86H246.316ZM259.886 121.57C259.466 119.65 257.966 118.9 256.076 118.9C254.486 118.9 252.686 119.47 252.686 120.94C252.686 122.23 253.586 122.83 255.146 123.13L257.426 123.58C260.366 124.15 262.946 125.26 262.946 128.38C262.946 131.56 260.066 133.39 256.376 133.39C252.146 133.39 249.746 130.6 249.446 127.78H252.326C252.746 129.85 254.036 131.08 256.436 131.08C258.506 131.08 260.186 130.18 260.186 128.68C260.186 127.06 258.656 126.37 256.916 126.01L254.516 125.53C252.326 125.08 249.926 124.06 249.926 121.06C249.926 118.21 252.806 116.56 256.376 116.56C259.856 116.56 262.226 118.51 262.736 121.57H259.886ZM267.188 112.81H269.918V116.86H272.978V119.05H269.918V128.62C269.918 130.3 270.038 130.72 271.598 130.72H272.978V133H270.998C267.908 133 267.188 132.31 267.188 128.95V119.05H264.638V116.86H267.188V112.81ZM282.323 128.74C282.323 124.93 286.613 123.82 293.243 123.07V122.68C293.243 119.74 291.593 118.75 289.583 118.75C287.333 118.75 286.013 119.98 285.893 121.96H283.073C283.343 118.48 286.403 116.53 289.553 116.53C293.993 116.53 296.003 118.66 295.973 123.19L295.943 126.91C295.913 129.61 296.063 131.47 296.363 133H293.603C293.513 132.4 293.423 131.74 293.393 130.78C292.403 132.43 290.723 133.39 287.873 133.39C284.843 133.39 282.323 131.71 282.323 128.74ZM293.453 125.23C288.503 125.74 285.353 126.46 285.353 128.68C285.353 130.21 286.523 131.23 288.473 131.23C291.023 131.23 293.453 130.06 293.453 126.25V125.23ZM308.081 119.71C307.511 119.65 307.001 119.59 306.551 119.59C304.031 119.59 302.771 121 302.771 124.54V133H300.041V116.86H302.711V119.68C303.521 117.85 305.171 116.83 307.271 116.77C307.541 116.77 307.781 116.77 308.081 116.8V119.71ZM318.745 119.71C318.175 119.65 317.665 119.59 317.215 119.59C314.695 119.59 313.435 121 313.435 124.54V133H310.705V116.86H313.375V119.68C314.185 117.85 315.835 116.83 317.935 116.77C318.205 116.77 318.445 116.77 318.745 116.8V119.71ZM324.099 111.25V114.55H321.369V111.25H324.099ZM324.099 116.86V133H321.369V116.86H324.099ZM333.68 129.22L338.06 116.86H340.88L334.79 133H332.36L326.27 116.86H329.3L333.68 129.22ZM341.503 128.74C341.503 124.93 345.793 123.82 352.423 123.07V122.68C352.423 119.74 350.773 118.75 348.763 118.75C346.513 118.75 345.193 119.98 345.073 121.96H342.253C342.523 118.48 345.583 116.53 348.733 116.53C353.173 116.53 355.183 118.66 355.153 123.19L355.123 126.91C355.093 129.61 355.243 131.47 355.543 133H352.783C352.693 132.4 352.603 131.74 352.573 130.78C351.583 132.43 349.903 133.39 347.053 133.39C344.023 133.39 341.503 131.71 341.503 128.74ZM352.633 125.23C347.683 125.74 344.533 126.46 344.533 128.68C344.533 130.21 345.703 131.23 347.653 131.23C350.203 131.23 352.633 130.06 352.633 126.25V125.23ZM361.951 133H359.221V111.25H361.951V133ZM375.521 121.57C375.101 119.65 373.601 118.9 371.711 118.9C370.121 118.9 368.321 119.47 368.321 120.94C368.321 122.23 369.221 122.83 370.781 123.13L373.061 123.58C376.001 124.15 378.581 125.26 378.581 128.38C378.581 131.56 375.701 133.39 372.011 133.39C367.781 133.39 365.381 130.6 365.081 127.78H367.961C368.381 129.85 369.671 131.08 372.071 131.08C374.141 131.08 375.821 130.18 375.821 128.68C375.821 127.06 374.291 126.37 372.551 126.01L370.151 125.53C367.961 125.08 365.561 124.06 365.561 121.06C365.561 118.21 368.441 116.56 372.011 116.56C375.491 116.56 377.861 118.51 378.371 121.57H375.521ZM61.4 163.57C60.98 161.65 59.48 160.9 57.59 160.9C56 160.9 54.2 161.47 54.2 162.94C54.2 164.23 55.1 164.83 56.66 165.13L58.94 165.58C61.88 166.15 64.46 167.26 64.46 170.38C64.46 173.56 61.58 175.39 57.89 175.39C53.66 175.39 51.26 172.6 50.96 169.78H53.84C54.26 171.85 55.55 173.08 57.95 173.08C60.02 173.08 61.7 172.18 61.7 170.68C61.7 169.06 60.17 168.37 58.43 168.01L56.03 167.53C53.84 167.08 51.44 166.06 51.44 163.06C51.44 160.21 54.32 158.56 57.89 158.56C61.37 158.56 63.74 160.51 64.25 163.57H61.4ZM77.9117 172.69C76.9817 174.22 75.5117 175.39 72.8417 175.39C69.0917 175.39 67.6817 172.87 67.6817 169.18V158.86H70.4117V168.37C70.4117 170.86 70.8317 173.02 73.8017 173.02C76.3817 173.02 77.9117 171.19 77.9117 167.74V158.86H80.6417V175H77.9117V172.69ZM93.0125 161.71C92.4425 161.65 91.9325 161.59 91.4825 161.59C88.9625 161.59 87.7025 163 87.7025 166.54V175H84.9725V158.86H87.6425V161.68C88.4525 159.85 90.1025 158.83 92.2025 158.77C92.4725 158.77 92.7125 158.77 93.0125 158.8V161.71ZM106.204 158.86H108.934V172.84C108.934 176.14 108.334 177.49 107.404 178.51C106.234 179.86 104.224 180.64 101.824 180.64C98.1636 180.64 95.7036 178.96 95.1936 175.69H98.1036C98.4636 177.13 99.3336 178.24 101.854 178.24C103.324 178.24 104.434 177.82 105.154 177.04C105.754 176.41 106.204 175.66 106.204 173.47V171.94C105.214 173.65 103.654 174.73 101.074 174.73C97.5036 174.73 94.2336 171.85 94.2336 166.66C94.2336 161.5 97.5036 158.59 101.074 158.59C103.654 158.59 105.214 159.7 106.204 161.41V158.86ZM101.764 160.93C99.0936 160.93 97.2036 163 97.2036 166.66C97.2036 170.35 99.0936 172.42 101.764 172.42C104.194 172.42 106.324 170.77 106.324 166.66C106.324 162.58 104.194 160.93 101.764 160.93ZM115.074 167.83C115.194 171.31 117.654 172.99 120.054 172.99C122.454 172.99 123.774 171.91 124.464 170.32H127.284C126.534 173.11 123.984 175.39 120.054 175.39C114.954 175.39 112.134 171.73 112.134 166.96C112.134 161.86 115.554 158.59 119.964 158.59C124.884 158.59 127.854 162.73 127.494 167.83H115.074ZM115.104 165.49H124.614C124.554 163.21 122.844 160.93 119.964 160.93C117.534 160.93 115.344 162.25 115.104 165.49ZM141.892 153.25H144.622V175H141.892V172.57C140.902 174.28 139.192 175.39 136.612 175.39C132.922 175.39 129.712 172.33 129.712 166.99C129.712 161.68 132.922 158.59 136.612 158.59C139.192 158.59 140.902 159.7 141.892 161.41V153.25ZM137.302 160.93C134.512 160.93 132.682 163.15 132.682 166.99C132.682 170.83 134.512 173.05 137.302 173.05C139.732 173.05 142.012 171.25 142.012 166.99C142.012 162.73 139.732 160.93 137.302 160.93ZM169.847 158.56C169.847 163.6 164.597 168.07 158.507 172.45H170.447V175H154.787V172.54C162.467 166.87 166.967 162.76 166.967 158.92C166.967 156.67 165.467 155.14 162.887 155.14C160.547 155.14 158.267 156.43 158.207 160.03H155.387C155.327 155.71 158.327 152.86 162.947 152.86C166.967 152.86 169.847 154.9 169.847 158.56ZM185.502 167.86C185.502 164.26 182.982 162.7 180.612 162.7C178.362 162.7 176.892 164.02 176.412 165.1L173.682 164.95L175.092 153.25H187.572V155.8H177.312L176.562 161.98C177.702 160.87 179.442 160.33 181.242 160.33C185.052 160.33 188.382 163.03 188.382 167.83C188.382 172.81 184.692 175.39 180.642 175.39C175.602 175.39 173.322 172.21 172.902 168.7H175.722C176.142 171.43 177.612 173.11 180.642 173.11C183.252 173.11 185.502 171.22 185.502 167.86ZM195.205 175V157.99H190.165V156.13C193.285 156.01 194.875 155.62 196.075 153.25H197.935V175H195.205ZM201.96 159.37C201.96 155.65 203.61 153.04 206.85 153.04C210.15 153.04 211.8 155.65 211.8 159.37C211.8 163.09 210.15 165.7 206.85 165.7C203.61 165.7 201.96 163.09 201.96 159.37ZM206.82 175L221.82 153.25H224.85L209.85 175H206.82ZM209.52 159.37C209.52 156.37 208.59 154.66 206.85 154.66C205.17 154.66 204.24 156.37 204.24 159.37C204.24 162.34 205.17 164.05 206.85 164.05C208.59 164.05 209.52 162.34 209.52 159.37ZM219.96 168.88C219.96 165.16 221.61 162.55 224.85 162.55C228.15 162.55 229.8 165.16 229.8 168.88C229.8 172.6 228.15 175.21 224.85 175.21C221.61 175.21 219.96 172.6 219.96 168.88ZM227.52 168.88C227.52 165.88 226.59 164.17 224.85 164.17C223.17 164.17 222.24 165.88 222.24 168.88C222.24 171.85 223.17 173.56 224.85 173.56C226.59 173.56 227.52 171.85 227.52 168.88ZM240.85 154.81H243.58V158.86H246.64V161.05H243.58V170.62C243.58 172.3 243.7 172.72 245.26 172.72H246.64V175H244.66C241.57 175 240.85 174.31 240.85 170.95V161.05H238.3V158.86H240.85V154.81ZM264.11 166.99C264.11 172.84 260.12 175.39 256.37 175.39C252.62 175.39 248.63 172.84 248.63 166.99C248.63 161.14 252.62 158.59 256.37 158.59C260.12 158.59 264.11 161.14 264.11 166.99ZM256.37 172.99C258.83 172.99 261.2 171.13 261.2 166.99C261.2 162.7 258.83 160.99 256.37 160.99C253.91 160.99 251.54 162.58 251.54 166.99C251.54 171.28 253.91 172.99 256.37 172.99ZM286.254 167.86C286.254 164.26 283.734 162.7 281.364 162.7C279.114 162.7 277.644 164.02 277.164 165.1L274.434 164.95L275.844 153.25H288.324V155.8H278.064L277.314 161.98C278.454 160.87 280.194 160.33 281.994 160.33C285.804 160.33 289.134 163.03 289.134 167.83C289.134 172.81 285.444 175.39 281.394 175.39C276.354 175.39 274.074 172.21 273.654 168.7H276.474C276.894 171.43 278.364 173.11 281.394 173.11C284.004 173.11 286.254 171.22 286.254 167.86ZM291.921 175V171.55H295.371V175H291.921ZM314.798 169.63H310.808V175H308.048V169.63H297.248V167.05L308.018 153.25H310.808V167.05H314.798V169.63ZM300.278 167.05H308.048V157L300.278 167.05ZM315.789 153.25H330.849V155.8C325.479 160.15 322.149 166.87 321.639 175H318.339C318.819 167.2 322.269 160.48 327.669 155.8H315.789V153.25ZM342.849 175H340.119V158.86H342.849V161.29C343.779 159.76 345.279 158.59 347.709 158.59C350.169 158.59 351.639 159.67 352.359 161.44C353.649 159.46 355.539 158.59 357.789 158.59C361.539 158.59 363.009 161.11 363.009 164.8V175H360.279V165.61C360.279 163.12 359.799 160.96 356.829 160.96C354.489 160.96 352.929 162.79 352.929 166.24V175H350.199V165.61C350.199 163.12 349.719 160.96 346.749 160.96C344.409 160.96 342.849 162.79 342.849 166.24V175ZM369.831 153.25V156.55H367.101V153.25H369.831ZM369.831 158.86V175H367.101V158.86H369.831ZM376.892 175H374.162V153.25H376.892V175ZM383.953 175H381.223V153.25H383.953V175ZM391.013 153.25V156.55H388.283V153.25H391.013ZM391.013 158.86V175H388.283V158.86H391.013ZM409.774 166.99C409.774 172.84 405.784 175.39 402.034 175.39C398.284 175.39 394.294 172.84 394.294 166.99C394.294 161.14 398.284 158.59 402.034 158.59C405.784 158.59 409.774 161.14 409.774 166.99ZM402.034 172.99C404.494 172.99 406.864 171.13 406.864 166.99C406.864 162.7 404.494 160.99 402.034 160.99C399.574 160.99 397.204 162.58 397.204 166.99C397.204 171.28 399.574 172.99 402.034 172.99ZM415.769 161.29C416.699 159.76 418.259 158.59 420.989 158.59C424.889 158.59 426.299 161.11 426.299 164.8V175H423.569V165.61C423.569 163.12 423.149 160.96 420.029 160.96C417.389 160.96 415.769 162.79 415.769 166.24V175H413.039V158.86H415.769V161.29ZM430.407 171.55H433.857V175.24L432.027 179.17H430.287L431.877 175H430.407V171.55ZM53.99 209.83C54.11 213.31 56.57 214.99 58.97 214.99C61.37 214.99 62.69 213.91 63.38 212.32H66.2C65.45 215.11 62.9 217.39 58.97 217.39C53.87 217.39 51.05 213.73 51.05 208.96C51.05 203.86 54.47 200.59 58.88 200.59C63.8 200.59 66.77 204.73 66.41 209.83H53.99ZM54.02 207.49H63.53C63.47 205.21 61.76 202.93 58.88 202.93C56.45 202.93 54.26 204.25 54.02 207.49ZM76.4101 208.57L82.4401 217H79.1701L74.7901 210.85L70.4401 217H67.3201L73.2601 208.69L67.6801 200.86H70.9501L74.8801 206.41L78.8401 200.86H81.9001L76.4101 208.57ZM97.8266 206.26H95.0666C94.6766 204.34 92.9966 202.99 90.8966 202.99C88.4666 202.99 86.2466 204.88 86.2466 208.93C86.2466 213.04 88.4966 214.99 90.8966 214.99C93.1766 214.99 94.7966 213.46 95.1866 211.75H98.0066C97.4666 214.78 94.5566 217.39 90.8066 217.39C86.1866 217.39 83.2766 213.88 83.2766 208.96C83.2766 204.16 86.3066 200.59 91.0766 200.59C94.9766 200.59 97.4666 203.53 97.8266 206.26ZM103.062 209.83C103.182 213.31 105.642 214.99 108.042 214.99C110.442 214.99 111.762 213.91 112.452 212.32H115.272C114.522 215.11 111.972 217.39 108.042 217.39C102.942 217.39 100.122 213.73 100.122 208.96C100.122 203.86 103.542 200.59 107.952 200.59C112.872 200.59 115.842 204.73 115.482 209.83H103.062ZM103.092 207.49H112.602C112.542 205.21 110.832 202.93 107.952 202.93C105.522 202.93 103.332 204.25 103.092 207.49ZM120.64 209.83C120.76 213.31 123.22 214.99 125.62 214.99C128.02 214.99 129.34 213.91 130.03 212.32H132.85C132.1 215.11 129.55 217.39 125.62 217.39C120.52 217.39 117.7 213.73 117.7 208.96C117.7 203.86 121.12 200.59 125.53 200.59C130.45 200.59 133.42 204.73 133.06 209.83H120.64ZM120.67 207.49H130.18C130.12 205.21 128.41 202.93 125.53 202.93C123.1 202.93 120.91 204.25 120.67 207.49ZM147.459 195.25H150.189V217H147.459V214.57C146.469 216.28 144.759 217.39 142.179 217.39C138.489 217.39 135.279 214.33 135.279 208.99C135.279 203.68 138.489 200.59 142.179 200.59C144.759 200.59 146.469 201.7 147.459 203.41V195.25ZM142.869 202.93C140.079 202.93 138.249 205.15 138.249 208.99C138.249 212.83 140.079 215.05 142.869 215.05C145.299 215.05 147.579 213.25 147.579 208.99C147.579 204.73 145.299 202.93 142.869 202.93ZM157.224 195.25V198.55H154.494V195.25H157.224ZM157.224 200.86V217H154.494V200.86H157.224ZM164.285 203.29C165.215 201.76 166.775 200.59 169.505 200.59C173.405 200.59 174.815 203.11 174.815 206.8V217H172.085V207.61C172.085 205.12 171.665 202.96 168.545 202.96C165.905 202.96 164.285 204.79 164.285 208.24V217H161.555V200.86H164.285V203.29ZM189.758 200.86H192.488V214.84C192.488 218.14 191.888 219.49 190.958 220.51C189.788 221.86 187.778 222.64 185.378 222.64C181.718 222.64 179.258 220.96 178.748 217.69H181.658C182.018 219.13 182.888 220.24 185.408 220.24C186.878 220.24 187.988 219.82 188.708 219.04C189.308 218.41 189.758 217.66 189.758 215.47V213.94C188.768 215.65 187.208 216.73 184.628 216.73C181.058 216.73 177.788 213.85 177.788 208.66C177.788 203.5 181.058 200.59 184.628 200.59C187.208 200.59 188.768 201.7 189.758 203.41V200.86ZM185.318 202.93C182.648 202.93 180.758 205 180.758 208.66C180.758 212.35 182.648 214.42 185.318 214.42C187.748 214.42 189.878 212.77 189.878 208.66C189.878 204.58 187.748 202.93 185.318 202.93ZM204.698 196.81H207.428V200.86H210.488V203.05H207.428V212.62C207.428 214.3 207.548 214.72 209.108 214.72H210.488V217H208.508C205.418 217 204.698 216.31 204.698 212.95V203.05H202.148V200.86H204.698V196.81ZM216.697 203.29C217.627 201.76 219.187 200.59 221.917 200.59C225.817 200.59 227.227 203.11 227.227 206.8V217H224.497V207.61C224.497 205.12 224.077 202.96 220.957 202.96C218.317 202.96 216.697 204.79 216.697 208.24V217H213.967V195.25H216.697V203.29ZM233.14 209.83C233.26 213.31 235.72 214.99 238.12 214.99C240.52 214.99 241.84 213.91 242.53 212.32H245.35C244.6 215.11 242.05 217.39 238.12 217.39C233.02 217.39 230.2 213.73 230.2 208.96C230.2 203.86 233.62 200.59 238.03 200.59C242.95 200.59 245.92 204.73 245.56 209.83H233.14ZM233.17 207.49H242.68C242.62 205.21 240.91 202.93 238.03 202.93C235.6 202.93 233.41 204.25 233.17 207.49ZM266.721 200.86H269.451V214.84C269.451 218.14 268.851 219.49 267.921 220.51C266.751 221.86 264.741 222.64 262.341 222.64C258.681 222.64 256.221 220.96 255.711 217.69H258.621C258.981 219.13 259.851 220.24 262.371 220.24C263.841 220.24 264.951 219.82 265.671 219.04C266.271 218.41 266.721 217.66 266.721 215.47V213.94C265.731 215.65 264.171 216.73 261.591 216.73C258.021 216.73 254.751 213.85 254.751 208.66C254.751 203.5 258.021 200.59 261.591 200.59C264.171 200.59 265.731 201.7 266.721 203.41V200.86ZM262.281 202.93C259.611 202.93 257.721 205 257.721 208.66C257.721 212.35 259.611 214.42 262.281 214.42C264.711 214.42 266.841 212.77 266.841 208.66C266.841 204.58 264.711 202.93 262.281 202.93ZM288.192 208.99C288.192 214.84 284.202 217.39 280.452 217.39C276.702 217.39 272.712 214.84 272.712 208.99C272.712 203.14 276.702 200.59 280.452 200.59C284.202 200.59 288.192 203.14 288.192 208.99ZM280.452 214.99C282.912 214.99 285.282 213.13 285.282 208.99C285.282 204.7 282.912 202.99 280.452 202.99C277.992 202.99 275.622 204.58 275.622 208.99C275.622 213.28 277.992 214.99 280.452 214.99ZM296.414 213.22L300.794 200.86H303.614L297.524 217H295.094L289.004 200.86H292.034L296.414 213.22ZM307.32 209.83C307.44 213.31 309.9 214.99 312.3 214.99C314.7 214.99 316.02 213.91 316.71 212.32H319.53C318.78 215.11 316.23 217.39 312.3 217.39C307.2 217.39 304.38 213.73 304.38 208.96C304.38 203.86 307.8 200.59 312.21 200.59C317.13 200.59 320.1 204.73 319.74 209.83H307.32ZM307.35 207.49H316.86C316.8 205.21 315.09 202.93 312.21 202.93C309.78 202.93 307.59 204.25 307.35 207.49ZM330.962 203.71C330.392 203.65 329.882 203.59 329.432 203.59C326.912 203.59 325.652 205 325.652 208.54V217H322.922V200.86H325.592V203.68C326.402 201.85 328.052 200.83 330.152 200.77C330.422 200.77 330.662 200.77 330.962 200.8V203.71ZM336.316 203.29C337.246 201.76 338.806 200.59 341.536 200.59C345.436 200.59 346.846 203.11 346.846 206.8V217H344.116V207.61C344.116 205.12 343.696 202.96 340.576 202.96C337.936 202.96 336.316 204.79 336.316 208.24V217H333.586V200.86H336.316V203.29ZM353.66 217H350.93V200.86H353.66V203.29C354.59 201.76 356.09 200.59 358.52 200.59C360.98 200.59 362.45 201.67 363.17 203.44C364.46 201.46 366.35 200.59 368.6 200.59C372.35 200.59 373.82 203.11 373.82 206.8V217H371.09V207.61C371.09 205.12 370.61 202.96 367.64 202.96C365.3 202.96 363.74 204.79 363.74 208.24V217H361.01V207.61C361.01 205.12 360.53 202.96 357.56 202.96C355.22 202.96 353.66 204.79 353.66 208.24V217ZM379.742 209.83C379.862 213.31 382.322 214.99 384.722 214.99C387.122 214.99 388.442 213.91 389.132 212.32H391.952C391.202 215.11 388.652 217.39 384.722 217.39C379.622 217.39 376.802 213.73 376.802 208.96C376.802 203.86 380.222 200.59 384.632 200.59C389.552 200.59 392.522 204.73 392.162 209.83H379.742ZM379.772 207.49H389.282C389.222 205.21 387.512 202.93 384.632 202.93C382.202 202.93 380.012 204.25 379.772 207.49ZM398.074 203.29C399.004 201.76 400.564 200.59 403.294 200.59C407.194 200.59 408.604 203.11 408.604 206.8V217H405.874V207.61C405.874 205.12 405.454 202.96 402.334 202.96C399.694 202.96 398.074 204.79 398.074 208.24V217H395.344V200.86H398.074V203.29ZM413.467 196.81H416.197V200.86H419.257V203.05H416.197V212.62C416.197 214.3 416.317 214.72 417.877 214.72H419.257V217H417.277C414.187 217 413.467 216.31 413.467 212.95V203.05H410.917V200.86H413.467V196.81ZM424.153 195.25L423.553 202.45H421.693L421.093 195.25H424.153ZM436.371 205.57C435.951 203.65 434.451 202.9 432.561 202.9C430.971 202.9 429.171 203.47 429.171 204.94C429.171 206.23 430.071 206.83 431.631 207.13L433.911 207.58C436.851 208.15 439.431 209.26 439.431 212.38C439.431 215.56 436.551 217.39 432.861 217.39C428.631 217.39 426.231 214.6 425.931 211.78H428.811C429.231 213.85 430.521 215.08 432.921 215.08C434.991 215.08 436.671 214.18 436.671 212.68C436.671 211.06 435.141 210.37 433.401 210.01L431.001 209.53C428.811 209.08 426.411 208.06 426.411 205.06C426.411 202.21 429.291 200.56 432.861 200.56C436.341 200.56 438.711 202.51 439.221 205.57H436.371ZM52.94 238.81H55.67V242.86H58.73V245.05H55.67V254.62C55.67 256.3 55.79 256.72 57.35 256.72H58.73V259H56.75C53.66 259 52.94 258.31 52.94 254.95V245.05H50.39V242.86H52.94V238.81ZM60.9559 254.74C60.9559 250.93 65.2459 249.82 71.8759 249.07V248.68C71.8759 245.74 70.2259 244.75 68.2159 244.75C65.9659 244.75 64.6459 245.98 64.5259 247.96H61.7059C61.9759 244.48 65.0359 242.53 68.1859 242.53C72.6259 242.53 74.6359 244.66 74.6059 249.19L74.5759 252.91C74.5459 255.61 74.6959 257.47 74.9959 259H72.2359C72.1459 258.4 72.0559 257.74 72.0259 256.78C71.0359 258.43 69.3559 259.39 66.5059 259.39C63.4759 259.39 60.9559 257.71 60.9559 254.74ZM72.0859 251.23C67.1359 251.74 63.9859 252.46 63.9859 254.68C63.9859 256.21 65.1559 257.23 67.1059 257.23C69.6559 257.23 72.0859 256.06 72.0859 252.25V251.23ZM86.7137 245.71C86.1437 245.65 85.6337 245.59 85.1837 245.59C82.6637 245.59 81.4037 247 81.4037 250.54V259H78.6737V242.86H81.3437V245.68C82.1537 243.85 83.8037 242.83 85.9037 242.77C86.1737 242.77 86.4137 242.77 86.7137 242.8V245.71ZM99.9048 242.86H102.635V256.84C102.635 260.14 102.035 261.49 101.105 262.51C99.9348 263.86 97.9248 264.64 95.5248 264.64C91.8648 264.64 89.4048 262.96 88.8948 259.69H91.8048C92.1648 261.13 93.0348 262.24 95.5548 262.24C97.0248 262.24 98.1348 261.82 98.8548 261.04C99.4548 260.41 99.9048 259.66 99.9048 257.47V255.94C98.9148 257.65 97.3548 258.73 94.7748 258.73C91.2048 258.73 87.9348 255.85 87.9348 250.66C87.9348 245.5 91.2048 242.59 94.7748 242.59C97.3548 242.59 98.9148 243.7 99.9048 245.41V242.86ZM95.4648 244.93C92.7948 244.93 90.9048 247 90.9048 250.66C90.9048 254.35 92.7948 256.42 95.4648 256.42C97.8948 256.42 100.025 254.77 100.025 250.66C100.025 246.58 97.8948 244.93 95.4648 244.93ZM108.775 251.83C108.895 255.31 111.355 256.99 113.755 256.99C116.155 256.99 117.475 255.91 118.165 254.32H120.985C120.235 257.11 117.685 259.39 113.755 259.39C108.655 259.39 105.835 255.73 105.835 250.96C105.835 245.86 109.255 242.59 113.665 242.59C118.585 242.59 121.555 246.73 121.195 251.83H108.775ZM108.805 249.49H118.315C118.255 247.21 116.545 244.93 113.665 244.93C111.235 244.93 109.045 246.25 108.805 249.49ZM125.157 238.81H127.887V242.86H130.947V245.05H127.887V254.62C127.887 256.3 128.007 256.72 129.567 256.72H130.947V259H128.967C125.877 259 125.157 258.31 125.157 254.95V245.05H122.607V242.86H125.157V238.81ZM155.682 250.99C155.682 256.84 151.692 259.39 147.942 259.39C144.192 259.39 140.202 256.84 140.202 250.99C140.202 245.14 144.192 242.59 147.942 242.59C151.692 242.59 155.682 245.14 155.682 250.99ZM147.942 256.99C150.402 256.99 152.772 255.13 152.772 250.99C152.772 246.7 150.402 244.99 147.942 244.99C145.482 244.99 143.112 246.58 143.112 250.99C143.112 255.28 145.482 256.99 147.942 256.99ZM159.784 241.69C159.784 238.33 160.474 237.25 164.134 237.25H165.544V239.53H164.194C162.754 239.53 162.514 239.86 162.514 241.54V242.86H165.544V245.05H162.514V259H159.784V245.05H157.534V242.86H159.784V241.69ZM186.837 252.91C186.837 249.79 184.047 248.77 180.567 248.77H180.117V246.28H180.477C184.257 246.28 186.267 245.23 186.267 242.68C186.267 240.34 184.347 239.14 182.037 239.14C179.127 239.14 177.537 240.91 177.297 243.37H174.477C174.807 239.53 177.537 236.86 182.097 236.86C185.877 236.86 189.147 238.36 189.147 242.38C189.147 244.6 187.887 246.49 185.607 247.42C188.847 248.44 189.747 250.6 189.747 252.88C189.747 257.26 186.027 259.39 181.887 259.39C176.787 259.39 174.447 256.21 174.147 252.58H176.967C177.267 255.25 178.857 257.11 181.917 257.11C184.797 257.11 186.837 255.61 186.837 252.91ZM192.429 259V255.55H195.879V259H192.429ZM200.891 247.54C201.881 245.83 203.741 244.51 206.621 244.51C210.671 244.51 213.641 247.54 213.641 251.89C213.641 255.94 210.641 259.39 205.991 259.39C200.561 259.39 198.071 255.61 198.071 248.89C198.071 242.74 200.261 236.86 206.561 236.86C210.821 236.86 212.831 239.53 213.281 242.29H210.311C209.951 240.34 208.451 239.14 206.231 239.14C202.871 239.14 201.041 242.5 200.891 247.54ZM205.961 257.11C208.751 257.11 210.731 255.01 210.731 252.04C210.731 249.07 208.781 246.88 205.991 246.88C203.141 246.88 201.221 249.07 201.221 252.04C201.221 255.04 203.081 257.11 205.961 257.11ZM227.097 259H224.367V242.86H227.097V245.29C228.027 243.76 229.527 242.59 231.957 242.59C234.417 242.59 235.887 243.67 236.607 245.44C237.897 243.46 239.787 242.59 242.037 242.59C245.787 242.59 247.257 245.11 247.257 248.8V259H244.527V249.61C244.527 247.12 244.047 244.96 241.077 244.96C238.737 244.96 237.177 246.79 237.177 250.24V259H234.447V249.61C234.447 247.12 233.967 244.96 230.997 244.96C228.657 244.96 227.097 246.79 227.097 250.24V259ZM254.079 237.25V240.55H251.349V237.25H254.079ZM254.079 242.86V259H251.349V242.86H254.079ZM261.14 259H258.41V237.25H261.14V259ZM268.201 259H265.471V237.25H268.201V259ZM275.261 237.25V240.55H272.531V237.25H275.261ZM275.261 242.86V259H272.531V242.86H275.261ZM294.022 250.99C294.022 256.84 290.032 259.39 286.282 259.39C282.532 259.39 278.542 256.84 278.542 250.99C278.542 245.14 282.532 242.59 286.282 242.59C290.032 242.59 294.022 245.14 294.022 250.99ZM286.282 256.99C288.742 256.99 291.112 255.13 291.112 250.99C291.112 246.7 288.742 244.99 286.282 244.99C283.822 244.99 281.452 246.58 281.452 250.99C281.452 255.28 283.822 256.99 286.282 256.99ZM300.017 245.29C300.947 243.76 302.507 242.59 305.237 242.59C309.137 242.59 310.547 245.11 310.547 248.8V259H307.817V249.61C307.817 247.12 307.397 244.96 304.277 244.96C301.637 244.96 300.017 246.79 300.017 250.24V259H297.287V242.86H300.017V245.29ZM327 255.22L331.38 242.86H334.2L328.11 259H325.68L319.59 242.86H322.62L327 255.22ZM339.099 237.25V240.55H336.369V237.25H339.099ZM339.099 242.86V259H336.369V242.86H339.099ZM352.67 247.57C352.25 245.65 350.75 244.9 348.86 244.9C347.27 244.9 345.47 245.47 345.47 246.94C345.47 248.23 346.37 248.83 347.93 249.13L350.21 249.58C353.15 250.15 355.73 251.26 355.73 254.38C355.73 257.56 352.85 259.39 349.16 259.39C344.93 259.39 342.53 256.6 342.23 253.78H345.11C345.53 255.85 346.82 257.08 349.22 257.08C351.29 257.08 352.97 256.18 352.97 254.68C352.97 253.06 351.44 252.37 349.7 252.01L347.3 251.53C345.11 251.08 342.71 250.06 342.71 247.06C342.71 244.21 345.59 242.56 349.16 242.56C352.64 242.56 355.01 244.51 355.52 247.57H352.67ZM361.921 237.25V240.55H359.191V237.25H361.921ZM361.921 242.86V259H359.191V242.86H361.921ZM367.032 238.81H369.762V242.86H372.822V245.05H369.762V254.62C369.762 256.3 369.882 256.72 371.442 256.72H372.822V259H370.842C367.752 259 367.032 258.31 367.032 254.95V245.05H364.482V242.86H367.032V238.81ZM390.291 250.99C390.291 256.84 386.301 259.39 382.551 259.39C378.801 259.39 374.811 256.84 374.811 250.99C374.811 245.14 378.801 242.59 382.551 242.59C386.301 242.59 390.291 245.14 390.291 250.99ZM382.551 256.99C385.011 256.99 387.381 255.13 387.381 250.99C387.381 246.7 385.011 244.99 382.551 244.99C380.091 244.99 377.721 246.58 377.721 250.99C377.721 255.28 380.091 256.99 382.551 256.99ZM401.596 245.71C401.026 245.65 400.516 245.59 400.066 245.59C397.546 245.59 396.286 247 396.286 250.54V259H393.556V242.86H396.226V245.68C397.036 243.85 398.686 242.83 400.786 242.77C401.056 242.77 401.296 242.77 401.596 242.8V245.71ZM413.314 247.57C412.894 245.65 411.394 244.9 409.504 244.9C407.914 244.9 406.114 245.47 406.114 246.94C406.114 248.23 407.014 248.83 408.574 249.13L410.854 249.58C413.794 250.15 416.374 251.26 416.374 254.38C416.374 257.56 413.494 259.39 409.804 259.39C405.574 259.39 403.174 256.6 402.874 253.78H405.754C406.174 255.85 407.464 257.08 409.864 257.08C411.934 257.08 413.614 256.18 413.614 254.68C413.614 253.06 412.084 252.37 410.344 252.01L407.944 251.53C405.754 251.08 403.354 250.06 403.354 247.06C403.354 244.21 406.234 242.56 409.804 242.56C413.284 242.56 415.654 244.51 416.164 247.57H413.314Z" fill="#212121"/>
<path d="M54.72 52.26H50V50.5H61.48V52.26H56.76V65H54.72V52.26ZM66.6828 56.14C66.3028 56.1 65.9628 56.06 65.6628 56.06C63.9828 56.06 63.1428 57 63.1428 59.36V65H61.3228V54.24H63.1028V56.12C63.6428 54.9 64.7428 54.22 66.1428 54.18C66.3228 54.18 66.4828 54.18 66.6828 54.2V56.14ZM67.4016 62.16C67.4016 59.62 70.2616 58.88 74.6816 58.38V58.12C74.6816 56.16 73.5816 55.5 72.2416 55.5C70.7416 55.5 69.8616 56.32 69.7816 57.64H67.9016C68.0816 55.32 70.1216 54.02 72.2216 54.02C75.1816 54.02 76.5216 55.44 76.5016 58.46L76.4816 60.94C76.4616 62.74 76.5616 63.98 76.7616 65H74.9216C74.8616 64.6 74.8016 64.16 74.7816 63.52C74.1216 64.62 73.0016 65.26 71.1016 65.26C69.0816 65.26 67.4016 64.14 67.4016 62.16ZM74.8216 59.82C71.5216 60.16 69.4216 60.64 69.4216 62.12C69.4216 63.14 70.2016 63.82 71.5016 63.82C73.2016 63.82 74.8216 63.04 74.8216 60.5V59.82ZM86.5934 50.5H88.4134V65H86.5934V63.38C85.9334 64.52 84.7934 65.26 83.0734 65.26C80.6134 65.26 78.4734 63.22 78.4734 59.66C78.4734 56.12 80.6134 54.06 83.0734 54.06C84.7934 54.06 85.9334 54.8 86.5934 55.94V50.5ZM83.5334 55.62C81.6734 55.62 80.4534 57.1 80.4534 59.66C80.4534 62.22 81.6734 63.7 83.5334 63.7C85.1534 63.7 86.6734 62.5 86.6734 59.66C86.6734 56.82 85.1534 55.62 83.5334 55.62ZM93.1038 50.5V52.7H91.2838V50.5H93.1038ZM93.1038 54.24V65H91.2838V54.24H93.1038ZM97.8108 55.86C98.4308 54.84 99.4708 54.06 101.291 54.06C103.891 54.06 104.831 55.74 104.831 58.2V65H103.011V58.74C103.011 57.08 102.731 55.64 100.651 55.64C98.8908 55.64 97.8108 56.86 97.8108 59.16V65H95.9908V54.24H97.8108V55.86ZM114.793 54.24H116.613V63.56C116.613 65.76 116.213 66.66 115.593 67.34C114.813 68.24 113.473 68.76 111.873 68.76C109.433 68.76 107.793 67.64 107.453 65.46H109.393C109.633 66.42 110.213 67.16 111.893 67.16C112.873 67.16 113.613 66.88 114.093 66.36C114.493 65.94 114.793 65.44 114.793 63.98V62.96C114.133 64.1 113.093 64.82 111.373 64.82C108.993 64.82 106.813 62.9 106.813 59.44C106.813 56 108.993 54.06 111.373 54.06C113.093 54.06 114.133 54.8 114.793 55.94V54.24ZM111.833 55.62C110.053 55.62 108.793 57 108.793 59.44C108.793 61.9 110.053 63.28 111.833 63.28C113.453 63.28 114.873 62.18 114.873 59.44C114.873 56.72 113.453 55.62 111.833 55.62ZM124.513 50.5H134.353V52.26H126.553V56.66H133.893V58.42H126.553V63.24H134.353V65H124.513V50.5ZM145.849 57.84H144.009C143.749 56.56 142.629 55.66 141.229 55.66C139.609 55.66 138.129 56.92 138.129 59.62C138.129 62.36 139.629 63.66 141.229 63.66C142.749 63.66 143.829 62.64 144.089 61.5H145.969C145.609 63.52 143.669 65.26 141.169 65.26C138.089 65.26 136.149 62.92 136.149 59.64C136.149 56.44 138.169 54.06 141.349 54.06C143.949 54.06 145.609 56.02 145.849 57.84ZM157.74 59.66C157.74 63.56 155.08 65.26 152.58 65.26C150.08 65.26 147.42 63.56 147.42 59.66C147.42 55.76 150.08 54.06 152.58 54.06C155.08 54.06 157.74 55.76 157.74 59.66ZM152.58 63.66C154.22 63.66 155.8 62.42 155.8 59.66C155.8 56.8 154.22 55.66 152.58 55.66C150.94 55.66 149.36 56.72 149.36 59.66C149.36 62.52 150.94 63.66 152.58 63.66ZM161.737 55.86C162.357 54.84 163.397 54.06 165.217 54.06C167.817 54.06 168.757 55.74 168.757 58.2V65H166.937V58.74C166.937 57.08 166.657 55.64 164.577 55.64C162.817 55.64 161.737 56.86 161.737 59.16V65H159.917V54.24H161.737V55.86ZM181.099 59.66C181.099 63.56 178.439 65.26 175.939 65.26C173.439 65.26 170.779 63.56 170.779 59.66C170.779 55.76 173.439 54.06 175.939 54.06C178.439 54.06 181.099 55.76 181.099 59.66ZM175.939 63.66C177.579 63.66 179.159 62.42 179.159 59.66C179.159 56.8 177.579 55.66 175.939 55.66C174.299 55.66 172.719 56.72 172.719 59.66C172.719 62.52 174.299 63.66 175.939 63.66ZM185.096 65H183.276V54.24H185.096V55.86C185.716 54.84 186.716 54.06 188.336 54.06C189.976 54.06 190.956 54.78 191.436 55.96C192.296 54.64 193.556 54.06 195.056 54.06C197.556 54.06 198.536 55.74 198.536 58.2V65H196.716V58.74C196.716 57.08 196.396 55.64 194.416 55.64C192.856 55.64 191.816 56.86 191.816 59.16V65H189.996V58.74C189.996 57.08 189.676 55.64 187.696 55.64C186.136 55.64 185.096 56.86 185.096 59.16V65ZM203.084 50.5V52.7H201.264V50.5H203.084ZM203.084 54.24V65H201.264V54.24H203.084ZM214.931 57.84H213.091C212.831 56.56 211.711 55.66 210.311 55.66C208.691 55.66 207.211 56.92 207.211 59.62C207.211 62.36 208.711 63.66 210.311 63.66C211.831 63.66 212.911 62.64 213.171 61.5H215.051C214.691 63.52 212.751 65.26 210.251 65.26C207.171 65.26 205.231 62.92 205.231 59.64C205.231 56.44 207.251 54.06 210.431 54.06C213.031 54.06 214.691 56.02 214.931 57.84ZM223.362 57.38C223.082 56.1 222.082 55.6 220.822 55.6C219.762 55.6 218.562 55.98 218.562 56.96C218.562 57.82 219.162 58.22 220.202 58.42L221.722 58.72C223.682 59.1 225.402 59.84 225.402 61.92C225.402 64.04 223.482 65.26 221.022 65.26C218.202 65.26 216.602 63.4 216.402 61.52H218.322C218.602 62.9 219.462 63.72 221.062 63.72C222.442 63.72 223.562 63.12 223.562 62.12C223.562 61.04 222.542 60.58 221.382 60.34L219.782 60.02C218.322 59.72 216.722 59.04 216.722 57.04C216.722 55.14 218.642 54.04 221.022 54.04C223.342 54.04 224.922 55.34 225.262 57.38H223.362Z" fill="#212121"/>
<rect x="233.5" y="50.5" width="14" height="14" rx="2.5" stroke="black"/>
<rect x="242.955" y="54.3447" width="1" height="8.73344" transform="rotate(45 242.955 54.3447)" fill="#181D1F"/>
<rect x="237" y="55" width="1" height="7" transform="rotate(-90 237 55)" fill="#181D1F"/>
<rect x="244" y="61" width="1" height="7" transform="rotate(180 244 61)" fill="#181D1F"/>
<path opacity="0.5" d="M52.88 400V390.928H50.192V389.936C51.856 389.872 52.704 389.664 53.344 388.4H54.336V400H52.88ZM59.0831 400V390.928H56.3951V389.936C58.0591 389.872 58.9071 389.664 59.5471 388.4H60.5391V400H59.0831ZM71.7146 388.4H73.3466V396.32C73.3466 398.848 71.9706 400.208 69.6986 400.208C67.4426 400.208 66.0666 398.928 66.0666 396.416H67.5866C67.5866 398.032 68.5466 398.88 69.6986 398.88C70.6426 398.88 71.7146 398.4 71.7146 396.304V388.4ZM77.5508 388.4V395.456C77.5508 397.728 78.3668 398.8 80.5428 398.8C82.7668 398.8 83.5828 397.568 83.5828 395.28V388.4H85.2148V395.152C85.2148 398.544 83.9188 400.208 80.5428 400.208C77.3268 400.208 75.9188 398.896 75.9188 395.28V388.4H77.5508ZM94.7419 400L89.4299 390.096V400H87.7979V388.4H90.1979L95.4939 398.272V388.4H97.1259V400H94.7419ZM99.876 388.4H107.748V389.808H101.508V393.328H107.38V394.736H101.508V398.592H107.748V400H99.876V388.4ZM120.621 391.232C120.621 393.92 117.821 396.304 114.573 398.64H120.941V400H112.589V398.688C116.685 395.664 119.085 393.472 119.085 391.424C119.085 390.224 118.285 389.408 116.909 389.408C115.661 389.408 114.445 390.096 114.413 392.016H112.909C112.877 389.712 114.477 388.192 116.941 388.192C119.085 388.192 120.621 389.28 120.621 391.232ZM126.827 400.208C123.739 400.208 122.315 397.872 122.315 394.192C122.315 390.528 123.739 388.192 126.827 388.192C129.915 388.192 131.339 390.528 131.339 394.192C131.339 397.872 129.915 400.208 126.827 400.208ZM126.827 389.408C125.003 389.408 123.867 390.976 123.867 394.192C123.867 397.424 125.003 398.992 126.827 398.992C128.651 398.992 129.787 397.424 129.787 394.192C129.787 390.976 128.651 389.408 126.827 389.408ZM140.637 391.232C140.637 393.92 137.837 396.304 134.589 398.64H140.957V400H132.605V398.688C136.701 395.664 139.101 393.472 139.101 391.424C139.101 390.224 138.301 389.408 136.925 389.408C135.677 389.408 134.461 390.096 134.429 392.016H132.925C132.893 389.712 134.493 388.192 136.957 388.192C139.101 388.192 140.637 389.28 140.637 391.232ZM148.699 396.752C148.699 395.088 147.211 394.544 145.355 394.544H145.115V393.216H145.307C147.323 393.216 148.395 392.656 148.395 391.296C148.395 390.048 147.371 389.408 146.139 389.408C144.587 389.408 143.739 390.352 143.611 391.664H142.107C142.283 389.616 143.739 388.192 146.171 388.192C148.187 388.192 149.931 388.992 149.931 391.136C149.931 392.32 149.259 393.328 148.043 393.824C149.771 394.368 150.251 395.52 150.251 396.736C150.251 399.072 148.267 400.208 146.059 400.208C143.339 400.208 142.09 398.512 141.931 396.576H143.435C143.595 398 144.443 398.992 146.075 398.992C147.611 398.992 148.699 398.192 148.699 396.752Z" fill="#212121"/>
</svg>
