<svg width="520" height="450" viewBox="0 0 520 450" fill="none" xmlns="http://www.w3.org/2000/svg">
<rect width="520" height="450" rx="40" fill="#F2F2F2"/>
<path d="M52.58 131.25H60.41C64.46 131.25 68.06 132.3 68.06 136.62C68.06 138.69 67.16 140.55 65.66 141.42C67.73 142.29 68.96 143.91 68.96 146.58C68.96 151.2 65.51 153 61.16 153H52.58V131.25ZM55.64 140.55H60.89C63.38 140.55 64.97 139.59 64.97 137.04C64.97 134.82 63.32 133.83 60.89 133.83H55.64V140.55ZM55.64 150.42H61.19C64.28 150.42 65.81 149.07 65.81 146.61C65.81 144.06 64.28 142.98 61.01 142.98H55.64V150.42ZM71.3563 148.74C71.3563 144.93 75.6463 143.82 82.2763 143.07V142.68C82.2763 139.74 80.6263 138.75 78.6163 138.75C76.3663 138.75 75.0463 139.98 74.9263 141.96H72.1063C72.3763 138.48 75.4363 136.53 78.5863 136.53C83.0263 136.53 85.0363 138.66 85.0063 143.19L84.9763 146.91C84.9463 149.61 85.0963 151.47 85.3963 153H82.6363C82.5463 152.4 82.4563 151.74 82.4263 150.78C81.4363 152.43 79.7563 153.39 76.9063 153.39C73.8763 153.39 71.3563 151.71 71.3563 148.74ZM82.4863 145.23C77.5363 145.74 74.3863 146.46 74.3863 148.68C74.3863 150.21 75.5563 151.23 77.5063 151.23C80.0563 151.23 82.4863 150.06 82.4863 146.25V145.23ZM91.8041 153H89.0741V131.25H91.8041V153ZM98.8646 131.25V134.55H96.1346V131.25H98.8646ZM98.8646 136.86V153H96.1346V136.86H98.8646ZM128.794 137.58H125.824C125.104 135.15 123.124 133.44 119.644 133.44C115.804 133.44 112.804 136.44 112.804 142.08C112.804 147.57 115.624 150.81 119.644 150.81C122.554 150.81 126.064 149.61 126.064 145.11V144.54H120.304V141.9H128.944V153H126.544L126.394 150.27C124.984 152.49 122.434 153.39 119.524 153.39C113.254 153.39 109.684 148.71 109.684 142.08C109.684 135.33 113.674 130.86 119.794 130.86C124.294 130.86 127.894 133.38 128.794 137.58ZM139.76 131.25C146.66 131.25 151.61 133.83 151.61 142.11C151.61 150.42 146.66 153 139.76 153H133.82V131.25H139.76ZM139.67 133.83H136.88V150.42H139.67C144.17 150.42 148.49 149.52 148.49 142.11C148.49 134.73 144.17 133.83 139.67 133.83ZM162.544 131.25C167.854 131.25 171.574 132.45 171.574 137.82C171.574 143.22 167.854 144.39 162.544 144.39H158.794V153H155.734V131.25H162.544ZM158.794 133.83V141.72H162.784C165.964 141.72 168.454 141.39 168.454 137.82C168.454 134.28 165.964 133.83 162.784 133.83H158.794ZM184.236 131.25V134.55H181.506V131.25H184.236ZM184.236 136.86V153H181.506V136.86H184.236ZM197.806 141.57C197.386 139.65 195.886 138.9 193.996 138.9C192.406 138.9 190.606 139.47 190.606 140.94C190.606 142.23 191.506 142.83 193.066 143.13L195.346 143.58C198.286 144.15 200.866 145.26 200.866 148.38C200.866 151.56 197.986 153.39 194.296 153.39C190.066 153.39 187.666 150.6 187.366 147.78H190.246C190.666 149.85 191.956 151.08 194.356 151.08C196.426 151.08 198.106 150.18 198.106 148.68C198.106 147.06 196.576 146.37 194.836 146.01L192.436 145.53C190.246 145.08 187.846 144.06 187.846 141.06C187.846 138.21 190.726 136.56 194.296 136.56C197.776 136.56 200.146 138.51 200.656 141.57H197.806ZM221.437 150.69C220.507 152.22 219.037 153.39 216.367 153.39C212.617 153.39 211.207 150.87 211.207 147.18V136.86H213.937V146.37C213.937 148.86 214.357 151.02 217.327 151.02C219.907 151.02 221.437 149.19 221.437 145.74V136.86H224.167V153H221.437V150.69ZM231.228 136.86V139.41C232.218 137.7 233.928 136.59 236.508 136.59C240.198 136.59 243.408 139.68 243.408 144.99C243.408 150.33 240.198 153.39 236.508 153.39C233.928 153.39 232.218 152.28 231.228 150.57V158.25H228.498V136.86H231.228ZM235.818 151.05C238.608 151.05 240.438 148.83 240.438 144.99C240.438 141.15 238.608 138.93 235.818 138.93C233.388 138.93 231.108 140.73 231.108 144.99C231.108 149.25 233.388 151.05 235.818 151.05ZM256.963 153V135.99H251.923V134.13C255.043 134.01 256.633 133.62 257.833 131.25H259.693V153H256.963ZM272.507 153.39C266.717 153.39 264.047 149.01 264.047 142.11C264.047 135.24 266.717 130.86 272.507 130.86C278.297 130.86 280.967 135.24 280.967 142.11C280.967 149.01 278.297 153.39 272.507 153.39ZM272.507 133.14C269.087 133.14 266.957 136.08 266.957 142.11C266.957 148.17 269.087 151.11 272.507 151.11C275.927 151.11 278.057 148.17 278.057 142.11C278.057 136.08 275.927 133.14 272.507 133.14ZM283.551 137.37C283.551 133.65 285.201 131.04 288.441 131.04C291.741 131.04 293.391 133.65 293.391 137.37C293.391 141.09 291.741 143.7 288.441 143.7C285.201 143.7 283.551 141.09 283.551 137.37ZM288.411 153L303.411 131.25H306.441L291.441 153H288.411ZM291.111 137.37C291.111 134.37 290.181 132.66 288.441 132.66C286.761 132.66 285.831 134.37 285.831 137.37C285.831 140.34 286.761 142.05 288.441 142.05C290.181 142.05 291.111 140.34 291.111 137.37ZM301.551 146.88C301.551 143.16 303.201 140.55 306.441 140.55C309.741 140.55 311.391 143.16 311.391 146.88C311.391 150.6 309.741 153.21 306.441 153.21C303.201 153.21 301.551 150.6 301.551 146.88ZM309.111 146.88C309.111 143.88 308.181 142.17 306.441 142.17C304.761 142.17 303.831 143.88 303.831 146.88C303.831 149.85 304.761 151.56 306.441 151.56C308.181 151.56 309.111 149.85 309.111 146.88ZM324.392 131.25V134.55H321.662V131.25H324.392ZM324.392 136.86V153H321.662V136.86H324.392ZM331.453 139.29C332.383 137.76 333.943 136.59 336.673 136.59C340.573 136.59 341.982 139.11 341.982 142.8V153H339.253V143.61C339.253 141.12 338.833 138.96 335.713 138.96C333.073 138.96 331.453 140.79 331.453 144.24V153H328.723V136.86H331.453V139.29ZM366.985 136.56C366.985 141.6 361.735 146.07 355.645 150.45H367.585V153H351.925V150.54C359.605 144.87 364.105 140.76 364.105 136.92C364.105 134.67 362.605 133.14 360.025 133.14C357.685 133.14 355.405 134.43 355.345 138.03H352.525C352.465 133.71 355.465 130.86 360.085 130.86C364.105 130.86 366.985 132.9 366.985 136.56ZM378.621 153.39C372.831 153.39 370.161 149.01 370.161 142.11C370.161 135.24 372.831 130.86 378.621 130.86C384.411 130.86 387.081 135.24 387.081 142.11C387.081 149.01 384.411 153.39 378.621 153.39ZM378.621 133.14C375.201 133.14 373.071 136.08 373.071 142.11C373.071 148.17 375.201 151.11 378.621 151.11C382.041 151.11 384.171 148.17 384.171 142.11C384.171 136.08 382.041 133.14 378.621 133.14ZM404.515 136.56C404.515 141.6 399.265 146.07 393.175 150.45H405.115V153H389.455V150.54C397.135 144.87 401.635 140.76 401.635 136.92C401.635 134.67 400.135 133.14 397.555 133.14C395.215 133.14 392.935 134.43 392.875 138.03H390.055C389.995 133.71 392.995 130.86 397.615 130.86C401.635 130.86 404.515 132.9 404.515 136.56ZM422.21 136.56C422.21 141.6 416.96 146.07 410.87 150.45H422.81V153H407.15V150.54C414.83 144.87 419.33 140.76 419.33 136.92C419.33 134.67 417.83 133.14 415.25 133.14C412.91 133.14 410.63 134.43 410.57 138.03H407.75C407.69 133.71 410.69 130.86 415.31 130.86C419.33 130.86 422.21 132.9 422.21 136.56ZM51.2 190.74C51.2 186.93 55.49 185.82 62.12 185.07V184.68C62.12 181.74 60.47 180.75 58.46 180.75C56.21 180.75 54.89 181.98 54.77 183.96H51.95C52.22 180.48 55.28 178.53 58.43 178.53C62.87 178.53 64.88 180.66 64.85 185.19L64.82 188.91C64.79 191.61 64.94 193.47 65.24 195H62.48C62.39 194.4 62.3 193.74 62.27 192.78C61.28 194.43 59.6 195.39 56.75 195.39C53.72 195.39 51.2 193.71 51.2 190.74ZM62.33 187.23C57.38 187.74 54.23 188.46 54.23 190.68C54.23 192.21 55.4 193.23 57.35 193.23C59.9 193.23 62.33 192.06 62.33 188.25V187.23ZM71.6478 181.29C72.5778 179.76 74.1378 178.59 76.8678 178.59C80.7678 178.59 82.1778 181.11 82.1778 184.8V195H79.4478V185.61C79.4478 183.12 79.0278 180.96 75.9078 180.96C73.2678 180.96 71.6478 182.79 71.6478 186.24V195H68.9178V178.86H71.6478V181.29ZM97.3316 173.25H100.062V195H97.3316V192.57C96.3416 194.28 94.6316 195.39 92.0516 195.39C88.3616 195.39 85.1516 192.33 85.1516 186.99C85.1516 181.68 88.3616 178.59 92.0516 178.59C94.6316 178.59 96.3416 179.7 97.3316 181.41V173.25ZM92.7416 180.93C89.9516 180.93 88.1216 183.15 88.1216 186.99C88.1216 190.83 89.9516 193.05 92.7416 193.05C95.1716 193.05 97.4516 191.25 97.4516 186.99C97.4516 182.73 95.1716 180.93 92.7416 180.93ZM124.926 184.26H122.166C121.776 182.34 120.096 180.99 117.996 180.99C115.566 180.99 113.346 182.88 113.346 186.93C113.346 191.04 115.596 192.99 117.996 192.99C120.276 192.99 121.896 191.46 122.286 189.75H125.106C124.566 192.78 121.656 195.39 117.906 195.39C113.286 195.39 110.376 191.88 110.376 186.96C110.376 182.16 113.406 178.59 118.176 178.59C122.076 178.59 124.566 181.53 124.926 184.26ZM142.762 186.99C142.762 192.84 138.772 195.39 135.022 195.39C131.272 195.39 127.282 192.84 127.282 186.99C127.282 181.14 131.272 178.59 135.022 178.59C138.772 178.59 142.762 181.14 142.762 186.99ZM135.022 192.99C137.482 192.99 139.852 191.13 139.852 186.99C139.852 182.7 137.482 180.99 135.022 180.99C132.562 180.99 130.192 182.58 130.192 186.99C130.192 191.28 132.562 192.99 135.022 192.99ZM148.757 181.29C149.687 179.76 151.247 178.59 153.977 178.59C157.877 178.59 159.287 181.11 159.287 184.8V195H156.557V185.61C156.557 183.12 156.137 180.96 153.017 180.96C150.377 180.96 148.757 182.79 148.757 186.24V195H146.027V178.86H148.757V181.29ZM164.151 174.81H166.881V178.86H169.941V181.05H166.881V190.62C166.881 192.3 167.001 192.72 168.561 192.72H169.941V195H167.961C164.871 195 164.151 194.31 164.151 190.95V181.05H161.601V178.86H164.151V174.81ZM176.15 173.25V176.55H173.42V173.25H176.15ZM176.15 178.86V195H173.42V178.86H176.15ZM183.21 181.29C184.14 179.76 185.7 178.59 188.43 178.59C192.33 178.59 193.74 181.11 193.74 184.8V195H191.01V185.61C191.01 183.12 190.59 180.96 187.47 180.96C184.83 180.96 183.21 182.79 183.21 186.24V195H180.48V178.86H183.21V181.29ZM207.814 192.69C206.884 194.22 205.414 195.39 202.744 195.39C198.994 195.39 197.584 192.87 197.584 189.18V178.86H200.314V188.37C200.314 190.86 200.734 193.02 203.704 193.02C206.284 193.02 207.814 191.19 207.814 187.74V178.86H210.544V195H207.814V192.69ZM216.705 187.83C216.825 191.31 219.285 192.99 221.685 192.99C224.085 192.99 225.405 191.91 226.095 190.32H228.915C228.165 193.11 225.615 195.39 221.685 195.39C216.585 195.39 213.765 191.73 213.765 186.96C213.765 181.86 217.185 178.59 221.595 178.59C226.515 178.59 229.485 182.73 229.125 187.83H216.705ZM216.735 185.49H226.245C226.185 183.21 224.475 180.93 221.595 180.93C219.165 180.93 216.975 182.25 216.735 185.49ZM241.605 183.57C241.185 181.65 239.685 180.9 237.795 180.9C236.205 180.9 234.405 181.47 234.405 182.94C234.405 184.23 235.305 184.83 236.865 185.13L239.145 185.58C242.085 186.15 244.665 187.26 244.665 190.38C244.665 193.56 241.785 195.39 238.095 195.39C233.865 195.39 231.465 192.6 231.165 189.78H234.045C234.465 191.85 235.755 193.08 238.155 193.08C240.225 193.08 241.905 192.18 241.905 190.68C241.905 189.06 240.375 188.37 238.635 188.01L236.235 187.53C234.045 187.08 231.645 186.06 231.645 183.06C231.645 180.21 234.525 178.56 238.095 178.56C241.575 178.56 243.945 180.51 244.455 183.57H241.605ZM256.026 174.81H258.756V178.86H261.816V181.05H258.756V190.62C258.756 192.3 258.876 192.72 260.436 192.72H261.816V195H259.836C256.746 195 256.026 194.31 256.026 190.95V181.05H253.476V178.86H256.026V174.81ZM279.285 186.99C279.285 192.84 275.295 195.39 271.545 195.39C267.795 195.39 263.805 192.84 263.805 186.99C263.805 181.14 267.795 178.59 271.545 178.59C275.295 178.59 279.285 181.14 279.285 186.99ZM271.545 192.99C274.005 192.99 276.375 191.13 276.375 186.99C276.375 182.7 274.005 180.99 271.545 180.99C269.085 180.99 266.715 182.58 266.715 186.99C266.715 191.28 269.085 192.99 271.545 192.99ZM298.91 183.57C298.49 181.65 296.99 180.9 295.1 180.9C293.51 180.9 291.71 181.47 291.71 182.94C291.71 184.23 292.61 184.83 294.17 185.13L296.45 185.58C299.39 186.15 301.97 187.26 301.97 190.38C301.97 193.56 299.09 195.39 295.4 195.39C291.17 195.39 288.77 192.6 288.47 189.78H291.35C291.77 191.85 293.06 193.08 295.46 193.08C297.53 193.08 299.21 192.18 299.21 190.68C299.21 189.06 297.68 188.37 295.94 188.01L293.54 187.53C291.35 187.08 288.95 186.06 288.95 183.06C288.95 180.21 291.83 178.56 295.4 178.56C298.88 178.56 301.25 180.51 301.76 183.57H298.91ZM318.871 184.26H316.111C315.721 182.34 314.041 180.99 311.941 180.99C309.511 180.99 307.291 182.88 307.291 186.93C307.291 191.04 309.541 192.99 311.941 192.99C314.221 192.99 315.841 191.46 316.231 189.75H319.051C318.511 192.78 315.601 195.39 311.851 195.39C307.231 195.39 304.321 191.88 304.321 186.96C304.321 182.16 307.351 178.59 312.121 178.59C316.021 178.59 318.511 181.53 318.871 184.26ZM321.171 190.74C321.171 186.93 325.461 185.82 332.091 185.07V184.68C332.091 181.74 330.441 180.75 328.431 180.75C326.181 180.75 324.861 181.98 324.741 183.96H321.921C322.191 180.48 325.251 178.53 328.401 178.53C332.841 178.53 334.851 180.66 334.821 185.19L334.791 188.91C334.761 191.61 334.911 193.47 335.211 195H332.451C332.361 194.4 332.271 193.74 332.241 192.78C331.251 194.43 329.571 195.39 326.721 195.39C323.691 195.39 321.171 193.71 321.171 190.74ZM332.301 187.23C327.351 187.74 324.201 188.46 324.201 190.68C324.201 192.21 325.371 193.23 327.321 193.23C329.871 193.23 332.301 192.06 332.301 188.25V187.23ZM341.619 195H338.889V173.25H341.619V195ZM347.779 187.83C347.899 191.31 350.359 192.99 352.759 192.99C355.159 192.99 356.479 191.91 357.169 190.32H359.989C359.239 193.11 356.689 195.39 352.759 195.39C347.659 195.39 344.839 191.73 344.839 186.96C344.839 181.86 348.259 178.59 352.669 178.59C357.589 178.59 360.559 182.73 360.199 187.83H347.779ZM347.809 185.49H357.319C357.259 183.21 355.549 180.93 352.669 180.93C350.239 180.93 348.049 182.25 347.809 185.49ZM362.731 195V191.55H366.181V195H362.731Z" fill="#212121"/>
<path d="M51.72 50.5H56.94C59.64 50.5 62.04 51.2 62.04 54.08C62.04 55.46 61.44 56.7 60.44 57.28C61.82 57.86 62.64 58.94 62.64 60.72C62.64 63.8 60.34 65 57.44 65H51.72V50.5ZM53.76 56.7H57.26C58.92 56.7 59.98 56.06 59.98 54.36C59.98 52.88 58.88 52.22 57.26 52.22H53.76V56.7ZM53.76 63.28H57.46C59.52 63.28 60.54 62.38 60.54 60.74C60.54 59.04 59.52 58.32 57.34 58.32H53.76V63.28ZM64.2375 62.16C64.2375 59.62 67.0975 58.88 71.5175 58.38V58.12C71.5175 56.16 70.4175 55.5 69.0775 55.5C67.5775 55.5 66.6975 56.32 66.6175 57.64H64.7375C64.9175 55.32 66.9575 54.02 69.0575 54.02C72.0175 54.02 73.3575 55.44 73.3375 58.46L73.3175 60.94C73.2975 62.74 73.3975 63.98 73.5975 65H71.7575C71.6975 64.6 71.6375 64.16 71.6175 63.52C70.9575 64.62 69.8375 65.26 67.9375 65.26C65.9175 65.26 64.2375 64.14 64.2375 62.16ZM71.6575 59.82C68.3575 60.16 66.2575 60.64 66.2575 62.12C66.2575 63.14 67.0375 63.82 68.3375 63.82C70.0375 63.82 71.6575 63.04 71.6575 60.5V59.82ZM77.8694 55.86C78.4894 54.84 79.5294 54.06 81.3494 54.06C83.9494 54.06 84.8894 55.74 84.8894 58.2V65H83.0694V58.74C83.0694 57.08 82.7894 55.64 80.7094 55.64C78.9494 55.64 77.8694 56.86 77.8694 59.16V65H76.0494V54.24H77.8694V55.86ZM89.4319 50.5V59.08L93.7719 54.24H96.0119L91.9119 58.7L96.5719 65H94.3519L90.6919 60.04L89.4319 61.4V65H87.6119V50.5H89.4319ZM104.776 65H102.736V50.5H104.776V65ZM109.764 55.86C110.384 54.84 111.424 54.06 113.244 54.06C115.844 54.06 116.784 55.74 116.784 58.2V65H114.964V58.74C114.964 57.08 114.684 55.64 112.604 55.64C110.844 55.64 109.764 56.86 109.764 59.16V65H107.944V54.24H109.764V55.86ZM126.886 50.5H128.706V65H126.886V63.38C126.226 64.52 125.086 65.26 123.366 65.26C120.906 65.26 118.766 63.22 118.766 59.66C118.766 56.12 120.906 54.06 123.366 54.06C125.086 54.06 126.226 54.8 126.886 55.94V50.5ZM123.826 55.62C121.966 55.62 120.746 57.1 120.746 59.66C120.746 62.22 121.966 63.7 123.826 63.7C125.446 63.7 126.966 62.5 126.966 59.66C126.966 56.82 125.446 55.62 123.826 55.62ZM141.197 59.66C141.197 63.56 138.537 65.26 136.037 65.26C133.537 65.26 130.877 63.56 130.877 59.66C130.877 55.76 133.537 54.06 136.037 54.06C138.537 54.06 141.197 55.76 141.197 59.66ZM136.037 63.66C137.677 63.66 139.257 62.42 139.257 59.66C139.257 56.8 137.677 55.66 136.037 55.66C134.397 55.66 132.817 56.72 132.817 59.66C132.817 62.52 134.397 63.66 136.037 63.66ZM145.194 55.86C145.814 54.84 146.854 54.06 148.674 54.06C151.274 54.06 152.214 55.74 152.214 58.2V65H150.394V58.74C150.394 57.08 150.114 55.64 148.034 55.64C146.274 55.64 145.194 56.86 145.194 59.16V65H143.374V54.24H145.194V55.86ZM156.156 60.22C156.236 62.54 157.876 63.66 159.476 63.66C161.076 63.66 161.956 62.94 162.416 61.88H164.296C163.796 63.74 162.096 65.26 159.476 65.26C156.076 65.26 154.196 62.82 154.196 59.64C154.196 56.24 156.476 54.06 159.416 54.06C162.696 54.06 164.676 56.82 164.436 60.22H156.156ZM156.176 58.66H162.516C162.476 57.14 161.336 55.62 159.416 55.62C157.796 55.62 156.336 56.5 156.176 58.66ZM172.756 57.38C172.476 56.1 171.476 55.6 170.216 55.6C169.156 55.6 167.956 55.98 167.956 56.96C167.956 57.82 168.556 58.22 169.596 58.42L171.116 58.72C173.076 59.1 174.796 59.84 174.796 61.92C174.796 64.04 172.876 65.26 170.416 65.26C167.596 65.26 165.996 63.4 165.796 61.52H167.716C167.996 62.9 168.856 63.72 170.456 63.72C171.836 63.72 172.956 63.12 172.956 62.12C172.956 61.04 171.936 60.58 170.776 60.34L169.176 60.02C167.716 59.72 166.116 59.04 166.116 57.04C166.116 55.14 168.036 54.04 170.416 54.04C172.736 54.04 174.316 55.34 174.656 57.38H172.756ZM178.924 50.5V52.7H177.104V50.5H178.924ZM178.924 54.24V65H177.104V54.24H178.924ZM181.171 62.16C181.171 59.62 184.031 58.88 188.451 58.38V58.12C188.451 56.16 187.351 55.5 186.011 55.5C184.511 55.5 183.631 56.32 183.551 57.64H181.671C181.851 55.32 183.891 54.02 185.991 54.02C188.951 54.02 190.291 55.44 190.271 58.46L190.251 60.94C190.231 62.74 190.331 63.98 190.531 65H188.691C188.631 64.6 188.571 64.16 188.551 63.52C187.891 64.62 186.771 65.26 184.871 65.26C182.851 65.26 181.171 64.14 181.171 62.16ZM188.591 59.82C185.291 60.16 183.191 60.64 183.191 62.12C183.191 63.14 183.971 63.82 185.271 63.82C186.971 63.82 188.591 63.04 188.591 60.5V59.82Z" fill="#212121"/>
<rect x="198.5" y="50.5" width="14" height="14" rx="2.5" stroke="black"/>
<rect x="207.955" y="54.3447" width="1" height="8.73344" transform="rotate(45 207.955 54.3447)" fill="#181D1F"/>
<rect x="202" y="55" width="1" height="7" transform="rotate(-90 202 55)" fill="#181D1F"/>
<rect x="209" y="61" width="1" height="7" transform="rotate(180 209 61)" fill="#181D1F"/>
<path opacity="0.5" d="M55.28 400.208C52.192 400.208 50.768 397.872 50.768 394.192C50.768 390.528 52.192 388.192 55.28 388.192C58.368 388.192 59.792 390.528 59.792 394.192C59.792 397.872 58.368 400.208 55.28 400.208ZM55.28 389.408C53.456 389.408 52.32 390.976 52.32 394.192C52.32 397.424 53.456 398.992 55.28 398.992C57.104 398.992 58.24 397.424 58.24 394.192C58.24 390.976 57.104 389.408 55.28 389.408ZM67.7141 396.752C67.7141 395.088 66.2261 394.544 64.3701 394.544H64.1301V393.216H64.3221C66.3381 393.216 67.4101 392.656 67.4101 391.296C67.4101 390.048 66.3861 389.408 65.1541 389.408C63.6021 389.408 62.7541 390.352 62.6261 391.664H61.1221C61.2981 389.616 62.7541 388.192 65.1861 388.192C67.2021 388.192 68.9461 388.992 68.9461 391.136C68.9461 392.32 68.2741 393.328 67.0581 393.824C68.7861 394.368 69.2661 395.52 69.2661 396.736C69.2661 399.072 67.2821 400.208 65.0741 400.208C62.3541 400.208 61.1061 398.512 60.9461 396.576H62.4501C62.6101 398 63.4581 398.992 65.0901 398.992C66.6261 398.992 67.7141 398.192 67.7141 396.752ZM79.9736 400L76.7736 389.888V400H75.1416V388.4H77.8776L80.8376 398.064L83.7976 388.4H86.5336V400H84.9016V389.888L81.7016 400H79.9736ZM92.2103 388.4H94.0983L98.4663 400H96.7063L95.7943 397.488H90.4663L89.5703 400H87.9062L92.2103 388.4ZM90.9623 396.096H95.2823L93.1063 390.048L90.9623 396.096ZM104.405 395.104C104.117 395.12 103.829 395.12 103.525 395.12H101.477V400H99.8448V388.4H103.525C106.357 388.4 108.357 388.96 108.357 391.744C108.357 393.584 107.477 394.464 106.053 394.848L108.741 400H106.917L104.405 395.104ZM101.477 389.776V393.744H103.653C105.349 393.744 106.677 393.568 106.677 391.776C106.677 389.984 105.349 389.776 103.653 389.776H101.477ZM120.276 396.304C119.764 398.864 117.764 400.208 115.252 400.208C111.924 400.208 109.988 397.712 109.988 394.176C109.988 390.576 112.1 388.192 115.38 388.192C117.78 388.192 119.716 389.616 120.212 392.096H118.628C118.276 390.656 117.156 389.568 115.3 389.568C113.252 389.568 111.652 391.168 111.652 394.176C111.652 397.104 113.188 398.832 115.348 398.832C117.188 398.832 118.324 397.792 118.692 396.304H120.276ZM131.517 388.4V400H129.885V394.736H123.789V400H122.157V388.4H123.789V393.328H129.885V388.4H131.517ZM145.2 391.232C145.2 393.92 142.4 396.304 139.152 398.64H145.52V400H137.168V398.688C141.264 395.664 143.664 393.472 143.664 391.424C143.664 390.224 142.864 389.408 141.488 389.408C140.24 389.408 139.024 390.096 138.992 392.016H137.488C137.456 389.712 139.056 388.192 141.52 388.192C143.664 388.192 145.2 389.28 145.2 391.232ZM151.405 400.208C148.317 400.208 146.893 397.872 146.893 394.192C146.893 390.528 148.317 388.192 151.405 388.192C154.493 388.192 155.917 390.528 155.917 394.192C155.917 397.872 154.493 400.208 151.405 400.208ZM151.405 389.408C149.581 389.408 148.445 390.976 148.445 394.192C148.445 397.424 149.581 398.992 151.405 398.992C153.229 398.992 154.365 397.424 154.365 394.192C154.365 390.976 153.229 389.408 151.405 389.408ZM165.215 391.232C165.215 393.92 162.415 396.304 159.167 398.64H165.535V400H157.183V398.688C161.279 395.664 163.679 393.472 163.679 391.424C163.679 390.224 162.879 389.408 161.503 389.408C160.255 389.408 159.039 390.096 159.007 392.016H157.503C157.471 389.712 159.071 388.192 161.535 388.192C163.679 388.192 165.215 389.28 165.215 391.232ZM173.277 396.752C173.277 395.088 171.789 394.544 169.933 394.544H169.693V393.216H169.885C171.901 393.216 172.973 392.656 172.973 391.296C172.973 390.048 171.949 389.408 170.717 389.408C169.165 389.408 168.317 390.352 168.189 391.664H166.685C166.861 389.616 168.317 388.192 170.749 388.192C172.765 388.192 174.509 388.992 174.509 391.136C174.509 392.32 173.837 393.328 172.621 393.824C174.349 394.368 174.829 395.52 174.829 396.736C174.829 399.072 172.845 400.208 170.637 400.208C167.917 400.208 166.669 398.512 166.509 396.576H168.013C168.173 398 169.021 398.992 170.653 398.992C172.189 398.992 173.277 398.192 173.277 396.752Z" fill="#212121"/>
</svg>
