<svg width="520" height="450" viewBox="0 0 520 450" fill="none" xmlns="http://www.w3.org/2000/svg">
<rect width="520" height="450" rx="40" fill="#F2F2F2"/>
<path d="M52.58 111.25H60.41C64.46 111.25 68.06 112.3 68.06 116.62C68.06 118.69 67.16 120.55 65.66 121.42C67.73 122.29 68.96 123.91 68.96 126.58C68.96 131.2 65.51 133 61.16 133H52.58V111.25ZM55.64 120.55H60.89C63.38 120.55 64.97 119.59 64.97 117.04C64.97 114.82 63.32 113.83 60.89 113.83H55.64V120.55ZM55.64 130.42H61.19C64.28 130.42 65.81 129.07 65.81 126.61C65.81 124.06 64.28 122.98 61.01 122.98H55.64V130.42ZM71.3563 128.74C71.3563 124.93 75.6463 123.82 82.2763 123.07V122.68C82.2763 119.74 80.6263 118.75 78.6163 118.75C76.3663 118.75 75.0463 119.98 74.9263 121.96H72.1063C72.3763 118.48 75.4363 116.53 78.5863 116.53C83.0263 116.53 85.0363 118.66 85.0063 123.19L84.9763 126.91C84.9463 129.61 85.0963 131.47 85.3963 133H82.6363C82.5463 132.4 82.4563 131.74 82.4263 130.78C81.4363 132.43 79.7563 133.39 76.9063 133.39C73.8763 133.39 71.3563 131.71 71.3563 128.74ZM82.4863 125.23C77.5363 125.74 74.3863 126.46 74.3863 128.68C74.3863 130.21 75.5563 131.23 77.5063 131.23C80.0563 131.23 82.4863 130.06 82.4863 126.25V125.23ZM91.8041 133H89.0741V111.25H91.8041V133ZM98.8646 111.25V114.55H96.1346V111.25H98.8646ZM98.8646 116.86V133H96.1346V116.86H98.8646ZM113.044 111.25V114.55H110.314V111.25H113.044ZM113.044 116.86V133H110.314V116.86H113.044ZM126.615 121.57C126.195 119.65 124.695 118.9 122.805 118.9C121.215 118.9 119.415 119.47 119.415 120.94C119.415 122.23 120.315 122.83 121.875 123.13L124.155 123.58C127.095 124.15 129.675 125.26 129.675 128.38C129.675 131.56 126.795 133.39 123.105 133.39C118.875 133.39 116.475 130.6 116.175 127.78H119.055C119.475 129.85 120.765 131.08 123.165 131.08C125.235 131.08 126.915 130.18 126.915 128.68C126.915 127.06 125.385 126.37 123.645 126.01L121.245 125.53C119.055 125.08 116.655 124.06 116.655 121.06C116.655 118.21 119.535 116.56 123.105 116.56C126.585 116.56 128.955 118.51 129.465 121.57H126.615ZM153.696 122.26H150.936C150.546 120.34 148.866 118.99 146.766 118.99C144.336 118.99 142.116 120.88 142.116 124.93C142.116 129.04 144.366 130.99 146.766 130.99C149.046 130.99 150.666 129.46 151.056 127.75H153.876C153.336 130.78 150.426 133.39 146.676 133.39C142.056 133.39 139.146 129.88 139.146 124.96C139.146 120.16 142.176 116.59 146.946 116.59C150.846 116.59 153.336 119.53 153.696 122.26ZM171.531 124.99C171.531 130.84 167.541 133.39 163.791 133.39C160.041 133.39 156.051 130.84 156.051 124.99C156.051 119.14 160.041 116.59 163.791 116.59C167.541 116.59 171.531 119.14 171.531 124.99ZM163.791 130.99C166.251 130.99 168.621 129.13 168.621 124.99C168.621 120.7 166.251 118.99 163.791 118.99C161.331 118.99 158.961 120.58 158.961 124.99C158.961 129.28 161.331 130.99 163.791 130.99ZM177.527 119.29C178.457 117.76 180.017 116.59 182.747 116.59C186.647 116.59 188.057 119.11 188.057 122.8V133H185.327V123.61C185.327 121.12 184.907 118.96 181.787 118.96C179.147 118.96 177.527 120.79 177.527 124.24V133H174.797V116.86H177.527V119.29ZM201.38 121.57C200.96 119.65 199.46 118.9 197.57 118.9C195.98 118.9 194.18 119.47 194.18 120.94C194.18 122.23 195.08 122.83 196.64 123.13L198.92 123.58C201.86 124.15 204.44 125.26 204.44 128.38C204.44 131.56 201.56 133.39 197.87 133.39C193.64 133.39 191.24 130.6 190.94 127.78H193.82C194.24 129.85 195.53 131.08 197.93 131.08C200 131.08 201.68 130.18 201.68 128.68C201.68 127.06 200.15 126.37 198.41 126.01L196.01 125.53C193.82 125.08 191.42 124.06 191.42 121.06C191.42 118.21 194.3 116.56 197.87 116.56C201.35 116.56 203.72 118.51 204.23 121.57H201.38ZM210.632 111.25V114.55H207.902V111.25H210.632ZM210.632 116.86V133H207.902V116.86H210.632ZM224.203 121.57C223.783 119.65 222.283 118.9 220.393 118.9C218.803 118.9 217.003 119.47 217.003 120.94C217.003 122.23 217.903 122.83 219.463 123.13L221.743 123.58C224.683 124.15 227.263 125.26 227.263 128.38C227.263 131.56 224.383 133.39 220.693 133.39C216.463 133.39 214.063 130.6 213.763 127.78H216.643C217.063 129.85 218.353 131.08 220.753 131.08C222.823 131.08 224.503 130.18 224.503 128.68C224.503 127.06 222.973 126.37 221.233 126.01L218.833 125.53C216.643 125.08 214.243 124.06 214.243 121.06C214.243 118.21 217.123 116.56 220.693 116.56C224.173 116.56 226.543 118.51 227.053 121.57H224.203ZM231.504 112.81H234.234V116.86H237.294V119.05H234.234V128.62C234.234 130.3 234.354 130.72 235.914 130.72H237.294V133H235.314C232.224 133 231.504 132.31 231.504 128.95V119.05H228.954V116.86H231.504V112.81ZM242.164 125.83C242.284 129.31 244.744 130.99 247.144 130.99C249.544 130.99 250.864 129.91 251.554 128.32H254.374C253.624 131.11 251.074 133.39 247.144 133.39C242.044 133.39 239.224 129.73 239.224 124.96C239.224 119.86 242.644 116.59 247.054 116.59C251.974 116.59 254.944 120.73 254.584 125.83H242.164ZM242.194 123.49H251.704C251.644 121.21 249.934 118.93 247.054 118.93C244.624 118.93 242.434 120.25 242.194 123.49ZM260.495 119.29C261.425 117.76 262.985 116.59 265.715 116.59C269.615 116.59 271.025 119.11 271.025 122.8V133H268.295V123.61C268.295 121.12 267.875 118.96 264.755 118.96C262.115 118.96 260.495 120.79 260.495 124.24V133H257.765V116.86H260.495V119.29ZM275.889 112.81H278.619V116.86H281.679V119.05H278.619V128.62C278.619 130.3 278.739 130.72 280.299 130.72H281.679V133H279.699C276.609 133 275.889 132.31 275.889 128.95V119.05H273.339V116.86H275.889V112.81ZM287.888 133H285.158V111.25H287.888V133ZM304.039 116.86L298.279 133.69C297.109 137.2 296.269 138.25 292.669 138.25H291.259V135.97H292.369C294.169 135.97 295.039 135.85 295.759 133.33L295.879 133L290.059 116.86H293.089L297.199 129.31L301.189 116.86H304.039ZM312.352 128.74C312.352 124.93 316.642 123.82 323.272 123.07V122.68C323.272 119.74 321.622 118.75 319.612 118.75C317.362 118.75 316.042 119.98 315.922 121.96H313.102C313.372 118.48 316.432 116.53 319.582 116.53C324.022 116.53 326.032 118.66 326.002 123.19L325.972 126.91C325.942 129.61 326.092 131.47 326.392 133H323.632C323.542 132.4 323.452 131.74 323.422 130.78C322.432 132.43 320.752 133.39 317.902 133.39C314.872 133.39 312.352 131.71 312.352 128.74ZM323.482 125.23C318.532 125.74 315.382 126.46 315.382 128.68C315.382 130.21 316.552 131.23 318.502 131.23C321.052 131.23 323.482 130.06 323.482 126.25V125.23ZM337.3 116.86H340.12L343.33 128.8L346.42 116.86H349.36L344.71 133H342.22L338.65 120.01L335.2 133H332.71L328.06 116.86H331L334.09 128.8L337.3 116.86ZM350.409 128.74C350.409 124.93 354.699 123.82 361.329 123.07V122.68C361.329 119.74 359.679 118.75 357.669 118.75C355.419 118.75 354.099 119.98 353.979 121.96H351.159C351.429 118.48 354.489 116.53 357.639 116.53C362.079 116.53 364.089 118.66 364.059 123.19L364.029 126.91C363.999 129.61 364.149 131.47 364.449 133H361.689C361.599 132.4 361.509 131.74 361.479 130.78C360.489 132.43 358.809 133.39 355.959 133.39C352.929 133.39 350.409 131.71 350.409 128.74ZM361.539 125.23C356.589 125.74 353.439 126.46 353.439 128.68C353.439 130.21 354.609 131.23 356.559 131.23C359.109 131.23 361.539 130.06 361.539 126.25V125.23ZM376.167 119.71C375.597 119.65 375.087 119.59 374.637 119.59C372.117 119.59 370.857 121 370.857 124.54V133H368.127V116.86H370.797V119.68C371.607 117.85 373.257 116.83 375.357 116.77C375.627 116.77 375.867 116.77 376.167 116.8V119.71ZM389.568 111.25H392.298V133H389.568V130.57C388.578 132.28 386.868 133.39 384.288 133.39C380.598 133.39 377.388 130.33 377.388 124.99C377.388 119.68 380.598 116.59 384.288 116.59C386.868 116.59 388.578 117.7 389.568 119.41V111.25ZM384.978 118.93C382.188 118.93 380.358 121.15 380.358 124.99C380.358 128.83 382.188 131.05 384.978 131.05C387.408 131.05 389.688 129.25 389.688 124.99C389.688 120.73 387.408 118.93 384.978 118.93ZM398.433 125.83C398.553 129.31 401.013 130.99 403.413 130.99C405.813 130.99 407.133 129.91 407.823 128.32H410.643C409.893 131.11 407.343 133.39 403.413 133.39C398.313 133.39 395.493 129.73 395.493 124.96C395.493 119.86 398.913 116.59 403.323 116.59C408.243 116.59 411.213 120.73 410.853 125.83H398.433ZM398.463 123.49H407.973C407.913 121.21 406.203 118.93 403.323 118.93C400.893 118.93 398.703 120.25 398.463 123.49ZM425.251 111.25H427.981V133H425.251V130.57C424.261 132.28 422.551 133.39 419.971 133.39C416.281 133.39 413.071 130.33 413.071 124.99C413.071 119.68 416.281 116.59 419.971 116.59C422.551 116.59 424.261 117.7 425.251 119.41V111.25ZM420.661 118.93C417.871 118.93 416.041 121.15 416.041 124.99C416.041 128.83 417.871 131.05 420.661 131.05C423.091 131.05 425.371 129.25 425.371 124.99C425.371 120.73 423.091 118.93 420.661 118.93ZM52.94 154.81H55.67V158.86H58.73V161.05H55.67V170.62C55.67 172.3 55.79 172.72 57.35 172.72H58.73V175H56.75C53.66 175 52.94 174.31 52.94 170.95V161.05H50.39V158.86H52.94V154.81ZM64.9388 161.29C65.8688 159.76 67.4288 158.59 70.1588 158.59C74.0588 158.59 75.4688 161.11 75.4688 164.8V175H72.7388V165.61C72.7388 163.12 72.3188 160.96 69.1988 160.96C66.5588 160.96 64.9388 162.79 64.9388 166.24V175H62.2088V153.25H64.9388V161.29ZM81.3826 167.83C81.5026 171.31 83.9626 172.99 86.3626 172.99C88.7626 172.99 90.0826 171.91 90.7726 170.32H93.5926C92.8426 173.11 90.2926 175.39 86.3626 175.39C81.2626 175.39 78.4426 171.73 78.4426 166.96C78.4426 161.86 81.8626 158.59 86.2726 158.59C91.1926 158.59 94.1626 162.73 93.8026 167.83H81.3826ZM81.4126 165.49H90.9226C90.8626 163.21 89.1526 160.93 86.2726 160.93C83.8426 160.93 81.6526 162.25 81.4126 165.49ZM104.883 154.81H107.613V158.86H110.673V161.05H107.613V170.62C107.613 172.3 107.733 172.72 109.293 172.72H110.673V175H108.693C105.603 175 104.883 174.31 104.883 170.95V161.05H102.333V158.86H104.883V154.81ZM128.143 166.99C128.143 172.84 124.153 175.39 120.403 175.39C116.653 175.39 112.663 172.84 112.663 166.99C112.663 161.14 116.653 158.59 120.403 158.59C124.153 158.59 128.143 161.14 128.143 166.99ZM120.403 172.99C122.863 172.99 125.233 171.13 125.233 166.99C125.233 162.7 122.863 160.99 120.403 160.99C117.943 160.99 115.573 162.58 115.573 166.99C115.573 171.28 117.943 172.99 120.403 172.99ZM134.138 158.86V161.41C135.128 159.7 136.838 158.59 139.418 158.59C143.108 158.59 146.318 161.68 146.318 166.99C146.318 172.33 143.108 175.39 139.418 175.39C136.838 175.39 135.128 174.28 134.138 172.57V180.25H131.408V158.86H134.138ZM138.728 173.05C141.518 173.05 143.348 170.83 143.348 166.99C143.348 163.15 141.518 160.93 138.728 160.93C136.298 160.93 134.018 162.73 134.018 166.99C134.018 171.25 136.298 173.05 138.728 173.05ZM167.703 153.25H170.433V175H167.703V172.57C166.713 174.28 165.003 175.39 162.423 175.39C158.733 175.39 155.523 172.33 155.523 166.99C155.523 161.68 158.733 158.59 162.423 158.59C165.003 158.59 166.713 159.7 167.703 161.41V153.25ZM163.113 160.93C160.323 160.93 158.493 163.15 158.493 166.99C158.493 170.83 160.323 173.05 163.113 173.05C165.543 173.05 167.823 171.25 167.823 166.99C167.823 162.73 165.543 160.93 163.113 160.93ZM176.568 167.83C176.688 171.31 179.148 172.99 181.548 172.99C183.948 172.99 185.268 171.91 185.958 170.32H188.778C188.028 173.11 185.478 175.39 181.548 175.39C176.448 175.39 173.628 171.73 173.628 166.96C173.628 161.86 177.048 158.59 181.458 158.59C186.378 158.59 189.348 162.73 188.988 167.83H176.568ZM176.598 165.49H186.108C186.048 163.21 184.338 160.93 181.458 160.93C179.028 160.93 176.838 162.25 176.598 165.49ZM201.468 163.57C201.048 161.65 199.548 160.9 197.658 160.9C196.068 160.9 194.268 161.47 194.268 162.94C194.268 164.23 195.168 164.83 196.728 165.13L199.008 165.58C201.948 166.15 204.528 167.26 204.528 170.38C204.528 173.56 201.648 175.39 197.958 175.39C193.728 175.39 191.328 172.6 191.028 169.78H193.908C194.328 171.85 195.618 173.08 198.018 173.08C200.088 173.08 201.768 172.18 201.768 170.68C201.768 169.06 200.238 168.37 198.498 168.01L196.098 167.53C193.908 167.08 191.508 166.06 191.508 163.06C191.508 160.21 194.388 158.56 197.958 158.56C201.438 158.56 203.808 160.51 204.318 163.57H201.468ZM208.77 154.81H211.5V158.86H214.56V161.05H211.5V170.62C211.5 172.3 211.62 172.72 213.18 172.72H214.56V175H212.58C209.49 175 208.77 174.31 208.77 170.95V161.05H206.22V158.86H208.77V154.81ZM220.769 153.25V156.55H218.039V153.25H220.769ZM220.769 158.86V175H218.039V158.86H220.769ZM227.829 161.29C228.759 159.76 230.319 158.59 233.049 158.59C236.949 158.59 238.359 161.11 238.359 164.8V175H235.629V165.61C235.629 163.12 235.209 160.96 232.089 160.96C229.449 160.96 227.829 162.79 227.829 166.24V175H225.099V158.86H227.829V161.29ZM241.483 170.74C241.483 166.93 245.773 165.82 252.403 165.07V164.68C252.403 161.74 250.753 160.75 248.743 160.75C246.493 160.75 245.173 161.98 245.053 163.96H242.233C242.503 160.48 245.563 158.53 248.713 158.53C253.153 158.53 255.163 160.66 255.133 165.19L255.103 168.91C255.073 171.61 255.223 173.47 255.523 175H252.763C252.673 174.4 252.583 173.74 252.553 172.78C251.563 174.43 249.883 175.39 247.033 175.39C244.003 175.39 241.483 173.71 241.483 170.74ZM252.613 167.23C247.663 167.74 244.513 168.46 244.513 170.68C244.513 172.21 245.683 173.23 247.633 173.23C250.183 173.23 252.613 172.06 252.613 168.25V167.23ZM259.981 154.81H262.711V158.86H265.771V161.05H262.711V170.62C262.711 172.3 262.831 172.72 264.391 172.72H265.771V175H263.791C260.701 175 259.981 174.31 259.981 170.95V161.05H257.431V158.86H259.981V154.81ZM271.98 153.25V156.55H269.25V153.25H271.98ZM271.98 158.86V175H269.25V158.86H271.98ZM290.74 166.99C290.74 172.84 286.75 175.39 283 175.39C279.25 175.39 275.26 172.84 275.26 166.99C275.26 161.14 279.25 158.59 283 158.59C286.75 158.59 290.74 161.14 290.74 166.99ZM283 172.99C285.46 172.99 287.83 171.13 287.83 166.99C287.83 162.7 285.46 160.99 283 160.99C280.54 160.99 278.17 162.58 278.17 166.99C278.17 171.28 280.54 172.99 283 172.99ZM296.736 161.29C297.666 159.76 299.226 158.59 301.956 158.59C305.856 158.59 307.266 161.11 307.266 164.8V175H304.536V165.61C304.536 163.12 304.116 160.96 300.996 160.96C298.356 160.96 296.736 162.79 296.736 166.24V175H294.006V158.86H296.736V161.29ZM320.589 163.57C320.169 161.65 318.669 160.9 316.779 160.9C315.189 160.9 313.389 161.47 313.389 162.94C313.389 164.23 314.289 164.83 315.849 165.13L318.129 165.58C321.069 166.15 323.649 167.26 323.649 170.38C323.649 173.56 320.769 175.39 317.079 175.39C312.849 175.39 310.449 172.6 310.149 169.78H313.029C313.449 171.85 314.739 173.08 317.139 173.08C319.209 173.08 320.889 172.18 320.889 170.68C320.889 169.06 319.359 168.37 317.619 168.01L315.219 167.53C313.029 167.08 310.629 166.06 310.629 163.06C310.629 160.21 313.509 158.56 317.079 158.56C320.559 158.56 322.929 160.51 323.439 163.57H320.589ZM336.96 153.25V156.55H334.23V153.25H336.96ZM336.96 158.86V175H334.23V158.86H336.96ZM344.021 161.29C344.951 159.76 346.511 158.59 349.241 158.59C353.141 158.59 354.551 161.11 354.551 164.8V175H351.821V165.61C351.821 163.12 351.401 160.96 348.281 160.96C345.641 160.96 344.021 162.79 344.021 166.24V175H341.291V158.86H344.021V161.29ZM366.534 154.81H369.264V158.86H372.324V161.05H369.264V170.62C369.264 172.3 369.384 172.72 370.944 172.72H372.324V175H370.344C367.254 175 366.534 174.31 366.534 170.95V161.05H363.984V158.86H366.534V154.81ZM378.533 161.29C379.463 159.76 381.023 158.59 383.753 158.59C387.653 158.59 389.063 161.11 389.063 164.8V175H386.333V165.61C386.333 163.12 385.913 160.96 382.793 160.96C380.153 160.96 378.533 162.79 378.533 166.24V175H375.803V153.25H378.533V161.29ZM394.976 167.83C395.096 171.31 397.556 172.99 399.956 172.99C402.356 172.99 403.676 171.91 404.366 170.32H407.186C406.436 173.11 403.886 175.39 399.956 175.39C394.856 175.39 392.036 171.73 392.036 166.96C392.036 161.86 395.456 158.59 399.866 158.59C404.786 158.59 407.756 162.73 407.396 167.83H394.976ZM395.006 165.49H404.516C404.456 163.21 402.746 160.93 399.866 160.93C397.436 160.93 395.246 162.25 395.006 165.49ZM59.39 200.86H62.21L65.42 212.8L68.51 200.86H71.45L66.8 217H64.31L60.74 204.01L57.29 217H54.8L50.15 200.86H53.09L56.18 212.8L59.39 200.86ZM88.0353 208.99C88.0353 214.84 84.0453 217.39 80.2953 217.39C76.5453 217.39 72.5553 214.84 72.5553 208.99C72.5553 203.14 76.5453 200.59 80.2953 200.59C84.0453 200.59 88.0353 203.14 88.0353 208.99ZM80.2953 214.99C82.7553 214.99 85.1253 213.13 85.1253 208.99C85.1253 204.7 82.7553 202.99 80.2953 202.99C77.8353 202.99 75.4653 204.58 75.4653 208.99C75.4653 213.28 77.8353 214.99 80.2953 214.99ZM99.3406 203.71C98.7706 203.65 98.2606 203.59 97.8106 203.59C95.2906 203.59 94.0306 205 94.0306 208.54V217H91.3006V200.86H93.9706V203.68C94.7806 201.85 96.4306 200.83 98.5306 200.77C98.8006 200.77 99.0406 200.77 99.3406 200.8V203.71ZM104.695 217H101.965V195.25H104.695V217ZM120.095 195.25H122.825V217H120.095V214.57C119.105 216.28 117.395 217.39 114.815 217.39C111.125 217.39 107.915 214.33 107.915 208.99C107.915 203.68 111.125 200.59 114.815 200.59C117.395 200.59 119.105 201.7 120.095 203.41V195.25ZM115.505 202.93C112.715 202.93 110.885 205.15 110.885 208.99C110.885 212.83 112.715 215.05 115.505 215.05C117.935 215.05 120.215 213.25 120.215 208.99C120.215 204.73 117.935 202.93 115.505 202.93ZM126.921 213.55H130.371V217.24L128.541 221.17H126.801L128.391 217H126.921V213.55ZM140.643 212.74C140.643 208.93 144.933 207.82 151.563 207.07V206.68C151.563 203.74 149.913 202.75 147.903 202.75C145.653 202.75 144.333 203.98 144.213 205.96H141.393C141.663 202.48 144.723 200.53 147.873 200.53C152.313 200.53 154.323 202.66 154.293 207.19L154.263 210.91C154.233 213.61 154.383 215.47 154.683 217H151.923C151.833 216.4 151.743 215.74 151.713 214.78C150.723 216.43 149.043 217.39 146.193 217.39C143.163 217.39 140.643 215.71 140.643 212.74ZM151.773 209.23C146.823 209.74 143.673 210.46 143.673 212.68C143.673 214.21 144.843 215.23 146.793 215.23C149.343 215.23 151.773 214.06 151.773 210.25V209.23ZM161.091 203.29C162.021 201.76 163.581 200.59 166.311 200.59C170.211 200.59 171.621 203.11 171.621 206.8V217H168.891V207.61C168.891 205.12 168.471 202.96 165.351 202.96C162.711 202.96 161.091 204.79 161.091 208.24V217H158.361V200.86H161.091V203.29ZM186.775 195.25H189.505V217H186.775V214.57C185.785 216.28 184.075 217.39 181.495 217.39C177.805 217.39 174.595 214.33 174.595 208.99C174.595 203.68 177.805 200.59 181.495 200.59C184.075 200.59 185.785 201.7 186.775 203.41V195.25ZM182.185 202.93C179.395 202.93 177.565 205.15 177.565 208.99C177.565 212.83 179.395 215.05 182.185 215.05C184.615 215.05 186.895 213.25 186.895 208.99C186.895 204.73 184.615 202.93 182.185 202.93ZM203.66 195.25V203.41C204.65 201.7 206.36 200.59 208.94 200.59C212.63 200.59 215.84 203.68 215.84 208.99C215.84 214.33 212.63 217.39 208.94 217.39C206.36 217.39 204.65 216.28 203.66 214.57V217H200.93V195.25H203.66ZM208.25 215.05C211.04 215.05 212.87 212.83 212.87 208.99C212.87 205.15 211.04 202.93 208.25 202.93C205.82 202.93 203.54 204.73 203.54 208.99C203.54 213.25 205.82 215.05 208.25 215.05ZM233.611 208.99C233.611 214.84 229.621 217.39 225.871 217.39C222.121 217.39 218.131 214.84 218.131 208.99C218.131 203.14 222.121 200.59 225.871 200.59C229.621 200.59 233.611 203.14 233.611 208.99ZM225.871 214.99C228.331 214.99 230.701 213.13 230.701 208.99C230.701 204.7 228.331 202.99 225.871 202.99C223.411 202.99 221.041 204.58 221.041 208.99C221.041 213.28 223.411 214.99 225.871 214.99ZM235.917 212.74C235.917 208.93 240.207 207.82 246.837 207.07V206.68C246.837 203.74 245.187 202.75 243.177 202.75C240.927 202.75 239.607 203.98 239.487 205.96H236.667C236.937 202.48 239.997 200.53 243.147 200.53C247.587 200.53 249.597 202.66 249.567 207.19L249.537 210.91C249.507 213.61 249.657 215.47 249.957 217H247.197C247.107 216.4 247.017 215.74 246.987 214.78C245.997 216.43 244.317 217.39 241.467 217.39C238.437 217.39 235.917 215.71 235.917 212.74ZM247.047 209.23C242.097 209.74 238.947 210.46 238.947 212.68C238.947 214.21 240.117 215.23 242.067 215.23C244.617 215.23 247.047 214.06 247.047 210.25V209.23ZM262.875 205.57C262.455 203.65 260.955 202.9 259.065 202.9C257.475 202.9 255.675 203.47 255.675 204.94C255.675 206.23 256.575 206.83 258.135 207.13L260.415 207.58C263.355 208.15 265.935 209.26 265.935 212.38C265.935 215.56 263.055 217.39 259.365 217.39C255.135 217.39 252.735 214.6 252.435 211.78H255.315C255.735 213.85 257.025 215.08 259.425 215.08C261.495 215.08 263.175 214.18 263.175 212.68C263.175 211.06 261.645 210.37 259.905 210.01L257.505 209.53C255.315 209.08 252.915 208.06 252.915 205.06C252.915 202.21 255.795 200.56 259.365 200.56C262.845 200.56 265.215 202.51 265.725 205.57H262.875ZM270.176 196.81H272.906V200.86H275.966V203.05H272.906V212.62C272.906 214.3 273.026 214.72 274.586 214.72H275.966V217H273.986C270.896 217 270.176 216.31 270.176 212.95V203.05H267.626V200.86H270.176V196.81ZM288.392 205.57C287.972 203.65 286.472 202.9 284.582 202.9C282.992 202.9 281.192 203.47 281.192 204.94C281.192 206.23 282.092 206.83 283.652 207.13L285.932 207.58C288.872 208.15 291.452 209.26 291.452 212.38C291.452 215.56 288.572 217.39 284.882 217.39C280.652 217.39 278.252 214.6 277.952 211.78H280.832C281.252 213.85 282.542 215.08 284.942 215.08C287.012 215.08 288.692 214.18 288.692 212.68C288.692 211.06 287.162 210.37 285.422 210.01L283.022 209.53C280.832 209.08 278.432 208.06 278.432 205.06C278.432 202.21 281.312 200.56 284.882 200.56C288.362 200.56 290.732 202.51 291.242 205.57H288.392ZM302.813 196.81H305.543V200.86H308.603V203.05H305.543V212.62C305.543 214.3 305.663 214.72 307.223 214.72H308.603V217H306.623C303.533 217 302.813 216.31 302.813 212.95V203.05H300.263V200.86H302.813V196.81ZM314.812 203.29C315.742 201.76 317.302 200.59 320.032 200.59C323.932 200.59 325.342 203.11 325.342 206.8V217H322.612V207.61C322.612 205.12 322.192 202.96 319.072 202.96C316.432 202.96 314.812 204.79 314.812 208.24V217H312.082V195.25H314.812V203.29ZM331.256 209.83C331.376 213.31 333.836 214.99 336.236 214.99C338.636 214.99 339.956 213.91 340.646 212.32H343.466C342.716 215.11 340.166 217.39 336.236 217.39C331.136 217.39 328.316 213.73 328.316 208.96C328.316 203.86 331.736 200.59 336.146 200.59C341.066 200.59 344.036 204.73 343.676 209.83H331.256ZM331.286 207.49H340.796C340.736 205.21 339.026 202.93 336.146 202.93C333.716 202.93 331.526 204.25 331.286 207.49ZM356.706 200.86V203.41C357.696 201.7 359.406 200.59 361.986 200.59C365.676 200.59 368.886 203.68 368.886 208.99C368.886 214.33 365.676 217.39 361.986 217.39C359.406 217.39 357.696 216.28 356.706 214.57V222.25H353.976V200.86H356.706ZM361.296 215.05C364.086 215.05 365.916 212.83 365.916 208.99C365.916 205.15 364.086 202.93 361.296 202.93C358.866 202.93 356.586 204.73 356.586 208.99C356.586 213.25 358.866 215.05 361.296 215.05ZM380.122 203.71C379.552 203.65 379.042 203.59 378.592 203.59C376.072 203.59 374.812 205 374.812 208.54V217H372.082V200.86H374.752V203.68C375.562 201.85 377.212 200.83 379.312 200.77C379.582 200.77 379.822 200.77 380.122 200.8V203.71ZM385.476 195.25V198.55H382.746V195.25H385.476ZM385.476 200.86V217H382.746V200.86H385.476ZM392.536 217H389.806V200.86H392.536V203.29C393.466 201.76 394.966 200.59 397.396 200.59C399.856 200.59 401.326 201.67 402.046 203.44C403.336 201.46 405.226 200.59 407.476 200.59C411.226 200.59 412.696 203.11 412.696 206.8V217H409.966V207.61C409.966 205.12 409.486 202.96 406.516 202.96C404.176 202.96 402.616 204.79 402.616 208.24V217H399.886V207.61C399.886 205.12 399.406 202.96 396.436 202.96C394.096 202.96 392.536 204.79 392.536 208.24V217ZM418.619 209.83C418.739 213.31 421.199 214.99 423.599 214.99C425.999 214.99 427.319 213.91 428.009 212.32H430.829C430.079 215.11 427.529 217.39 423.599 217.39C418.499 217.39 415.679 213.73 415.679 208.96C415.679 203.86 419.099 200.59 423.509 200.59C428.429 200.59 431.399 204.73 431.039 209.83H418.619ZM418.649 207.49H428.159C428.099 205.21 426.389 202.93 423.509 202.93C421.079 202.93 418.889 204.25 418.649 207.49ZM65.6 248.26H62.84C62.45 246.34 60.77 244.99 58.67 244.99C56.24 244.99 54.02 246.88 54.02 250.93C54.02 255.04 56.27 256.99 58.67 256.99C60.95 256.99 62.57 255.46 62.96 253.75H65.78C65.24 256.78 62.33 259.39 58.58 259.39C53.96 259.39 51.05 255.88 51.05 250.96C51.05 246.16 54.08 242.59 58.85 242.59C62.75 242.59 65.24 245.53 65.6 248.26ZM71.5892 245.29C72.5192 243.76 74.0792 242.59 76.8092 242.59C80.7092 242.59 82.1192 245.11 82.1192 248.8V259H79.3892V249.61C79.3892 247.12 78.9692 244.96 75.8492 244.96C73.2092 244.96 71.5892 246.79 71.5892 250.24V259H68.8592V237.25H71.5892V245.29ZM100.633 250.99C100.633 256.84 96.643 259.39 92.893 259.39C89.143 259.39 85.153 256.84 85.153 250.99C85.153 245.14 89.143 242.59 92.893 242.59C96.643 242.59 100.633 245.14 100.633 250.99ZM92.893 256.99C95.353 256.99 97.723 255.13 97.723 250.99C97.723 246.7 95.353 244.99 92.893 244.99C90.433 244.99 88.063 246.58 88.063 250.99C88.063 255.28 90.433 256.99 92.893 256.99ZM106.628 237.25V240.55H103.898V237.25H106.628ZM106.628 242.86V259H103.898V242.86H106.628ZM124.399 248.26H121.639C121.249 246.34 119.569 244.99 117.469 244.99C115.039 244.99 112.819 246.88 112.819 250.93C112.819 255.04 115.069 256.99 117.469 256.99C119.749 256.99 121.369 255.46 121.759 253.75H124.579C124.039 256.78 121.129 259.39 117.379 259.39C112.759 259.39 109.849 255.88 109.849 250.96C109.849 246.16 112.879 242.59 117.649 242.59C121.549 242.59 124.039 245.53 124.399 248.26ZM129.635 251.83C129.755 255.31 132.215 256.99 134.615 256.99C137.015 256.99 138.335 255.91 139.025 254.32H141.845C141.095 257.11 138.545 259.39 134.615 259.39C129.515 259.39 126.695 255.73 126.695 250.96C126.695 245.86 130.115 242.59 134.525 242.59C139.445 242.59 142.415 246.73 142.055 251.83H129.635ZM129.665 249.49H139.175C139.115 247.21 137.405 244.93 134.525 244.93C132.095 244.93 129.905 246.25 129.665 249.49ZM153.045 241.69C153.045 238.33 153.735 237.25 157.395 237.25H158.805V239.53H157.455C156.015 239.53 155.775 239.86 155.775 241.54V242.86H158.805V245.05H155.775V259H153.045V245.05H150.795V242.86H153.045V241.69ZM175.604 250.99C175.604 256.84 171.614 259.39 167.864 259.39C164.114 259.39 160.124 256.84 160.124 250.99C160.124 245.14 164.114 242.59 167.864 242.59C171.614 242.59 175.604 245.14 175.604 250.99ZM167.864 256.99C170.324 256.99 172.694 255.13 172.694 250.99C172.694 246.7 170.324 244.99 167.864 244.99C165.404 244.99 163.034 246.58 163.034 250.99C163.034 255.28 165.404 256.99 167.864 256.99ZM186.909 245.71C186.339 245.65 185.829 245.59 185.379 245.59C182.859 245.59 181.599 247 181.599 250.54V259H178.869V242.86H181.539V245.68C182.349 243.85 183.999 242.83 186.099 242.77C186.369 242.77 186.609 242.77 186.909 242.8V245.71ZM199.382 242.86V245.41C200.372 243.7 202.082 242.59 204.662 242.59C208.352 242.59 211.562 245.68 211.562 250.99C211.562 256.33 208.352 259.39 204.662 259.39C202.082 259.39 200.372 258.28 199.382 256.57V264.25H196.652V242.86H199.382ZM203.972 257.05C206.762 257.05 208.592 254.83 208.592 250.99C208.592 247.15 206.762 244.93 203.972 244.93C201.542 244.93 199.262 246.73 199.262 250.99C199.262 255.25 201.542 257.05 203.972 257.05ZM222.798 245.71C222.228 245.65 221.718 245.59 221.268 245.59C218.748 245.59 217.488 247 217.488 250.54V259H214.758V242.86H217.428V245.68C218.238 243.85 219.888 242.83 221.988 242.77C222.258 242.77 222.498 242.77 222.798 242.8V245.71ZM239.559 250.99C239.559 256.84 235.569 259.39 231.819 259.39C228.069 259.39 224.079 256.84 224.079 250.99C224.079 245.14 228.069 242.59 231.819 242.59C235.569 242.59 239.559 245.14 239.559 250.99ZM231.819 256.99C234.279 256.99 236.649 255.13 236.649 250.99C236.649 246.7 234.279 244.99 231.819 244.99C229.359 244.99 226.989 246.58 226.989 250.99C226.989 255.28 229.359 256.99 231.819 256.99ZM245.554 242.86V245.41C246.544 243.7 248.254 242.59 250.834 242.59C254.524 242.59 257.734 245.68 257.734 250.99C257.734 256.33 254.524 259.39 250.834 259.39C248.254 259.39 246.544 258.28 245.554 256.57V264.25H242.824V242.86H245.554ZM250.144 257.05C252.934 257.05 254.764 254.83 254.764 250.99C254.764 247.15 252.934 244.93 250.144 244.93C247.714 244.93 245.434 246.73 245.434 250.99C245.434 255.25 247.714 257.05 250.144 257.05ZM262.994 251.83C263.114 255.31 265.574 256.99 267.974 256.99C270.374 256.99 271.694 255.91 272.384 254.32H275.204C274.454 257.11 271.904 259.39 267.974 259.39C262.874 259.39 260.054 255.73 260.054 250.96C260.054 245.86 263.474 242.59 267.884 242.59C272.804 242.59 275.774 246.73 275.414 251.83H262.994ZM263.024 249.49H272.534C272.474 247.21 270.764 244.93 267.884 244.93C265.454 244.93 263.264 246.25 263.024 249.49ZM286.636 245.71C286.066 245.65 285.556 245.59 285.106 245.59C282.586 245.59 281.326 247 281.326 250.54V259H278.596V242.86H281.266V245.68C282.076 243.85 283.726 242.83 285.826 242.77C286.096 242.77 286.336 242.77 286.636 242.8V245.71ZM290.04 238.81H292.77V242.86H295.83V245.05H292.77V254.62C292.77 256.3 292.89 256.72 294.45 256.72H295.83V259H293.85C290.76 259 290.04 258.31 290.04 254.95V245.05H287.49V242.86H290.04V238.81ZM310.835 242.86L305.075 259.69C303.905 263.2 303.065 264.25 299.465 264.25H298.055V261.97H299.165C300.965 261.97 301.835 261.85 302.555 259.33L302.675 259L296.855 242.86H299.885L303.995 255.31L307.985 242.86H310.835ZM54.89 279.25V282.55H52.16V279.25H54.89ZM54.89 284.86V301H52.16V284.86H54.89ZM61.9505 287.29C62.8805 285.76 64.4405 284.59 67.1705 284.59C71.0705 284.59 72.4805 287.11 72.4805 290.8V301H69.7505V291.61C69.7505 289.12 69.3305 286.96 66.2105 286.96C63.5705 286.96 61.9505 288.79 61.9505 292.24V301H59.2205V284.86H61.9505V287.29ZM81.6678 297.22L86.0478 284.86H88.8678L82.7778 301H80.3478L74.2578 284.86H77.2878L81.6678 297.22ZM92.574 293.83C92.694 297.31 95.154 298.99 97.554 298.99C99.954 298.99 101.274 297.91 101.964 296.32H104.784C104.034 299.11 101.484 301.39 97.554 301.39C92.454 301.39 89.634 297.73 89.634 292.96C89.634 287.86 93.054 284.59 97.464 284.59C102.384 284.59 105.354 288.73 104.994 293.83H92.574ZM92.604 291.49H102.114C102.054 289.21 100.344 286.93 97.464 286.93C95.034 286.93 92.844 288.25 92.604 291.49ZM117.474 289.57C117.054 287.65 115.554 286.9 113.664 286.9C112.074 286.9 110.274 287.47 110.274 288.94C110.274 290.23 111.174 290.83 112.734 291.13L115.014 291.58C117.954 292.15 120.534 293.26 120.534 296.38C120.534 299.56 117.654 301.39 113.964 301.39C109.734 301.39 107.334 298.6 107.034 295.78H109.914C110.334 297.85 111.624 299.08 114.024 299.08C116.094 299.08 117.774 298.18 117.774 296.68C117.774 295.06 116.244 294.37 114.504 294.01L112.104 293.53C109.914 293.08 107.514 292.06 107.514 289.06C107.514 286.21 110.394 284.56 113.964 284.56C117.444 284.56 119.814 286.51 120.324 289.57H117.474ZM124.776 280.81H127.506V284.86H130.566V287.05H127.506V296.62C127.506 298.3 127.626 298.72 129.186 298.72H130.566V301H128.586C125.496 301 124.776 300.31 124.776 296.95V287.05H122.226V284.86H124.776V280.81ZM136.482 301H133.752V284.86H136.482V287.29C137.412 285.76 138.912 284.59 141.342 284.59C143.802 284.59 145.272 285.67 145.992 287.44C147.282 285.46 149.172 284.59 151.422 284.59C155.172 284.59 156.642 287.11 156.642 290.8V301H153.912V291.61C153.912 289.12 153.432 286.96 150.462 286.96C148.122 286.96 146.562 288.79 146.562 292.24V301H143.832V291.61C143.832 289.12 143.352 286.96 140.382 286.96C138.042 286.96 136.482 288.79 136.482 292.24V301ZM162.564 293.83C162.684 297.31 165.144 298.99 167.544 298.99C169.944 298.99 171.264 297.91 171.954 296.32H174.774C174.024 299.11 171.474 301.39 167.544 301.39C162.444 301.39 159.624 297.73 159.624 292.96C159.624 287.86 163.044 284.59 167.454 284.59C172.374 284.59 175.344 288.73 174.984 293.83H162.564ZM162.594 291.49H172.104C172.044 289.21 170.334 286.93 167.454 286.93C165.024 286.93 162.834 288.25 162.594 291.49ZM180.896 287.29C181.826 285.76 183.386 284.59 186.116 284.59C190.016 284.59 191.426 287.11 191.426 290.8V301H188.696V291.61C188.696 289.12 188.276 286.96 185.156 286.96C182.516 286.96 180.896 288.79 180.896 292.24V301H178.166V284.86H180.896V287.29ZM196.29 280.81H199.02V284.86H202.08V287.05H199.02V296.62C199.02 298.3 199.14 298.72 200.7 298.72H202.08V301H200.1C197.01 301 196.29 300.31 196.29 296.95V287.05H193.74V284.86H196.29V280.81ZM215.115 279.25V282.55H212.385V279.25H215.115ZM215.115 284.86V301H212.385V284.86H215.115ZM222.175 287.29C223.105 285.76 224.665 284.59 227.395 284.59C231.295 284.59 232.705 287.11 232.705 290.8V301H229.975V291.61C229.975 289.12 229.555 286.96 226.435 286.96C223.795 286.96 222.175 288.79 222.175 292.24V301H219.445V284.86H222.175V287.29ZM249.818 279.25H253.358L261.548 301H258.248L256.538 296.29H246.548L244.868 301H241.748L249.818 279.25ZM247.478 293.68H255.578L251.498 282.34L247.478 293.68ZM273.099 289.57C272.679 287.65 271.179 286.9 269.289 286.9C267.699 286.9 265.899 287.47 265.899 288.94C265.899 290.23 266.799 290.83 268.359 291.13L270.639 291.58C273.579 292.15 276.159 293.26 276.159 296.38C276.159 299.56 273.279 301.39 269.589 301.39C265.359 301.39 262.959 298.6 262.659 295.78H265.539C265.959 297.85 267.249 299.08 269.649 299.08C271.719 299.08 273.399 298.18 273.399 296.68C273.399 295.06 271.869 294.37 270.129 294.01L267.729 293.53C265.539 293.08 263.139 292.06 263.139 289.06C263.139 286.21 266.019 284.56 269.589 284.56C273.069 284.56 275.439 286.51 275.949 289.57H273.099ZM282.351 279.25V282.55H279.621V279.25H282.351ZM282.351 284.86V301H279.621V284.86H282.351ZM285.721 296.74C285.721 292.93 290.011 291.82 296.641 291.07V290.68C296.641 287.74 294.991 286.75 292.981 286.75C290.731 286.75 289.411 287.98 289.291 289.96H286.471C286.741 286.48 289.801 284.53 292.951 284.53C297.391 284.53 299.401 286.66 299.371 291.19L299.341 294.91C299.311 297.61 299.461 299.47 299.761 301H297.001C296.911 300.4 296.821 299.74 296.791 298.78C295.801 300.43 294.121 301.39 291.271 301.39C288.241 301.39 285.721 299.71 285.721 296.74ZM296.851 293.23C291.901 293.74 288.751 294.46 288.751 296.68C288.751 298.21 289.921 299.23 291.871 299.23C294.421 299.23 296.851 298.06 296.851 294.25V293.23ZM303.464 301V297.55H306.914V301H303.464Z" fill="#212121"/>
<path d="M51.72 50.5H61.14V52.26H53.76V56.66H60.72V58.42H53.76V65H51.72V50.5ZM72.2514 59.66C72.2514 63.56 69.5914 65.26 67.0914 65.26C64.5914 65.26 61.9314 63.56 61.9314 59.66C61.9314 55.76 64.5914 54.06 67.0914 54.06C69.5914 54.06 72.2514 55.76 72.2514 59.66ZM67.0914 63.66C68.7314 63.66 70.3114 62.42 70.3114 59.66C70.3114 56.8 68.7314 55.66 67.0914 55.66C65.4514 55.66 63.8714 56.72 63.8714 59.66C63.8714 62.52 65.4514 63.66 67.0914 63.66ZM79.7883 56.14C79.4083 56.1 79.0683 56.06 78.7683 56.06C77.0883 56.06 76.2483 57 76.2483 59.36V65H74.4283V54.24H76.2083V56.12C76.7483 54.9 77.8483 54.22 79.2483 54.18C79.4283 54.18 79.5883 54.18 79.7883 54.2V56.14ZM83.3577 50.5V55.94C84.0177 54.8 85.1577 54.06 86.8777 54.06C89.3377 54.06 91.4777 56.12 91.4777 59.66C91.4777 63.22 89.3377 65.26 86.8777 65.26C85.1577 65.26 84.0177 64.52 83.3577 63.38V65H81.5377V50.5H83.3577ZM86.4177 63.7C88.2777 63.7 89.4977 62.22 89.4977 59.66C89.4977 57.1 88.2777 55.62 86.4177 55.62C84.7977 55.62 83.2777 56.82 83.2777 59.66C83.2777 62.5 84.7977 63.7 86.4177 63.7ZM99.7094 57.38C99.4294 56.1 98.4294 55.6 97.1694 55.6C96.1094 55.6 94.9094 55.98 94.9094 56.96C94.9094 57.82 95.5094 58.22 96.5494 58.42L98.0694 58.72C100.029 59.1 101.749 59.84 101.749 61.92C101.749 64.04 99.8294 65.26 97.3694 65.26C94.5494 65.26 92.9494 63.4 92.7494 61.52H94.6694C94.9494 62.9 95.8094 63.72 97.4094 63.72C98.7894 63.72 99.9094 63.12 99.9094 62.12C99.9094 61.04 98.8894 60.58 97.7294 60.34L96.1294 60.02C94.6694 59.72 93.0694 59.04 93.0694 57.04C93.0694 55.14 94.9894 54.04 97.3694 54.04C99.6894 54.04 101.269 55.34 101.609 57.38H99.7094ZM105.277 60.22C105.357 62.54 106.997 63.66 108.597 63.66C110.197 63.66 111.077 62.94 111.537 61.88H113.417C112.917 63.74 111.217 65.26 108.597 65.26C105.197 65.26 103.317 62.82 103.317 59.64C103.317 56.24 105.597 54.06 108.537 54.06C111.817 54.06 113.797 56.82 113.557 60.22H105.277ZM105.297 58.66H111.637C111.597 57.14 110.457 55.62 108.537 55.62C106.917 55.62 105.457 56.5 105.297 58.66Z" fill="#212121"/>
<rect x="121.5" y="50.5" width="14" height="14" rx="2.5" stroke="black"/>
<rect x="130.955" y="54.3447" width="1" height="8.73344" transform="rotate(45 130.955 54.3447)" fill="#181D1F"/>
<rect x="125" y="55" width="1" height="7" transform="rotate(-90 125 55)" fill="#181D1F"/>
<rect x="132" y="61" width="1" height="7" transform="rotate(180 132 61)" fill="#181D1F"/>
<path opacity="0.5" d="M57.136 396.752C57.136 395.088 55.648 394.544 53.792 394.544H53.552V393.216H53.744C55.76 393.216 56.832 392.656 56.832 391.296C56.832 390.048 55.808 389.408 54.576 389.408C53.024 389.408 52.176 390.352 52.048 391.664H50.544C50.72 389.616 52.176 388.192 54.608 388.192C56.624 388.192 58.368 388.992 58.368 391.136C58.368 392.32 57.696 393.328 56.48 393.824C58.208 394.368 58.688 395.52 58.688 396.736C58.688 399.072 56.704 400.208 54.496 400.208C51.776 400.208 50.528 398.512 50.368 396.576H51.872C52.032 398 52.88 398.992 54.512 398.992C56.048 398.992 57.136 398.192 57.136 396.752ZM64.6706 400.208C61.5826 400.208 60.1586 397.872 60.1586 394.192C60.1586 390.528 61.5826 388.192 64.6706 388.192C67.7586 388.192 69.1826 390.528 69.1826 394.192C69.1826 397.872 67.7586 400.208 64.6706 400.208ZM64.6706 389.408C62.8466 389.408 61.7106 390.976 61.7106 394.192C61.7106 397.424 62.8466 398.992 64.6706 398.992C66.4946 398.992 67.6306 397.424 67.6306 394.192C67.6306 390.976 66.4946 389.408 64.6706 389.408ZM78.3096 388.4C81.9896 388.4 84.6296 389.776 84.6296 394.192C84.6296 398.624 81.9896 400 78.3096 400H75.1416V388.4H78.3096ZM78.2616 389.776H76.7736V398.624H78.2616C80.6616 398.624 82.9656 398.144 82.9656 394.192C82.9656 390.256 80.6616 389.776 78.2616 389.776ZM86.8291 388.4H94.7011V389.808H88.4611V393.328H94.3331V394.736H88.4611V398.592H94.7011V400H86.8291V388.4ZM106.37 396.304C105.858 398.864 103.858 400.208 101.346 400.208C98.0176 400.208 96.0816 397.712 96.0816 394.176C96.0816 390.576 98.1936 388.192 101.474 388.192C103.874 388.192 105.81 389.616 106.306 392.096H104.722C104.37 390.656 103.25 389.568 101.394 389.568C99.3456 389.568 97.7456 391.168 97.7456 394.176C97.7456 397.104 99.2816 398.832 101.442 398.832C103.282 398.832 104.418 397.792 104.786 396.304H106.37ZM108.251 388.4H116.123V389.808H109.883V393.328H115.755V394.736H109.883V398.592H116.123V400H108.251V388.4ZM122.896 400L119.696 389.888V400H118.064V388.4H120.799L123.76 398.064L126.72 388.4H129.456V400H127.824V389.888L124.624 400H122.896ZM132.204 388.4H136.38C138.54 388.4 140.46 388.96 140.46 391.264C140.46 392.368 139.98 393.36 139.18 393.824C140.284 394.288 140.94 395.152 140.94 396.576C140.94 399.04 139.1 400 136.78 400H132.204V388.4ZM133.836 393.36H136.636C137.964 393.36 138.812 392.848 138.812 391.488C138.812 390.304 137.932 389.776 136.636 389.776H133.836V393.36ZM133.836 398.624H136.796C138.444 398.624 139.26 397.904 139.26 396.592C139.26 395.232 138.444 394.656 136.7 394.656H133.836V398.624ZM142.954 388.4H150.826V389.808H144.586V393.328H150.458V394.736H144.586V398.592H150.826V400H142.954V388.4ZM157.327 395.104C157.039 395.12 156.751 395.12 156.447 395.12H154.399V400H152.767V388.4H156.447C159.279 388.4 161.279 388.96 161.279 391.744C161.279 393.584 160.399 394.464 158.975 394.848L161.663 400H159.839L157.327 395.104ZM154.399 389.776V393.744H156.575C158.271 393.744 159.599 393.568 159.599 391.776C159.599 389.984 158.271 389.776 156.575 389.776H154.399ZM174.559 391.232C174.559 393.92 171.759 396.304 168.511 398.64H174.879V400H166.527V398.688C170.623 395.664 173.023 393.472 173.023 391.424C173.023 390.224 172.223 389.408 170.847 389.408C169.599 389.408 168.383 390.096 168.351 392.016H166.847C166.815 389.712 168.415 388.192 170.879 388.192C173.023 388.192 174.559 389.28 174.559 391.232ZM180.764 400.208C177.676 400.208 176.252 397.872 176.252 394.192C176.252 390.528 177.676 388.192 180.764 388.192C183.852 388.192 185.276 390.528 185.276 394.192C185.276 397.872 183.852 400.208 180.764 400.208ZM180.764 389.408C178.94 389.408 177.804 390.976 177.804 394.192C177.804 397.424 178.94 398.992 180.764 398.992C182.588 398.992 183.724 397.424 183.724 394.192C183.724 390.976 182.588 389.408 180.764 389.408ZM194.575 391.232C194.575 393.92 191.775 396.304 188.527 398.64H194.895V400H186.543V398.688C190.639 395.664 193.039 393.472 193.039 391.424C193.039 390.224 192.239 389.408 190.863 389.408C189.615 389.408 188.399 390.096 188.367 392.016H186.863C186.831 389.712 188.431 388.192 190.895 388.192C193.039 388.192 194.575 389.28 194.575 391.232ZM202.636 396.752C202.636 395.088 201.148 394.544 199.292 394.544H199.052V393.216H199.244C201.26 393.216 202.332 392.656 202.332 391.296C202.332 390.048 201.308 389.408 200.076 389.408C198.524 389.408 197.676 390.352 197.548 391.664H196.044C196.22 389.616 197.676 388.192 200.108 388.192C202.124 388.192 203.868 388.992 203.868 391.136C203.868 392.32 203.196 393.328 201.98 393.824C203.708 394.368 204.188 395.52 204.188 396.736C204.188 399.072 202.204 400.208 199.996 400.208C197.276 400.208 196.028 398.512 195.868 396.576H197.372C197.532 398 198.38 398.992 200.012 398.992C201.548 398.992 202.636 398.192 202.636 396.752Z" fill="#212121"/>
</svg>
