<svg width="1520" height="850" viewBox="0 0 1520 850" fill="none" xmlns="http://www.w3.org/2000/svg">
<path d="M312.066 280.066C334.132 280.03 352 262.132 352 240.066V40C352 17.9086 369.909 0 392 0H1156C1178.09 0 1196 17.9086 1196 40V59C1196 81.0914 1213.91 99 1236 99H1480C1502.09 99 1520 116.909 1520 139V359.526C1520 381.607 1502.11 399.512 1480.03 399.526L1180.79 399.724C1158.68 399.738 1140.78 417.683 1140.82 439.79L1140.93 510.067C1140.97 532.132 1158.87 550 1180.93 550H1310C1332.09 550 1350 567.909 1350 590V810C1350 832.091 1332.09 850 1310 850H1090C1067.91 850 1050 832.091 1050 810V690C1050 667.909 1032.09 650 1010 650H325C311.193 650 300 661.193 300 675C300 688.807 288.807 700 275 700H40C17.9086 700 0 682.091 0 660V425C0 411.193 11.1929 400 25 400C38.8071 400 50 388.807 50 375V320.434C50 298.368 67.8683 280.47 89.9338 280.434L312.066 280.066Z" fill="#4EAF77"/>
</svg>
