<svg width="40" height="40" viewBox="0 0 40 40" fill="none" xmlns="http://www.w3.org/2000/svg">
<path d="M31 20.7756C31 19.9989 30.9233 19.1972 30.7955 18.4455H19.7272V22.8801H26.0666C25.8109 24.3082 24.9674 25.5609 23.7149 26.3627L27.498 29.2439C29.7219 27.2145 31 24.2581 31 20.7756Z" fill="#4280EF"/>
<path d="M19.726 32C22.8957 32 25.5541 30.9728 27.4968 29.219L23.7136 26.3628C22.6656 27.0643 21.3108 27.4652 19.726 27.4652C16.6586 27.4652 14.0768 25.4358 13.1311 22.73L9.24566 25.6613C11.2395 29.5447 15.2783 32 19.726 32Z" fill="#34A353"/>
<path d="M13.132 22.7053C12.6463 21.2772 12.6463 19.7238 13.132 18.2957L9.24662 15.3393C7.5851 18.5964 7.58414 22.4293 9.24566 25.6613L13.132 22.7053Z" fill="#F6B704"/>
<path d="M19.726 13.5603C21.3875 13.5352 23.0235 14.1616 24.2249 15.289L27.5735 11.9819C25.4519 10.0277 22.6401 8.97538 19.726 9.00044C15.2783 9.00044 11.2404 11.4559 9.24662 15.3393L13.132 18.2957C14.0778 15.5648 16.6586 13.5603 19.726 13.5603Z" fill="#E54335"/>
</svg>
