<svg width="50" height="50" viewBox="0 0 50 50" fill="none" xmlns="http://www.w3.org/2000/svg">
<rect width="50" height="50" rx="25" fill="#0096F7"/>
<path d="M36.394 37.8765C36.394 37.8765 32.4573 36.3807 29.2723 35.1823H15.8782C14.2923 35.1823 13.0073 33.8657 13.0073 32.2423V15.009C13.0073 13.3865 14.2923 12.0698 15.8782 12.0698H33.5215C35.1073 12.0698 36.3932 13.3865 36.3932 15.009V29.8515L36.394 29.8507V37.8765ZM32.9373 28.2132C32.6623 27.8848 32.1782 27.8473 31.8582 28.1282C31.8332 28.1498 29.3398 30.2915 24.699 30.2915C20.1173 30.2915 17.5857 28.1648 17.5398 28.1265C17.219 27.8465 16.7373 27.8857 16.4623 28.2132C16.1865 28.5423 16.2248 29.0365 16.5457 29.319C16.6648 29.4223 19.5007 31.859 24.699 31.859C29.8998 31.859 32.7365 29.4223 32.854 29.319C33.1748 29.0365 33.2132 28.5423 32.9373 28.2132Z" fill="white"/>
</svg>
