<svg width="56" height="56" viewBox="0 0 56 56" fill="none" xmlns="http://www.w3.org/2000/svg">
<circle cx="28" cy="28" r="28" fill="#1DBE61"/>
<path d="M37.4905 40.79C36.9704 41.5846 36.0671 42.0504 35.1091 41.9956C34.151 41.9408 32.9192 41.8038 32.0707 41.5846C28.2932 40.5981 24.3789 38.2416 21.0668 34.9259C17.7547 31.6103 15.4006 27.6918 14.4152 23.9103C14.1962 23.0609 14.0867 21.8552 14.0046 20.8961C13.9498 19.9645 14.3878 19.0602 15.1816 18.5396L18.5485 16.2926C19.4244 15.7172 20.6015 16.0186 21.0668 16.9502L23.8041 22.2388C24.1873 22.9787 23.9957 23.9104 23.3387 24.431L20.8752 26.3491C21.8606 28.1851 22.7913 29.6648 24.5979 31.4459C26.2676 33.1174 27.7184 34.1039 29.6071 35.1178L31.5506 32.6242C32.0707 31.9665 33.0014 31.7473 33.7404 32.1583L39.0508 34.8985C39.9814 35.3644 40.2825 36.5427 39.7077 37.4195L37.4905 40.79Z" fill="white"/>
</svg>
