<svg width="22" height="20" viewBox="0 0 22 20" fill="none" xmlns="http://www.w3.org/2000/svg">
<path fill-rule="evenodd" clip-rule="evenodd" d="M15.6092 11.985C15.3552 11.86 14.1056 11.2625 13.8721 11.1788C13.6399 11.0963 13.4705 11.0563 13.2999 11.3038C13.0459 11.6383 12.7771 11.962 12.4942 12.2738C12.348 12.4388 12.1991 12.4613 11.9451 12.3363C11.6911 12.2113 10.8726 11.9513 9.90136 11.1075C9.34578 10.607 8.86934 10.0291 8.48754 9.39252C8.34 9.14502 8.47215 9.01002 8.59916 8.88627C8.71206 8.77627 8.8519 8.59752 8.97892 8.45253C9.10721 8.30878 9.14955 8.20503 9.23294 8.04003C9.3189 7.87378 9.27656 7.73003 9.21241 7.60628C9.14827 7.48128 8.64022 6.26253 8.42981 5.76628C8.22197 5.28503 8.01413 5.34878 7.85761 5.34128C7.69519 5.33482 7.53264 5.33232 7.37009 5.33378C7.24112 5.33698 7.11424 5.36618 6.99743 5.41954C6.88062 5.47289 6.77642 5.54924 6.69141 5.64378C6.46047 5.89128 5.80103 6.49003 5.80103 7.70878C5.80103 8.92877 6.71193 10.105 6.84023 10.2713C6.96852 10.4363 8.63252 12.9375 11.1818 14.0088C11.7886 14.265 12.262 14.4163 12.6315 14.5313C13.2409 14.7188 13.7939 14.6938 14.2326 14.6288C14.7201 14.5588 15.7362 14.0313 15.9479 13.4525C16.1596 12.8738 16.1596 12.3775 16.0955 12.2738C16.0313 12.17 15.8633 12.11 15.6092 11.985ZM10.9713 18.155H10.9688C9.45453 18.1547 7.96825 17.7575 6.66575 17.005L6.35655 16.8275L3.15686 17.645L4.01003 14.6063L3.8086 14.2938C2.96247 12.9808 2.51459 11.4616 2.51667 9.91127C2.51972 7.72682 3.41199 5.63275 4.99772 4.08846C6.58345 2.54417 8.73315 1.67577 10.9752 1.67379C12.086 1.67138 13.1863 1.88369 14.2123 2.29845C15.2383 2.7132 16.1697 3.32215 16.9525 4.09003C17.7394 4.85406 18.3632 5.76241 18.7877 6.76264C19.2123 7.76287 19.4292 8.83514 19.426 9.91752C19.4235 14.4588 15.631 18.155 10.9713 18.155ZM18.1675 2.90504C17.2249 1.98097 16.1036 1.24836 14.8683 0.749697C13.633 0.251031 12.3084 -0.0037773 10.9713 4.23142e-05C5.36483 4.23142e-05 0.800069 4.44628 0.797504 9.91002C0.794969 11.6496 1.26411 13.3589 2.15744 14.865L0.714111 20L6.10766 18.6225C7.5985 19.4132 9.26883 19.8274 10.9662 19.8275H10.9726C16.5766 19.8275 21.1413 15.3825 21.1426 9.91877C21.147 8.61622 20.8862 7.32574 20.3753 6.12205C19.8644 4.91836 19.1135 3.82535 18.1662 2.90629" fill="#212121"/>
</svg>
