<svg width="20" height="20" viewBox="0 0 20 20" fill="none" xmlns="http://www.w3.org/2000/svg">
<path fill-rule="evenodd" clip-rule="evenodd" d="M14.5826 11.985C14.3339 11.86 13.1106 11.2625 12.882 11.1788C12.6546 11.0963 12.4888 11.0563 12.3218 11.3038C12.0731 11.6383 11.8099 11.962 11.533 12.2738C11.3898 12.4388 11.2441 12.4613 10.9954 12.3363C10.7467 12.2113 9.94534 11.9513 8.99451 11.1075C8.45059 10.607 7.98414 10.0291 7.61035 9.39252C7.46591 9.14502 7.59528 9.01002 7.71963 8.88627C7.83016 8.77627 7.96707 8.59752 8.09142 8.45252C8.21702 8.30877 8.25847 8.20502 8.34012 8.04002C8.42427 7.87378 8.38282 7.73003 8.32002 7.60628C8.25722 7.48128 7.75982 6.26253 7.55383 5.76628C7.35035 5.28503 7.14688 5.34878 6.99364 5.34128C6.83463 5.33482 6.67548 5.33232 6.51634 5.33378C6.39008 5.33698 6.26586 5.36618 6.1515 5.41954C6.03714 5.47289 5.93513 5.54924 5.8519 5.64378C5.62581 5.89128 4.9802 6.49003 4.9802 7.70878C4.9802 8.92877 5.87199 10.105 5.9976 10.2713C6.1232 10.4363 7.75229 12.9375 10.248 14.0088C10.8421 14.265 11.3056 14.4163 11.6674 14.5313C12.264 14.7188 12.8053 14.6938 13.2349 14.6288C13.7122 14.5588 14.707 14.0313 14.9142 13.4525C15.1215 12.8738 15.1215 12.3775 15.0587 12.2738C14.9959 12.17 14.8313 12.11 14.5826 11.985ZM10.0421 18.155H10.0395C8.55705 18.1547 7.10195 17.7575 5.82678 17.005L5.52407 16.8275L2.3915 17.645L3.22677 14.6063L3.02957 14.2938C2.20119 12.9808 1.76271 11.4616 1.76474 9.91127C1.76773 7.72682 2.64128 5.63275 4.19374 4.08846C5.74621 2.54417 7.8508 1.67577 10.0458 1.67379C11.1333 1.67138 12.2105 1.88369 13.215 2.29845C14.2195 2.7132 15.1313 3.32215 15.8977 4.09003C16.6681 4.85406 17.2788 5.76241 17.6944 6.76264C18.1101 7.76287 18.3225 8.83514 18.3194 9.91752C18.3169 14.4588 14.604 18.155 10.0421 18.155ZM17.0872 2.90504C16.1645 1.98097 15.0666 1.24836 13.8572 0.749697C12.6479 0.251031 11.3511 -0.0037773 10.0421 4.23142e-05C4.55315 4.23142e-05 0.0841548 4.44628 0.0816428 9.91002C0.0791613 11.6496 0.538456 13.3589 1.41305 14.865L0 20L5.2804 18.6225C6.73996 19.4131 8.37525 19.8274 10.037 19.8275H10.0433C15.5297 19.8275 19.9987 15.3825 19.9999 9.91877C20.0043 8.61622 19.7489 7.32574 19.2487 6.12205C18.7486 4.91836 18.0134 3.82535 17.0859 2.90629" fill="#212121"/>
</svg>
