<svg width="91" height="23" viewBox="0 0 91 23" fill="none" xmlns="http://www.w3.org/2000/svg">
<path opacity="0.9" d="M51.5866 7.49698C51.5866 4.81288 51.6325 2.31388 51.7703 0L44.742 1.34205V1.98994L45.4311 2.08249C45.9364 2.12877 46.2579 2.31388 46.4417 2.59155C46.6254 2.91549 46.7632 3.37827 46.8551 4.07243C46.947 5.41449 47.0389 8.46881 46.9929 13.2817C46.9929 18.0483 46.947 21.0563 46.8551 22.2133C49.3816 22.7686 51.3569 23 52.8269 23C55.583 23 57.7421 22.2133 59.3039 20.5936C60.8657 19.0201 61.6926 16.7988 61.6926 14.0684C61.6926 11.8934 61.0954 10.0885 59.9011 8.65392C58.7067 7.21932 57.1908 6.52515 55.3993 6.52515C54.2049 6.52515 52.9647 6.84909 51.5866 7.49698ZM51.7244 21.7505C51.6325 20.2696 51.5406 15.827 51.5406 8.56137C51.9541 8.42253 52.5053 8.32998 53.1943 8.32998C54.2968 8.32998 55.1696 8.88531 55.8127 10.0423C56.4558 11.1992 56.7774 12.5875 56.7774 14.3461C56.7774 16.5211 56.4099 18.2797 55.6749 19.7606C54.9399 21.1952 54.0212 21.9356 52.8728 21.9356C52.5053 21.8431 52.1378 21.7968 51.7244 21.7505ZM18.3746 0.462777H0V1.38833L0.964664 1.48089C1.69965 1.61972 2.20495 1.89738 2.5265 2.31388C2.84806 2.77666 3.0318 3.5171 3.07774 4.53521C3.44523 9.5332 3.44523 14.2072 3.07774 18.5111C2.98587 19.5292 2.80212 20.2696 2.5265 20.7324C2.20495 21.1952 1.69965 21.4728 0.964664 21.5654L0 21.7042V22.6298H11.8516V21.7042L10.6113 21.6117C9.87632 21.5191 9.37103 21.1952 9.04947 20.7787C8.72791 20.3159 8.54417 19.5755 8.49823 18.5573C8.36042 16.7062 8.26855 14.5775 8.26855 12.2173L10.7491 12.2636C12.0813 12.3099 13 13.328 13.4594 15.3642H14.3781V7.82093H13.4594C13 9.81087 12.1272 10.829 10.7491 10.8753L8.26855 10.9215C8.26855 6.75654 8.36042 3.79477 8.49823 1.98994H12.1272C14.6996 1.98994 16.4452 3.65594 17.4558 6.98793L18.5583 6.66398L18.3746 0.462777ZM16.2155 14.7163C16.2155 17.1227 16.9046 19.1127 18.2367 20.6861C19.5689 22.2596 21.5442 23 24.0247 23C26.5053 23 28.5265 22.2133 29.9965 20.5936C31.4664 19.0201 32.1555 17.0302 32.1555 14.6237C32.1555 12.2173 31.4664 10.2274 30.1343 8.65392C28.8021 7.08048 26.8269 6.34004 24.3463 6.34004C21.8657 6.34004 19.8445 7.12676 18.3746 8.74648C16.9046 10.3199 16.2155 12.3099 16.2155 14.7163ZM26.4594 9.44064C27.0106 10.7827 27.2403 12.5412 27.2403 14.67C27.2403 19.5755 26.2297 21.9819 24.2544 21.9819C23.2438 21.9819 22.4629 21.2877 21.9117 19.8994C21.3604 18.5111 21.1307 16.7525 21.1307 14.67C21.1307 9.81087 22.1413 7.40443 24.1166 7.40443C25.1272 7.35815 25.9081 8.05231 26.4594 9.44064ZM65.2756 20.6861C66.7915 22.2133 68.7208 23 71.0177 23C72.4417 23 73.682 22.7223 74.7844 22.1207C75.8869 21.5654 76.7597 20.8712 77.3569 20.0382L76.8975 19.4829C75.8869 20.2696 74.7385 20.6398 73.4064 20.6398C71.5689 20.6398 70.1449 20.0382 69.1802 18.7887C68.1696 17.5392 67.7103 15.9658 67.8021 13.9296H77.6325C77.6325 11.7082 77.0813 9.90342 75.9329 8.46881C74.7844 7.08048 73.1767 6.38632 71.1095 6.38632C68.5371 6.38632 66.5618 7.21932 65.1378 8.83903C63.7138 10.4588 63.0247 12.4487 63.0247 14.8089C63.0247 17.2153 63.7597 19.159 65.2756 20.6861ZM68.6749 9.07042C69.1802 7.95976 69.8233 7.40443 70.6961 7.40443C72.0742 7.40443 72.7632 9.16298 72.7632 12.7264L67.894 12.8189C67.9399 11.4306 68.1696 10.1811 68.6749 9.07042ZM89.9894 7.21932C88.7491 6.66398 87.1873 6.34004 85.3039 6.34004C83.3745 6.34004 81.8587 6.84909 80.7102 7.82093C79.5618 8.79276 78.9647 9.99598 78.9647 11.4306C78.9647 12.6801 79.3322 13.6519 80.0212 14.3461C80.7102 15.0402 81.8127 15.6419 83.2367 16.1509C84.523 16.6137 85.4417 17.0765 85.9011 17.493C86.3604 17.9557 86.636 18.4648 86.636 19.159C86.636 19.8068 86.4064 20.4084 85.9011 20.8712C85.4417 21.3803 84.7986 21.6117 83.9717 21.6117C81.9505 21.6117 80.4346 20.1308 79.3781 17.169L78.5972 17.4004L78.7809 22.0282C80.4346 22.6761 82.2721 23 84.2933 23C86.4064 23 88.0141 22.5372 89.2085 21.5654C90.4028 20.6398 91 19.2978 91 17.6318C91 16.5211 90.7244 15.5956 90.1272 14.9014C89.53 14.2072 88.5654 13.6056 87.1873 13.0503C85.6714 12.495 84.6148 11.9859 84.0636 11.5231C83.5124 11.0604 83.2367 10.505 83.2367 9.81087C83.2367 9.1167 83.4205 8.56137 83.8339 8.09859C84.2473 7.63581 84.7526 7.4507 85.3958 7.4507C87.2332 7.4507 88.5654 8.79276 89.3922 11.4306L90.1731 11.1992L89.9894 7.21932ZM45.7986 6.80282C45.1555 6.47887 44.4664 6.34004 43.6855 6.34004C42.9046 6.34004 42.1237 6.66398 41.2509 7.31187C40.3781 7.95976 39.735 8.83904 39.2297 10.0423L39.2756 6.34004L32.2933 7.72837V8.37626L32.9823 8.42254C33.8551 8.51509 34.3604 9.20926 34.4523 10.4588C34.7279 13.328 34.7279 16.3823 34.4523 19.6217C34.3604 20.8712 33.8551 21.5191 32.9823 21.6579L32.2933 21.7505V22.6298H42.0318V21.7505L40.7915 21.6579C39.9187 21.5654 39.4134 20.8712 39.3216 19.6217C39.0459 16.9376 39 14.0684 39.2297 11.1066C39.5053 10.6439 40.1025 10.3662 41.0212 10.2736C41.9399 10.1811 42.9965 10.4588 44.0989 11.1066L45.7986 6.80282Z" fill="#181D1F"/>
</svg>
