<svg width="143" height="25" viewBox="0 0 143 25" fill="none" xmlns="http://www.w3.org/2000/svg">
<g opacity="0.9">
<path fill-rule="evenodd" clip-rule="evenodd" d="M12.7468 0C5.8689 0 0.266113 5.60278 0.266113 12.4807C0.266113 19.3972 5.8689 25 12.7468 25C19.6633 25 25.2661 19.3972 25.2661 12.4807C25.2661 5.60278 19.6633 0 12.7468 0ZM11.1622 12.3647C12.051 12.3647 13.5966 12.2488 15.1422 11.8237C15.8763 12.0942 18.3106 14.2967 18.3106 16.306C18.3106 18.3539 16.4946 20.0154 14.9103 20.0154H11.4327C10.8531 20.0154 10.3508 19.5131 10.3508 18.8948V4.82993H14.7171C16.0695 4.82993 17.3833 6.18233 17.3833 7.57336C17.3833 10.3941 14.2148 11.6306 11.1622 11.6306V12.3647ZM6.33226 20.2472H5.4049V20.8655H15.4126C17.1128 20.8655 20.4745 19.4358 20.4745 16.306C20.4745 13.6398 17.3446 11.5533 16.6491 11.3214C18.3106 10.6259 19.2766 9.46672 19.2766 7.57336C19.2766 5.68001 18.1174 4.25033 15.8377 4.25033H5.4049V4.82993H6.21634H6.33226C7.06642 4.82993 7.68466 5.44817 7.68466 6.18233V6.33689V18.8948C7.68466 19.6676 7.06642 20.2472 6.33226 20.2472ZM12.5146 5.40953V10.9737C13.017 10.935 13.867 10.8191 14.4853 10.5873V5.40953H12.5146ZM12.5146 12.8284V19.5904H14.4853V12.5965C13.7898 12.7125 13.1715 12.7897 12.5146 12.8284ZM12.5146 21.2132V21.4064C12.5146 21.8701 12.2055 22.2565 11.7805 22.3724H10.7372V22.952H16.2627V22.3724H15.2194C14.7944 22.2565 14.4853 21.8701 14.4853 21.4064V21.2132H12.5146ZM14.4853 3.8253C14.4853 3.28434 14.9103 2.8593 15.4126 2.8593H16.2627V2.2797H10.7372V2.8593H11.5486C12.0896 2.8593 12.5146 3.28434 12.5146 3.8253H14.4853Z" fill="#181D1F"/>
<path fill-rule="evenodd" clip-rule="evenodd" d="M137.09 10.5878L138.249 13.2154H135.853L137.09 10.5878ZM137.206 7.49665H137.129L133.303 15.1087C133.033 15.6497 132.801 16.0747 132.646 16.3452C132.453 16.6543 132.337 16.8861 132.221 17.0407C132.067 17.2339 131.989 17.3498 131.874 17.4657H134.269C134.269 17.0793 134.347 16.6929 134.462 16.3065C134.578 15.9588 134.694 15.6497 134.772 15.4565L135.274 14.4132H138.79L139.37 15.7269C139.524 16.1133 139.64 16.4611 139.679 16.7316C139.756 17.0021 139.756 17.2725 139.756 17.4657H142.113C141.92 17.2339 141.727 16.8861 141.456 16.4997C141.224 16.1133 140.915 15.5337 140.568 14.7609L137.206 7.49665ZM128.782 7.57393C128.898 7.84441 129.014 8.19217 129.091 8.53992C129.13 8.92632 129.169 9.35136 129.169 9.93096V14.645C129.169 15.186 129.169 15.611 129.13 15.9588C129.091 16.3065 129.053 16.6157 128.976 16.8475C128.937 17.0793 128.86 17.2725 128.782 17.4657H131.023C130.869 16.9634 130.792 16.5384 130.714 16.152C130.676 15.7656 130.637 15.3019 130.637 14.7609V10.2014C130.676 9.46728 130.714 8.92632 130.753 8.53992C130.83 8.15353 130.946 7.84441 131.023 7.57393H128.782ZM127.353 7.92169C127.121 7.80577 126.85 7.72849 126.503 7.61257C126.194 7.49665 125.768 7.45801 125.343 7.45801C124.493 7.45801 123.798 7.76713 123.257 8.30809C122.716 8.84904 122.407 9.50592 122.407 10.3174C122.407 10.8197 122.484 11.2447 122.716 11.5538C122.909 11.9016 123.218 12.2494 123.643 12.5585C124.107 12.8676 124.648 13.254 125.382 13.679C125.537 13.7563 125.691 13.9109 125.884 14.1427C126.078 14.3745 126.194 14.645 126.194 14.9928C126.194 15.3405 126.039 15.6883 125.768 15.9588C125.498 16.2293 125.15 16.3838 124.725 16.3838C124.262 16.3452 123.875 16.2293 123.566 15.9588C123.257 15.7269 122.986 15.4565 122.755 15.186V17.2725C122.986 17.3498 123.257 17.4271 123.489 17.4657C123.759 17.5044 124.107 17.543 124.493 17.543C125.537 17.543 126.348 17.2725 126.928 16.7316C127.546 16.2293 127.816 15.5337 127.855 14.7223C127.855 14.2586 127.739 13.7949 127.469 13.3699C127.198 12.9835 126.734 12.5585 126 12.1721C125.382 11.8243 124.88 11.4766 124.493 11.1674C124.146 10.8583 123.952 10.4719 123.952 10.0082C123.952 9.62184 124.107 9.31272 124.377 9.04224C124.687 8.8104 125.034 8.69448 125.459 8.69448C125.923 8.69448 126.271 8.77176 126.58 8.92632C126.889 9.11952 127.121 9.27408 127.353 9.46728V7.92169ZM116.07 7.57393C116.186 7.99897 116.302 8.46264 116.34 8.88768C116.418 9.35136 116.418 9.73776 116.418 10.0855V14.9155C116.418 15.5337 116.379 16.0747 116.302 16.4611C116.224 16.8475 116.147 17.1953 116.07 17.4657H121.248L121.982 15.8429C121.286 16.0747 120.707 16.2293 120.282 16.3452C119.818 16.4225 119.432 16.4997 119.045 16.4997C118.697 16.5384 118.311 16.5384 117.925 16.5384V12.9062C118.156 12.9449 118.388 12.9449 118.581 12.9835C118.775 12.9835 119.006 13.0608 119.238 13.0994C119.509 13.1767 119.818 13.254 120.166 13.3313L121.016 11.9789H117.925V8.50128C118.427 8.50128 118.852 8.50128 119.238 8.6172C119.663 8.69448 120.127 8.84904 120.668 9.08088L121.402 7.57393H116.07ZM104.98 7.57393C105.251 7.80577 105.483 7.99897 105.676 8.19217C105.869 8.38536 106.062 8.6172 106.294 8.88768V14.8769C106.294 14.9155 106.294 15.1087 106.294 15.3792C106.294 15.6883 106.255 15.9974 106.217 16.3838C106.139 16.7702 106.062 17.118 105.985 17.4657H108.071C107.917 17.0407 107.84 16.577 107.762 16.0361C107.685 15.5337 107.685 15.0314 107.685 14.5677V10.6651L111.897 16.0361C112.09 16.2679 112.245 16.4997 112.399 16.7316C112.554 16.9634 112.67 17.2339 112.747 17.4657H114.602C114.524 17.2725 114.447 17.0021 114.37 16.6543C114.292 16.3065 114.254 15.7656 114.254 14.9928V9.69912C114.254 9.15816 114.292 8.73312 114.331 8.424C114.37 8.11489 114.447 7.80577 114.524 7.57393H112.592C112.67 7.76713 112.708 7.96033 112.747 8.15353C112.785 8.38536 112.824 8.65584 112.863 9.0036C112.863 9.35136 112.863 9.81504 112.863 10.4333V14.9155L108.381 9.23544C108.033 8.77176 107.762 8.424 107.646 8.19217C107.53 7.99897 107.415 7.76713 107.337 7.57393H104.98ZM95.8225 12.1721C95.8225 11.5538 95.9385 10.9356 96.2089 10.3946C96.4794 9.85368 96.8658 9.39 97.3681 9.04224C97.8318 8.73312 98.4114 8.53992 99.1069 8.53992C99.8797 8.53992 100.537 8.77176 101.155 9.1968C101.734 9.62184 102.159 10.1628 102.507 10.8197C102.816 11.4766 102.971 12.1334 102.971 12.8676C103.01 13.3699 102.855 13.9109 102.623 14.4905C102.391 15.0314 102.044 15.4951 101.58 15.8815C101.078 16.2679 100.498 16.4611 99.7638 16.4611C99.1069 16.4611 98.4887 16.3065 97.8705 15.9588C97.2909 15.611 96.7885 15.1473 96.4021 14.4905C96.0157 13.8722 95.8225 13.0994 95.8225 12.1721ZM94.161 12.4039C94.161 13.2926 94.3542 14.1041 94.7793 14.8769C95.2043 15.6497 95.7839 16.2679 96.5567 16.7702C97.3295 17.2725 98.2569 17.543 99.3388 17.543C100.266 17.543 101.155 17.3498 101.928 16.9248C102.7 16.4997 103.319 15.9201 103.782 15.186C104.285 14.4132 104.517 13.5245 104.517 12.4812C104.517 11.6311 104.323 10.8197 103.976 10.0469C103.589 9.31272 103.048 8.69448 102.314 8.23081C101.58 7.72849 100.691 7.49665 99.5706 7.45801C98.4501 7.49665 97.4454 7.76713 96.634 8.26945C95.8225 8.77176 95.2043 9.39 94.7793 10.1628C94.3542 10.897 94.161 11.6698 94.161 12.4039ZM87.8241 10.2787C87.8241 10.0469 87.8241 9.73776 87.8241 9.42864C87.8627 9.08088 87.8627 8.77176 87.9014 8.46264C88.9446 8.6172 89.7561 8.92632 90.297 9.39C90.8766 9.85368 91.263 10.356 91.4562 10.9356C91.6881 11.4766 91.7654 11.9789 91.7654 12.4812C91.7654 13.0222 91.6494 13.5631 91.4176 14.1427C91.1858 14.7223 90.7994 15.2633 90.2198 15.6883C89.6402 16.1133 88.8674 16.3838 87.9014 16.4997C87.8627 16.2679 87.8627 16.0361 87.8627 15.8042C87.8241 15.611 87.8241 15.3792 87.8241 15.1473C87.8241 14.9155 87.8241 14.6064 87.8241 14.22V10.2787ZM86.3558 14.4518C86.3558 15.0701 86.3171 15.5337 86.2785 15.9201C86.2398 16.3065 86.2012 16.577 86.1626 16.8089C86.0853 17.0793 86.008 17.2725 85.9307 17.4657H88.3264C89.4083 17.4657 90.3357 17.2339 91.1085 16.8089C91.8813 16.3452 92.4609 15.7656 92.8859 15.0314C93.2723 14.2973 93.5042 13.4858 93.5042 12.5971C93.5042 12.1334 93.4269 11.6311 93.2723 11.1288C93.1178 10.6265 92.8859 10.1242 92.4995 9.66048C91.9972 9.0036 91.4176 8.53992 90.7994 8.23081C90.1811 7.92169 89.5629 7.72849 88.906 7.65121C88.2491 7.57393 87.5922 7.53529 86.974 7.53529C86.7808 7.53529 86.5876 7.53529 86.433 7.57393L85.9307 7.61257C86.008 7.80577 86.0853 8.15353 86.2012 8.57856C86.2785 9.0036 86.3558 9.5832 86.3558 10.2787V14.4518ZM74.9184 7.57393C75.1888 7.80577 75.4207 7.99897 75.6139 8.19217C75.8071 8.38536 76.0389 8.6172 76.2321 8.88768V14.8769C76.2321 14.9155 76.2321 15.1087 76.2321 15.3792C76.2321 15.6883 76.1935 15.9974 76.1548 16.3838C76.0776 16.7702 76.0389 17.118 75.923 17.4657H78.0096C77.855 17.0407 77.7777 16.577 77.7004 16.0361C77.6618 15.5337 77.6232 15.0314 77.6232 14.5677V10.6651L81.8349 16.0361C82.0281 16.2679 82.1827 16.4997 82.3372 16.7316C82.4918 16.9634 82.6077 17.2339 82.685 17.4657H84.5397C84.4624 17.2725 84.3851 17.0021 84.3079 16.6543C84.2306 16.3065 84.1919 15.7656 84.1919 14.9928V9.69912C84.1919 9.15816 84.2306 8.73312 84.2692 8.424C84.3079 8.11489 84.3851 7.80577 84.4624 7.57393H82.5304C82.6077 7.76713 82.6463 7.96033 82.685 8.15353C82.7236 8.38536 82.7623 8.65584 82.8009 9.0036C82.8009 9.35136 82.8395 9.81504 82.8395 10.4333V14.9155L78.3187 9.23544C77.9709 8.77176 77.7004 8.424 77.5845 8.19217C77.4686 7.99897 77.3527 7.76713 77.2754 7.57393H74.9184ZM71.8658 7.57393C71.9817 7.84441 72.0976 8.19217 72.1363 8.53992C72.2136 8.92632 72.2522 9.35136 72.2522 9.93096V14.645C72.2522 15.186 72.2136 15.611 72.1749 15.9588C72.1363 16.3065 72.0976 16.6157 72.059 16.8475C71.9817 17.0793 71.9431 17.2725 71.8658 17.4657H74.1069C73.9524 16.9634 73.8751 16.5384 73.7978 16.152C73.7592 15.7656 73.7205 15.3019 73.7205 14.7609V10.2014C73.7205 9.46728 73.7592 8.92632 73.8364 8.53992C73.9137 8.15353 73.991 7.84441 74.1069 7.57393H71.8658ZM58.4964 7.61257C58.6123 7.92169 58.6896 8.26945 58.7669 8.65584C58.8055 9.0036 58.8442 9.39 58.8442 9.69912V14.8769C58.8442 15.3019 58.8055 15.7656 58.7669 16.1906C58.6896 16.6157 58.5737 17.0407 58.4578 17.4657H60.6989C60.6216 17.2725 60.5443 16.9248 60.467 16.4997C60.3898 16.0747 60.3511 15.5724 60.3511 14.9928V12.1334L63.0559 15.5337C63.4423 16.0361 63.7128 16.4225 63.8287 16.6929C63.9833 17.0021 64.0605 17.2339 64.1378 17.4657H66.5335C66.2244 17.1566 65.9925 16.9248 65.8766 16.7702C65.7221 16.6157 65.5675 16.4225 65.4129 16.1906L62.0513 11.9789L63.8287 9.85368C64.2924 9.27408 64.7174 8.84904 65.1038 8.46264C65.4902 8.11489 65.838 7.80577 66.1857 7.57393H63.6741C63.6355 7.72849 63.5582 7.88305 63.4809 8.03761C63.4037 8.23081 63.2105 8.50128 62.9013 8.84904L60.3511 11.9789V10.0082C60.3511 9.5832 60.3511 9.1968 60.3898 8.92632C60.4284 8.65584 60.467 8.38536 60.5443 8.19217C60.583 7.99897 60.6602 7.76713 60.7375 7.57393L58.4964 7.61257ZM47.3295 7.57393C47.5999 7.80577 47.8704 7.99897 48.025 8.19217C48.2182 8.38536 48.45 8.6172 48.6819 8.88768V14.8769C48.6819 14.9155 48.6432 15.1087 48.6432 15.3792C48.6432 15.6883 48.6046 15.9974 48.5659 16.3838C48.5273 16.7702 48.45 17.118 48.3341 17.4657H50.4207C50.3047 17.0407 50.1888 16.577 50.1115 16.0361C50.0729 15.5337 50.0343 15.0314 50.0343 14.5677V10.6651L54.246 16.0361C54.4392 16.2679 54.5938 16.4997 54.7483 16.7316C54.9029 16.9634 55.0188 17.2339 55.0961 17.4657H56.9508C56.8735 17.2725 56.7962 17.0021 56.719 16.6543C56.6417 16.3065 56.603 15.7656 56.603 14.9928V9.69912C56.603 9.15816 56.6417 8.73312 56.6803 8.424C56.7576 8.11489 56.7962 7.80577 56.8735 7.57393H54.9802C55.0188 7.76713 55.0574 7.96033 55.0961 8.15353C55.1347 8.38536 55.1734 8.65584 55.212 9.0036C55.212 9.35136 55.2506 9.81504 55.2506 10.4333V14.9155L50.7684 9.23544C50.382 8.77176 50.1115 8.424 49.9956 8.19217C49.8797 7.99897 49.7638 7.76713 49.6865 7.57393H47.3295ZM42.1131 10.5878L43.2723 13.2154H40.838L42.1131 10.5878ZM42.229 7.49665H42.1517L38.3264 15.1087C38.0559 15.6497 37.8241 16.0747 37.6309 16.3452C37.4763 16.6543 37.3217 16.8861 37.2058 17.0407C37.0899 17.2339 36.974 17.3498 36.8581 17.4657H39.2924C39.2924 17.0793 39.331 16.6929 39.4469 16.3065C39.6015 15.9588 39.6788 15.6497 39.7947 15.4565L40.297 14.4132H43.7746L44.3542 15.7269C44.5474 16.1133 44.6633 16.4611 44.702 16.7316C44.7406 17.0021 44.7792 17.2725 44.7792 17.4657H47.1363C46.9431 17.2339 46.7499 16.8861 46.4794 16.4997C46.2476 16.1133 45.9384 15.5337 45.5907 14.7609L42.229 7.49665ZM32.569 12.288C33.1873 12.4812 33.6896 12.6744 34.0373 12.9449C34.3851 13.254 34.6169 13.5245 34.7329 13.8336C34.8874 14.1427 34.9261 14.4132 34.9261 14.6837C34.9261 14.7996 34.8874 15.0314 34.8101 15.3405C34.7329 15.6497 34.5397 15.9201 34.1919 16.1906C33.8441 16.4611 33.3032 16.577 32.569 16.577V12.288ZM32.569 8.424C33.11 8.46264 33.5737 8.6172 33.9214 8.88768C34.3078 9.11952 34.501 9.54456 34.501 10.1242C34.501 10.6651 34.3078 11.1288 33.9214 11.4379C33.5737 11.747 33.11 11.9789 32.569 12.0948V8.424ZM30.7529 7.57393C30.7916 7.68985 30.8302 7.80577 30.9075 7.99897C30.9461 8.15353 30.9848 8.424 31.0234 8.77176C31.0621 9.11952 31.1007 9.5832 31.1007 10.1628V14.6064C31.1007 14.9155 31.0621 15.3405 31.0234 15.8429C30.9848 16.3838 30.8689 16.8861 30.7143 17.4657H32.9554C33.2645 17.4657 33.6123 17.4657 33.9601 17.3885C34.3078 17.3112 34.6169 17.2339 34.8874 17.118C35.3125 16.9634 35.6989 16.6929 36.0466 16.2293C36.3944 15.8042 36.5876 15.3019 36.5876 14.7609C36.5876 14.1813 36.3944 13.679 36.0466 13.254C35.7375 12.829 35.3125 12.4426 34.8101 12.1721C34.9647 12.0562 35.1579 11.9016 35.3897 11.7084C35.5829 11.5152 35.7375 11.2834 35.8921 11.0129C36.0466 10.7424 36.1239 10.4333 36.1239 10.0082C36.1239 9.69912 36.0466 9.35136 35.8534 9.0036C35.6602 8.6172 35.3511 8.26945 34.8874 7.99897C34.4237 7.72849 33.7669 7.57393 32.9554 7.57393H30.7529Z" fill="#181D1F"/>
</g>
</svg>
