<svg width="165" height="32" viewBox="0 0 165 32" fill="none" xmlns="http://www.w3.org/2000/svg">
<path fill-rule="evenodd" clip-rule="evenodd" d="M67.9588 16.5215C67.9588 10.8215 72.7297 6.62317 78.7253 6.62317C87.7046 6.62317 97.1573 16.0883 97.1573 30.1505H103.084C103.084 13.7715 91.8724 0.654297 78.7253 0.654297C70.1118 0.654297 62.0321 6.90159 62.0321 16.5215C62.0321 25.9888 69.2997 31.3443 76.0585 31.3443C82.4645 31.3443 90.0354 26.3314 90.0354 17.0688H84.1087C84.1087 22.4298 79.8264 25.3754 76.0585 25.3754C72.2482 25.3754 67.9588 22.3744 67.9588 16.5215ZM13.9978 6.68368C11.8539 6.6839 9.79995 7.53881 8.28722 9.05675C6.77471 10.5745 5.92693 12.6305 5.92672 14.7722V30.1498H0V14.7719C0.00042969 11.0403 1.47792 7.46396 4.10397 4.8286C6.72981 2.19367 10.2887 0.71503 13.9976 0.714588C17.7067 0.714588 21.2662 2.19301 23.8923 4.82815C26.5188 7.46352 27.9965 11.0401 27.9969 14.7719V30.1498H22.0702V14.7722C22.07 12.6305 21.222 10.5742 19.7093 9.05653C18.1963 7.53837 16.1418 6.68368 13.9978 6.68368ZM45.0138 25.2646C42.8699 25.2642 40.816 24.4093 39.3033 22.8914C37.7908 21.3736 36.943 19.3176 36.9428 17.176V1.79828H31.016V17.1762C31.0165 20.9078 32.494 24.4841 35.12 27.1195C37.7458 29.7544 41.3048 31.2331 45.0136 31.2335C48.7227 31.2335 52.2823 29.7551 54.9083 27.12C57.5348 24.4846 59.0125 20.908 59.013 17.1762V1.79828H53.0862V17.176C53.0858 19.3176 52.238 21.3739 50.7253 22.8916C49.2124 24.4097 47.1578 25.2644 45.0138 25.2646ZM145.29 22.8914C146.803 24.4093 148.857 25.2642 151.001 25.2646C153.145 25.2644 155.2 24.4097 156.713 22.8916C158.225 21.3739 159.073 19.3176 159.073 17.176V1.79828H165V17.1762C165 20.908 163.522 24.4846 160.896 27.12C158.27 29.7551 154.71 31.2335 151.001 31.2335C147.292 31.2331 143.733 29.7544 141.107 27.1195C138.481 24.4841 137.004 20.9078 137.003 17.1762V1.79828H142.93V17.176C142.93 19.3176 143.778 21.3736 145.29 22.8914ZM119.935 6.96836C117.791 6.96836 115.737 7.82304 114.224 9.34121C112.711 10.8589 111.863 12.9152 111.863 15.0568V30.4345H105.937V15.0566C105.937 11.3248 107.415 7.7482 110.041 5.11283C112.667 2.47769 116.226 0.999268 119.935 0.999268C123.644 0.999709 127.204 2.47835 129.829 5.11327C132.456 7.74864 133.933 11.325 133.933 15.0566V30.4345H128.007V15.0573C128.006 12.9156 127.159 10.8591 125.646 9.34143C124.134 7.82349 122.079 6.96858 119.935 6.96836Z" fill="white"/>
</svg>
