<svg width="50" height="50" viewBox="0 0 50 50" fill="none" xmlns="http://www.w3.org/2000/svg">
<circle cx="25" cy="25" r="25" fill="white"/>
<path d="M32.2627 33.1623C31.9026 33.7124 31.2772 34.0349 30.614 33.997C29.9507 33.959 29.0979 33.8642 28.5105 33.7124C25.8953 33.0295 23.1854 31.398 20.8924 29.1026C18.5994 26.8071 16.9696 24.0943 16.2874 21.4764C16.1358 20.8883 16.06 20.0536 16.0032 19.3896C15.9653 18.7446 16.2685 18.1186 16.8181 17.7582L19.149 16.2026C19.7554 15.8042 20.5702 16.0129 20.8924 16.6579L22.7874 20.3192C23.0527 20.8314 22.9201 21.4764 22.4653 21.8368L20.7597 23.1648C21.442 24.4358 22.0863 25.4602 23.337 26.6933C24.493 27.8505 25.4973 28.5335 26.8049 29.2354L28.1504 27.509C28.5105 27.0537 29.1548 26.902 29.6665 27.1865L33.3428 29.0836C33.9871 29.4061 34.1956 30.2218 33.7976 30.8289L32.2627 33.1623Z" fill="#212121"/>
</svg>
