<svg width="104" height="25" viewBox="0 0 104 25" fill="none" xmlns="http://www.w3.org/2000/svg">
<g opacity="0.9">
<path d="M3.17179 24.4779V12.6289H11.9459V14.6334H5.56103V17.2602H11.5019V19.2566H5.56103V22.4813H12.172V24.4777L3.17179 24.4779Z" fill="#181D1F"/>
<path fill-rule="evenodd" clip-rule="evenodd" d="M3.01592 12.4727H12.1024V14.7899H5.71756V17.1039H11.6585V19.4131H5.71756V22.3251H12.3286V24.6343L3.01592 24.6345V12.4727ZM3.32832 12.7855V24.3217L12.0162 24.3215V22.6379H5.40516V19.1003H11.3461V17.4168H5.40516V14.4771H11.79V12.7855H3.32832Z" fill="#181D1F"/>
<path d="M21.7695 20.1214L24.0861 20.8569C23.731 22.1501 23.139 23.112 22.3103 23.7424C21.487 24.3674 20.4404 24.6799 19.1704 24.6799C17.5991 24.6799 16.3076 24.1438 15.296 23.0715C14.2843 21.9939 13.7785 20.5228 13.7785 18.6584C13.7785 16.6862 14.287 15.1559 15.3041 14.0675C16.3211 12.9737 17.6584 12.4268 19.3159 12.4268C20.7635 12.4268 21.9392 12.8551 22.8432 13.7119C23.3813 14.2184 23.7849 14.9458 24.054 15.8942L21.6889 16.4599C21.549 15.8457 21.2557 15.3607 20.8091 15.0051C20.3678 14.6495 19.8297 14.4716 19.1947 14.4716C18.3176 14.4716 17.6046 14.7869 17.0557 15.4173C16.5122 16.0478 16.2404 17.0688 16.2404 18.4806C16.2404 19.9785 16.5095 21.0454 17.0476 21.6813C17.5857 22.3171 18.2853 22.635 19.1463 22.635C19.7813 22.635 20.3275 22.433 20.7849 22.0288C21.2423 21.6247 21.5704 20.9889 21.7695 20.1214Z" fill="#181D1F"/>
<path fill-rule="evenodd" clip-rule="evenodd" d="M19.3162 12.5833C17.6968 12.5833 16.4028 13.1159 15.4187 14.1743C14.4366 15.2253 13.935 16.7129 13.935 18.6585C13.935 20.4938 14.4322 21.9227 15.4099 22.9643C16.3899 24.003 17.6392 24.5237 19.1707 24.5237C20.4146 24.5237 21.4259 24.218 22.2163 23.6179C22.9802 23.0367 23.5426 22.156 23.8947 20.9603L21.882 20.3213C21.6755 21.1255 21.3484 21.7399 20.8886 22.1463C20.4013 22.5767 19.8179 22.7916 19.1466 22.7916C18.2415 22.7916 17.4977 22.4548 16.9288 21.7826C16.354 21.1034 16.0846 19.9894 16.0846 18.4808C16.0846 17.0555 16.3577 15.9881 16.9378 15.3153C17.518 14.6489 18.2754 14.3154 19.1951 14.3154C19.8609 14.3154 20.4347 14.5026 20.907 14.8831C21.3457 15.2325 21.6436 15.698 21.8029 16.2721L23.8578 15.7805C23.5952 14.9282 23.2192 14.2803 22.7366 13.826C21.8663 13.0012 20.7308 12.5833 19.3162 12.5833ZM15.1902 13.961C16.2402 12.8317 17.6208 12.2705 19.3162 12.2705C20.7967 12.2705 22.0131 12.7097 22.9507 13.5983C23.5151 14.1296 23.9303 14.8849 24.2046 15.8516L24.2491 16.0085L21.5721 16.6489L21.537 16.4949C21.4041 15.9114 21.1282 15.4589 20.7122 15.1277L20.7115 15.1271C20.3013 14.7965 19.799 14.6282 19.1951 14.6282C18.3606 14.6282 17.6916 14.9257 17.174 15.52C16.6672 16.108 16.397 17.0828 16.397 18.4808C16.397 19.968 16.6657 20.9879 17.1671 21.5803C17.6744 22.1797 18.3297 22.4788 19.1466 22.4788C19.7452 22.4788 20.2542 22.2895 20.6819 21.9117C21.1059 21.5371 21.4226 20.9362 21.6176 20.0865L21.6555 19.9212L24.2769 20.7535L24.2371 20.8986C23.8754 22.2153 23.2681 23.2106 22.4051 23.8671C21.5489 24.5171 20.4668 24.8365 19.1707 24.8365C17.5596 24.8365 16.226 24.2849 15.1828 23.1791C14.1373 22.0654 13.6226 20.552 13.6226 18.6585C13.6226 16.6599 14.1384 15.0867 15.1902 13.961Z" fill="#181D1F"/>
<path d="M25.6522 18.6261C25.6522 17.4191 25.8325 16.406 26.1931 15.587C26.4621 14.9835 26.8281 14.442 27.2908 13.9624C27.759 13.4829 28.2702 13.1272 28.8245 12.8955C29.5617 12.583 30.412 12.4268 31.3752 12.4268C33.1187 12.4268 34.5125 12.9683 35.5564 14.0514C36.6057 15.1344 37.1304 16.6405 37.1304 18.5696C37.1304 20.4825 36.6111 21.9804 35.5725 23.0635C34.534 24.1412 33.1455 24.68 31.4073 24.68C29.6476 24.68 28.2485 24.1438 27.2099 23.0716C26.1713 21.9939 25.6522 20.512 25.6522 18.6261ZM28.1142 18.5452C28.1142 19.8869 28.4236 20.9053 29.0424 21.6004C29.6613 22.2901 30.447 22.635 31.3994 22.635C32.3519 22.635 33.1322 22.2928 33.7403 21.6085C34.3538 20.9188 34.6605 19.8869 34.6605 18.5129C34.6605 17.1551 34.3618 16.142 33.7645 15.4739C33.1726 14.8057 32.3842 14.4717 31.3995 14.4717C30.4147 14.4717 29.621 14.8111 29.0183 15.49C28.4156 16.1636 28.1142 17.182 28.1142 18.5452Z" fill="#181D1F"/>
<path fill-rule="evenodd" clip-rule="evenodd" d="M31.3754 12.5833C30.4289 12.5833 29.6 12.7369 28.8855 13.0397L28.8848 13.04L28.8848 13.04C28.3521 13.2627 27.8581 13.6055 27.403 14.0716C26.953 14.538 26.5975 15.0641 26.336 15.6506C25.9868 16.444 25.8086 17.4339 25.8086 18.6262C25.8086 20.4826 26.3188 21.9216 27.3224 22.9631C28.3263 23.9994 29.682 24.5237 31.4074 24.5237C33.1107 24.5237 34.4558 23.9972 35.4601 22.9552C36.4636 21.9087 36.9743 20.4537 36.9743 18.5698C36.9743 16.6695 36.4582 15.2068 35.4444 14.1604L35.4441 14.1601C34.4344 13.1125 33.0839 12.5833 31.3754 12.5833ZM28.7641 12.7515C29.524 12.4294 30.3955 12.2705 31.3754 12.2705C33.1538 12.2705 34.5907 12.8243 35.6688 13.9427C36.7536 15.0625 37.2867 16.6119 37.2867 18.5698C37.2867 20.5115 36.7589 22.0524 35.6853 23.172L35.6851 23.1722C34.6122 24.2855 33.1806 24.8365 31.4074 24.8365C29.6137 24.8365 28.1712 24.2887 27.0979 23.1806L27.0976 23.1803C26.0241 22.0664 25.4962 20.5416 25.4962 18.6262C25.4962 17.4046 25.6785 16.3686 26.0503 15.5241L26.0506 15.5234L26.0506 15.5234C26.3271 14.9031 26.7033 14.3464 27.1787 13.8539L27.1793 13.8532L27.1793 13.8532C27.6603 13.3605 28.1885 12.9922 28.7641 12.7515ZM28.9019 15.3861C29.5369 14.6708 30.3746 14.3154 31.3996 14.3154C32.4237 14.3154 33.2564 14.6648 33.8813 15.37C34.5145 16.0785 34.8168 17.1361 34.8168 18.5131C34.8168 19.9072 34.506 20.9831 33.8571 21.7126C33.218 22.4318 32.3946 22.7916 31.3996 22.7916C30.4042 22.7916 29.5758 22.4289 28.9264 21.7051L28.926 21.7047C28.2724 20.9705 27.9581 19.9088 27.9581 18.5454C27.9581 17.1627 28.2633 16.0998 28.9019 15.3861ZM31.3996 14.6282C30.4552 14.6282 29.7055 14.9517 29.1351 15.5941L29.1347 15.5946C28.568 16.2279 28.2705 17.2017 28.2705 18.5454C28.2705 19.8652 28.575 20.8401 29.1589 21.4962C29.7471 22.1517 30.49 22.4788 31.3996 22.4788C32.3096 22.4788 33.0466 22.1541 33.6237 21.5047L33.6238 21.5046C34.2018 20.8548 34.5044 19.867 34.5044 18.5131C34.5044 17.1745 34.2095 16.2062 33.6483 15.5783L33.6478 15.5778C33.0888 14.9468 32.3449 14.6282 31.3996 14.6282Z" fill="#181D1F"/>
<path d="M39.0184 24.4779V12.6289H41.3431L46.1862 20.5418V12.6289H48.406V24.4779H46.0086L41.2383 16.7512V24.4779H39.0184Z" fill="#181D1F"/>
<path fill-rule="evenodd" clip-rule="evenodd" d="M38.8623 12.4727H41.4307L46.0301 19.9874V12.4727H48.5623V24.6345H45.9217L41.3946 17.3018V24.6345H38.8623V12.4727ZM39.1747 12.7855V24.3217H41.0822V16.2009L46.0958 24.3217H48.2499V12.7855H46.3425V21.0965L41.2557 12.7855H39.1747Z" fill="#181D1F"/>
<path d="M50.4491 18.6261C50.4491 17.4191 50.6294 16.406 50.9899 15.587C51.259 14.9835 51.6249 14.442 52.0877 13.9624C52.5559 13.4829 53.0671 13.1272 53.6214 12.8955C54.3586 12.583 55.2088 12.4268 56.1721 12.4268C57.9156 12.4268 59.3093 12.9683 60.3533 14.0514C61.4026 15.1344 61.9272 16.6405 61.9272 18.5696C61.9272 20.4825 61.408 21.9804 60.3694 23.0635C59.3308 24.1412 57.9424 24.68 56.2041 24.68C54.4445 24.68 53.0453 24.1438 52.0067 23.0716C50.9682 21.9939 50.4491 20.512 50.4491 18.6261ZM52.911 18.5452C52.911 19.8869 53.2205 20.9053 53.8393 21.6004C54.4582 22.2901 55.2438 22.635 56.1963 22.635C57.1488 22.635 57.9291 22.2928 58.5371 21.6085C59.1506 20.9188 59.4574 19.8869 59.4574 18.5129C59.4574 17.1551 59.1587 16.142 58.5614 15.4739C57.9695 14.8057 57.1811 14.4717 56.1963 14.4717C55.2116 14.4717 54.4178 14.8111 53.8151 15.49C53.2124 16.1636 52.911 17.182 52.911 18.5452Z" fill="#181D1F"/>
<path fill-rule="evenodd" clip-rule="evenodd" d="M56.1722 12.5833C55.2257 12.5833 54.3969 12.7369 53.6824 13.0397L53.6817 13.04L53.6817 13.04C53.149 13.2627 52.655 13.6055 52.1998 14.0716C51.7498 14.538 51.3944 15.0641 51.1329 15.6506C50.7836 16.444 50.6054 17.4339 50.6054 18.6262C50.6054 20.4826 51.1156 21.9216 52.1192 22.9631C53.1231 23.9994 54.4788 24.5237 56.2043 24.5237C57.9075 24.5237 59.2526 23.9972 60.2569 22.9552C61.2604 21.9087 61.7712 20.4537 61.7712 18.5698C61.7712 16.6695 61.2551 15.2068 60.2413 14.1604L60.241 14.1601C59.2313 13.1125 57.8807 12.5833 56.1722 12.5833ZM53.561 12.7515C54.3209 12.4294 55.1924 12.2705 56.1722 12.2705C57.9507 12.2705 59.3875 12.8243 60.4656 13.9427C61.5504 15.0625 62.0836 16.6119 62.0836 18.5698C62.0836 20.5115 61.5558 22.0524 60.4822 23.172L60.4819 23.1722C59.4091 24.2855 57.9774 24.8365 56.2043 24.8365C54.4106 24.8365 52.968 24.2887 51.8947 23.1806L51.8945 23.1803C50.821 22.0664 50.293 20.5416 50.293 18.6262C50.293 17.4046 50.4754 16.3686 50.8471 15.5241L50.8474 15.5234L50.8474 15.5234C51.124 14.9031 51.5002 14.3464 51.9755 13.8539L51.9761 13.8532L51.9761 13.8532C52.4572 13.3605 52.9854 12.9922 53.561 12.7515ZM53.6987 15.3861C54.3338 14.6708 55.1715 14.3154 56.1965 14.3154C57.2206 14.3154 58.0533 14.6648 58.6781 15.37C59.3113 16.0785 59.6137 17.1361 59.6137 18.5131C59.6137 19.9072 59.3028 20.9831 58.654 21.7126M53.6987 15.3861C53.0602 16.0998 52.755 17.1627 52.755 18.5454C52.755 19.9088 53.0692 20.9705 53.7228 21.7047L53.7232 21.7051C54.3727 22.4289 55.2011 22.7916 56.1964 22.7916C57.1914 22.7916 58.0149 22.4319 58.6539 21.7127M56.1965 14.6282C55.252 14.6282 54.5023 14.9517 53.932 15.5941L53.9316 15.5946C53.3649 16.2279 53.0674 17.2017 53.0674 18.5454C53.0674 19.8652 53.3719 20.8401 53.9558 21.4962C54.544 22.1517 55.2869 22.4788 56.1964 22.4788C57.1064 22.4788 57.8435 22.1541 58.4206 21.5047L58.4206 21.5046C58.9987 20.8548 59.3013 19.867 59.3013 18.5131C59.3013 17.1745 59.0064 16.2062 58.4451 15.5783L58.4447 15.5778C57.8857 14.9468 57.1418 14.6282 56.1965 14.6282Z" fill="#181D1F"/>
<path d="M63.7607 24.4779V12.6289H67.3365L69.4836 20.7114L71.6065 12.6289H75.1903V24.4779H72.9706V15.1508L70.6217 24.4779H68.3212L65.9804 15.1508V24.4779H63.7607Z" fill="#181D1F"/>
<path fill-rule="evenodd" clip-rule="evenodd" d="M63.6043 12.4727H67.4563L69.4825 20.0999L71.4858 12.4727H75.3463V24.6345H72.8141V16.4109L70.7431 24.6345H68.1991L66.1363 16.4151V24.6345H63.6043V12.4727ZM63.9167 12.7855V24.3217H65.8239V15.151L66.1316 15.1128L68.4427 24.3217H70.4997L72.8189 15.1127L73.1265 15.151V24.3217H75.0339V12.7855H71.7267L69.4842 21.3232L67.2161 12.7855H63.9167Z" fill="#181D1F"/>
<path d="M77.4906 24.4779V12.6289H79.8798V24.4779H77.4906Z" fill="#181D1F"/>
<path fill-rule="evenodd" clip-rule="evenodd" d="M77.3343 12.4727H80.036V24.6345H77.3343V12.4727ZM77.6467 12.7855V24.3217H79.7236V12.7855H77.6467Z" fill="#181D1F"/>
<path d="M89.7273 20.1214L92.0439 20.8569C91.6887 22.1501 91.0968 23.112 90.2681 23.7424C89.4448 24.3674 88.3981 24.6799 87.1282 24.6799C85.5568 24.6799 84.2654 24.1438 83.2538 23.0715C82.2421 21.9939 81.7363 20.5228 81.7363 18.6584C81.7363 16.6862 82.2448 15.1559 83.2618 14.0675C84.2789 12.9737 85.6162 12.4268 87.2737 12.4268C88.7212 12.4268 89.897 12.8551 90.801 13.7119C91.3391 14.2184 91.7427 14.9458 92.0118 15.8942L89.6467 16.4599C89.5068 15.8457 89.2135 15.3607 88.7669 15.0051C88.3256 14.6495 87.7875 14.4716 87.1525 14.4716C86.2754 14.4716 85.5624 14.7869 85.0135 15.4173C84.47 16.0478 84.1982 17.0688 84.1982 18.4806C84.1982 19.9785 84.4673 21.0454 85.0054 21.6813C85.5435 22.3171 86.243 22.635 87.104 22.635C87.739 22.635 88.2852 22.433 88.7426 22.0288C89.2 21.6247 89.5281 20.9889 89.7273 20.1214Z" fill="#181D1F"/>
<path fill-rule="evenodd" clip-rule="evenodd" d="M87.2736 12.5833C85.6542 12.5833 84.3602 13.1159 83.3761 14.1743C82.3939 15.2253 81.8924 16.7129 81.8924 18.6585C81.8924 20.4938 82.3896 21.9227 83.3673 22.9643C84.3472 24.003 85.5965 24.5237 87.1281 24.5237C88.372 24.5237 89.3832 24.218 90.1737 23.6179C90.9376 23.0367 91.5 22.156 91.8521 20.9603L89.8394 20.3213C89.6328 21.1255 89.3058 21.7399 88.8459 22.1463C88.3587 22.5767 87.7753 22.7916 87.104 22.7916C86.1989 22.7916 85.4551 22.4548 84.8861 21.7826C84.3113 21.1034 84.0419 19.9894 84.0419 18.4808C84.0419 17.0555 84.3151 15.9881 84.8952 15.3153C85.4754 14.6489 86.2327 14.3154 87.1524 14.3154C87.8183 14.3154 88.3921 14.5026 88.8644 14.8831C89.3031 15.2325 89.601 15.698 89.7603 16.2721L91.8151 15.7805C91.5526 14.9282 91.1766 14.2803 90.6939 13.826C89.8237 13.0012 88.6882 12.5833 87.2736 12.5833ZM83.1476 13.961C84.1976 12.8317 85.5781 12.2705 87.2736 12.2705C88.754 12.2705 89.9704 12.7097 90.9081 13.5983C91.4725 14.1296 91.8877 14.8849 92.1619 15.8516L92.2065 16.0085L89.5294 16.6489L89.4943 16.4949C89.3615 15.9115 89.0856 15.4589 88.6696 15.1277L88.6688 15.1271C88.2587 14.7965 87.7564 14.6282 87.1524 14.6282C86.318 14.6282 85.6489 14.9257 85.1314 15.52C84.6246 16.108 84.3543 17.0828 84.3543 18.4808C84.3543 19.968 84.6231 20.9879 85.1245 21.5803C85.6318 22.1797 86.2871 22.4788 87.104 22.4788C87.7026 22.4788 88.2116 22.2895 88.6392 21.9117C89.0633 21.5371 89.38 20.9362 89.575 20.0865L89.6129 19.9212L92.2343 20.7535L92.1944 20.8986C91.8328 22.2153 91.2255 23.2106 90.3625 23.8671C89.5063 24.5171 88.4242 24.8365 87.1281 24.8365C85.517 24.8365 84.1834 24.2849 83.1402 23.1791C82.0947 22.0654 81.58 20.552 81.58 18.6585C81.58 16.6599 82.0957 15.0867 83.1476 13.961Z" fill="#181D1F"/>
<path d="M93.4884 20.6224L95.8131 20.3961C95.953 21.1774 96.2355 21.7513 96.6606 22.1177C97.0911 22.4841 97.6696 22.6673 98.3961 22.6673C99.1656 22.6673 99.7441 22.5057 100.132 22.1824C100.524 21.8537 100.721 21.4711 100.721 21.0346C100.721 20.7544 100.637 20.5174 100.471 20.3234C100.309 20.124 100.024 19.9516 99.6149 19.8061C99.3351 19.7091 98.6974 19.5367 97.7019 19.2888C96.4212 18.9709 95.5225 18.5803 95.0059 18.1169C94.2794 17.4649 93.9162 16.6701 93.9162 15.7325C93.9162 15.129 94.0857 14.5659 94.4247 14.0433C94.7691 13.5152 95.2615 13.1138 95.9018 12.839C96.5476 12.5642 97.3252 12.4268 98.2346 12.4268C99.7198 12.4268 100.836 12.7527 101.584 13.4047C102.338 14.0567 102.733 14.9269 102.771 16.0154L100.382 16.1204C100.28 15.5116 100.059 15.0751 99.7199 14.8111C99.3862 14.5417 98.8831 14.407 98.2105 14.407C97.5163 14.407 96.9728 14.5497 96.5799 14.8353C96.327 15.0185 96.2006 15.2637 96.2006 15.5708C96.2006 15.851 96.3189 16.0908 96.5557 16.2902C96.8571 16.5434 97.5889 16.8075 98.7513 17.0823C99.9136 17.357 100.772 17.6426 101.326 17.939C101.886 18.23 102.322 18.6314 102.634 19.1433C102.951 19.6498 103.11 20.2776 103.11 21.0265C103.11 21.7055 102.922 22.3413 102.545 22.934C102.168 23.5267 101.636 23.9686 100.947 24.2596C100.258 24.5451 99.3997 24.6879 98.3719 24.6879C96.8759 24.6879 95.727 24.3431 94.9251 23.6534C94.1233 22.9583 93.6444 21.948 93.4884 20.6224Z" fill="#181D1F"/>
<path fill-rule="evenodd" clip-rule="evenodd" d="M98.2344 12.5833C97.3401 12.5833 96.5845 12.7185 95.963 12.983C95.3479 13.247 94.8811 13.6294 94.5554 14.1288C94.2323 14.6269 94.0722 15.1605 94.0722 15.7327C94.0722 16.6237 94.4149 17.3768 95.1099 18.0006C95.5971 18.4376 96.4648 18.8208 97.7393 19.1372C98.733 19.3846 99.3781 19.5587 99.6658 19.6585L99.667 19.6589C100.085 19.8077 100.402 19.9918 100.59 20.2232C100.783 20.448 100.877 20.7218 100.877 21.0348C100.877 21.5259 100.653 21.9499 100.231 22.3025C99.8045 22.6588 99.1836 22.8239 98.3959 22.8239C97.6432 22.8239 97.0253 22.6337 96.5593 22.237L96.5585 22.2364C96.1245 21.8623 95.8386 21.2987 95.6865 20.5657L93.6637 20.7627C93.8348 21.9806 94.2933 22.8989 95.027 23.5351C95.7907 24.1919 96.8978 24.5317 98.3717 24.5317C99.386 24.5317 100.222 24.3906 100.886 24.1154C101.548 23.8359 102.055 23.4142 102.413 22.8502C102.774 22.2817 102.954 21.6748 102.954 21.0267C102.954 20.2997 102.8 19.7026 102.501 19.2266L102.5 19.225C102.204 18.7387 101.79 18.3565 101.254 18.078L101.252 18.0771C100.716 17.7905 99.8739 17.5086 98.7152 17.2346C98.1309 17.0965 97.6511 16.9602 97.2775 16.8254C96.9078 16.6921 96.6278 16.5553 96.4551 16.4101C96.1872 16.1846 96.0442 15.9026 96.0442 15.571C96.0442 15.2126 96.1955 14.9208 96.4882 14.7088M102.607 15.8662C102.54 14.8898 102.164 14.1131 101.482 13.5232C100.774 12.9058 99.7001 12.5833 98.2344 12.5833M95.8405 12.6952C96.5104 12.4101 97.3099 12.2705 98.2344 12.2705C99.739 12.2705 100.899 12.6003 101.687 13.2867C102.476 13.97 102.888 14.8827 102.927 16.0101L102.932 16.165L100.25 16.2829L100.228 16.1465C100.129 15.5596 99.9207 15.166 99.6238 14.9347L99.6216 14.933C99.3276 14.6956 98.8663 14.5635 98.2102 14.5635C97.5354 14.5635 97.0284 14.7026 96.6715 14.962C96.4583 15.1165 96.3566 15.3151 96.3566 15.571C96.3566 15.7998 96.4504 15.9974 96.6561 16.1706C96.7848 16.2787 97.0213 16.4005 97.3834 16.5311C97.7416 16.6604 98.2089 16.7935 98.787 16.9302C99.9524 17.2057 100.826 17.4948 101.399 17.8008C101.982 18.104 102.439 18.5242 102.766 19.0611C103.103 19.598 103.266 20.2561 103.266 21.0267C103.266 21.7364 103.069 22.4012 102.677 23.0181C102.282 23.6395 101.723 24.1013 101.007 24.4038L101.006 24.4042C100.293 24.7 99.4127 24.8445 98.3717 24.8445C96.8537 24.8445 95.6631 24.4947 94.8232 23.7722C93.9849 23.0454 93.4925 21.9948 93.3331 20.6409L93.3144 20.4824L95.9412 20.2267L95.9666 20.3687C96.1027 21.1287 96.3735 21.664 96.7619 21.9989C97.1568 22.335 97.6958 22.5111 98.3959 22.5111C99.1472 22.5111 99.6834 22.3527 100.031 22.0624C100.395 21.7577 100.564 21.4166 100.564 21.0348C100.564 20.7882 100.492 20.5884 100.352 20.4256L100.349 20.4221C100.214 20.2557 99.9612 20.0955 99.563 19.9538C99.2907 19.8595 98.6606 19.6889 97.6641 19.4408C96.3772 19.1213 95.4475 18.7233 94.9015 18.2335C94.1435 17.5533 93.7598 16.7168 93.7598 15.7327C93.7598 15.0979 93.9386 14.5054 94.2935 13.9582C94.6565 13.4017 95.175 12.9808 95.8405 12.6952Z" fill="#181D1F"/>
<path d="M3.58242 11.002V2.14191H0.42218V0.337891H8.8854V2.14191H5.73267V11.002H3.58242Z" fill="#181D1F"/>
<path fill-rule="evenodd" clip-rule="evenodd" d="M0.266113 0.181641H9.04174V2.29848H5.889V11.1586H3.42635V2.29848H0.266113V0.181641ZM0.578513 0.494453V1.98566H3.73875V10.8458H5.5766V1.98566H8.72934V0.494453H0.578513Z" fill="#181D1F"/>
<path d="M10.2808 11.002V0.337891H14.8066C15.9447 0.337891 16.7704 0.434882 17.2838 0.628863C17.802 0.817994 18.2161 1.15746 18.5261 1.64726C18.836 2.13706 18.991 2.69718 18.991 3.32762C18.991 4.1278 18.7561 4.78975 18.2863 5.31348C17.8165 5.83238 17.1143 6.15972 16.1796 6.2955C16.6445 6.56706 17.0271 6.86531 17.3274 7.19024C17.6325 7.51514 18.0417 8.09223 18.5551 8.9215L19.8555 11.002H17.2838L15.7291 8.68145C15.177 7.85218 14.7993 7.33086 14.5958 7.11748C14.3924 6.89926 14.1769 6.75135 13.9493 6.67375C13.7217 6.59131 13.3609 6.55009 12.8669 6.55009H12.431V11.002L10.2808 11.002ZM12.4312 4.84803H14.0221C15.0537 4.84803 15.6978 4.80438 15.9545 4.71709C16.2112 4.6298 16.4122 4.47946 16.5575 4.26607C16.7028 4.05269 16.7754 3.78597 16.7754 3.4659C16.7754 3.10704 16.6786 2.81849 16.4849 2.60025C16.296 2.37718 16.0272 2.23654 15.6785 2.17833C15.5041 2.15408 14.9811 2.14196 14.1093 2.14196H12.4312L12.4312 4.84803Z" fill="#181D1F"/>
<path d="M30.6209 11.002H28.2817L27.3518 8.57966H23.0947L22.2157 11.002H19.9346L24.0826 0.337891H26.3565L30.6209 11.002ZM26.6616 6.78277L25.1941 2.82569L23.7557 6.78277H26.6616Z" fill="#181D1F"/>
<path fill-rule="evenodd" clip-rule="evenodd" d="M23.9762 0.181641H26.4626L30.8521 11.1586H28.1748L27.2449 8.73623H23.2045L22.3255 11.1586H19.7065L23.9762 0.181641ZM24.1898 0.494453L20.1634 10.8457H22.1066L22.9857 8.42341H27.4595L28.3894 10.8457H30.3905L26.2511 0.494453H24.1898ZM25.193 2.37259L26.8866 6.93934H23.533L25.193 2.37259ZM25.1959 3.2791L23.9791 6.62652H26.4373L25.1959 3.2791Z" fill="#181D1F"/>
<path d="M31.7552 0.337891H35.6855C36.5718 0.337891 37.2474 0.405784 37.7124 0.54157C38.3371 0.725852 38.8723 1.05319 39.3178 1.52358C39.7634 1.99399 40.1024 2.57108 40.3349 3.25485C40.5674 3.93377 40.6836 4.77274 40.6836 5.77174C40.6836 6.64949 40.5746 7.40602 40.3567 8.04132C40.0903 8.81724 39.7101 9.44526 39.2161 9.92536C38.8432 10.2891 38.3395 10.5728 37.7051 10.7765C37.2305 10.9268 36.596 11.002 35.8018 11.002H31.7553L31.7552 0.337891ZM33.9055 2.14191V9.20523H35.511C36.1116 9.20523 36.545 9.17128 36.8114 9.10339C37.1601 9.0161 37.4483 8.86819 37.6759 8.65966C37.9084 8.45113 38.0972 8.10924 38.2425 7.63398C38.3878 7.15388 38.4605 6.50162 38.4605 5.67721C38.4605 4.8528 38.3878 4.21994 38.2425 3.77863C38.0972 3.33731 37.8938 2.993 37.6323 2.74569C37.3708 2.49836 37.039 2.33104 36.637 2.24375C36.3368 2.17585 35.7483 2.14191 34.8717 2.14191L33.9055 2.14191Z" fill="#181D1F"/>
<path fill-rule="evenodd" clip-rule="evenodd" d="M31.5989 0.181641H35.6854C36.5764 0.181641 37.2697 0.249533 37.756 0.391576C38.407 0.583594 38.9665 0.9256 39.4311 1.41611C39.8938 1.9046 40.2437 2.50182 40.4826 3.20439C40.7224 3.90464 40.8397 4.76193 40.8397 5.77189C40.8397 6.66193 40.7293 7.43649 40.5044 8.09228C40.2315 8.88705 39.8395 9.53756 39.3249 10.0377C38.9305 10.4223 38.4038 10.7165 37.7527 10.9256C37.2566 11.0827 36.6036 11.1585 35.8017 11.1585H31.599L31.5989 0.181641ZM31.9113 0.494453L31.9114 10.8457H35.8017C36.5881 10.8457 37.2046 10.771 37.6576 10.6276C38.2752 10.4293 38.7557 10.1562 39.1071 9.81347C39.5804 9.35345 39.949 8.7477 40.2089 7.99063C40.4198 7.37583 40.5273 6.63734 40.5273 5.77189C40.5273 4.78391 40.4122 3.96332 40.1871 3.30573C39.961 2.64085 39.6328 2.08364 39.2044 1.63137C38.778 1.18115 38.2668 0.868382 37.6684 0.691824C37.2249 0.562329 36.5669 0.494453 35.6854 0.494453H31.9113ZM34.8717 1.98566C35.7453 1.98566 36.3507 2.01897 36.6707 2.09119C37.0962 2.18368 37.4546 2.36269 37.7395 2.63213C38.0246 2.90171 38.2397 3.27079 38.3908 3.72981C38.5438 4.19466 38.6166 4.8471 38.6166 5.67737C38.6166 6.50862 38.5436 7.17829 38.3919 7.67949C38.2429 8.167 38.0431 8.54007 37.7807 8.77575C37.5311 9.00417 37.2188 9.16271 36.8495 9.2552C36.5628 9.32821 36.1127 9.36179 35.511 9.36179H33.7493V1.98566L34.8717 1.98566ZM34.0617 2.29847L34.8717 2.29847C35.7506 2.29847 36.3219 2.33301 36.6026 2.39647L36.6039 2.39675C36.9821 2.47889 37.287 2.63446 37.525 2.85955C37.763 3.0846 37.9547 3.40414 38.0941 3.82775C38.2317 4.24554 38.3042 4.85882 38.3042 5.67737C38.3042 6.49477 38.2319 7.12952 38.0931 7.58851C37.9516 8.05104 37.7738 8.36193 37.5716 8.54332L37.5704 8.54441C37.3649 8.7327 37.1011 8.86977 36.7734 8.9518C36.5274 9.01452 36.1101 9.04897 35.511 9.04897H34.0617V2.29847Z" fill="#181D1F"/>
<path d="M42.4422 11.002V0.337891H44.5925V11.002H42.4422Z" fill="#181D1F"/>
<path fill-rule="evenodd" clip-rule="evenodd" d="M42.2861 0.181641H44.7489V11.1586H42.2861V0.181641ZM42.5985 0.494453V10.8457H44.4365V0.494453H42.5985Z" fill="#181D1F"/>
<path d="M46.6627 11.002V0.337891H48.755L53.1139 7.45939V0.337891H55.1117V11.002H52.9541L48.6607 4.04785V11.002H46.6627Z" fill="#181D1F"/>
<path fill-rule="evenodd" clip-rule="evenodd" d="M46.5067 0.181641H48.8426L52.9578 6.90504V0.181641H55.268V11.1586H52.8671L48.8171 4.59846V11.1586H46.5067V0.181641ZM46.8191 0.494453V10.8457H48.5047V3.49755L53.0413 10.8457H54.9556V0.494453H53.2702V8.01405L48.6676 0.494453H46.8191Z" fill="#181D1F"/>
<path d="M62.3391 7.0812V5.28447H66.9738V9.53278C66.5234 9.96924 65.8696 10.3548 65.0124 10.6894C64.16 11.0191 63.2955 11.184 62.4189 11.184C61.305 11.184 60.3339 10.9512 59.5058 10.4857C58.6776 10.0153 58.0553 9.34606 57.6387 8.47801C57.2222 7.60509 57.014 6.65701 57.014 5.63376C57.014 4.52321 57.2464 3.53634 57.7114 2.67314C58.1763 1.80992 58.8568 1.14797 59.7527 0.687281C60.4356 0.33326 61.2856 0.15625 62.3027 0.15625C63.6248 0.15625 64.6564 0.435101 65.3974 0.992805C66.1433 1.54565 66.6227 2.31187 66.8358 3.29148L64.7 3.69157C64.5499 3.16781 64.2665 2.75561 63.85 2.45495C63.4384 2.14944 62.9226 1.99668 62.3027 1.99668C61.3631 1.99668 60.6148 2.29493 60.0579 2.89142C59.5058 3.48791 59.2297 4.37295 59.2297 5.54654C59.2297 6.81227 59.5106 7.76277 60.0724 8.39805C60.6342 9.02849 61.3703 9.34371 62.2808 9.34371C62.7313 9.34371 63.1817 9.25642 63.6321 9.08184C64.0873 8.90241 64.4772 8.68661 64.8017 8.43444V7.08144L62.3391 7.0812Z" fill="#181D1F"/>
<path d="M59.6813 0.548431C60.3923 0.179875 61.2686 0 62.3028 0C63.6445 0 64.7135 0.282696 65.4909 0.867591C66.2694 1.44482 66.7682 2.24508 66.9886 3.25835L67.0228 3.41575L64.5892 3.87162L64.55 3.73487C64.4089 3.24268 64.1451 2.86085 63.7588 2.58199L63.7571 2.58078C63.3777 2.29914 62.8964 2.15325 62.3028 2.15325C61.3994 2.15325 60.6951 2.43836 60.1723 2.99814C59.6569 3.55512 59.386 4.39538 59.386 5.5467C59.386 6.79236 59.6628 7.69887 60.1893 8.29432C60.7189 8.8885 61.4111 9.18747 62.281 9.18747C62.7106 9.18747 63.1418 9.10431 63.5754 8.93631C63.9908 8.77254 64.347 8.57905 64.6456 8.35698V7.23799L62.183 7.23775V5.12822H67.1302V9.59923L67.0826 9.64533C66.612 10.1013 65.9375 10.4963 65.0692 10.8353C64.1997 11.1717 63.3157 11.3406 62.419 11.3406C61.283 11.3406 60.2847 11.103 59.4294 10.6222C58.5733 10.1359 57.9282 9.44238 57.4981 8.5459C57.0709 7.65072 56.8579 6.67912 56.8579 5.63391C56.8579 4.50092 57.0953 3.48794 57.574 2.59905L59.6813 0.548431Z" fill="#181D1F"/>
</g>
</svg>
